<svg width="69" height="66" viewBox="0 0 69 66" fill="none" xmlns="http://www.w3.org/2000/svg">
<path d="M66.1 65.67H1.96003C0.890029 65.67 0.0300293 64.81 0.0300293 63.74C0.0300293 62.67 0.890029 61.81 1.96003 61.81H66.1C67.17 61.81 68.03 62.67 68.03 63.74C68.03 64.81 67.16 65.67 66.1 65.67Z" fill="#A2D7A2"/>
<path d="M9.88994 62.35C9.75994 62.35 9.61994 62.33 9.48994 62.28C8.87994 62.06 8.56994 61.38 8.78994 60.77L14.6399 44.81C14.8099 44.35 15.2499 44.04 15.7399 44.04H31.1899C31.8399 44.04 31.8299 44.63 31.8299 45.28C31.8299 45.93 31.8299 46.39 31.1899 46.39H16.5599L10.9999 61.58C10.8199 62.06 10.3699 62.35 9.88994 62.35Z" fill="#17393F"/>
<path d="M15.99 45.8101L10.24 61.1101C10.08 61.5501 9.66998 61.8301 9.22998 61.8501C9.25998 61.8701 9.28998 61.8801 9.32998 61.9001C9.45998 61.9501 9.58998 61.9701 9.72998 61.9701C10.2 61.9701 10.64 61.6801 10.81 61.2101L16.36 46.1301H30.71C31.2 46.1301 31.62 45.8201 31.79 45.3801C31.36 45.7401 30.89 45.8001 30.35 45.8001H15.99V45.8101Z" fill="#3B6A79"/>
<path d="M57.88 62.35C58.01 62.35 58.15 62.33 58.28 62.28C58.89 62.06 59.2 61.38 58.98 60.77L53.13 44.81C52.96 44.35 52.52 44.04 52.03 44.04H36.58C35.93 44.04 36.05 44.56 36.05 45.21C36.05 45.86 35.93 46.39 36.58 46.39H51.21L56.78 61.58C56.95 62.06 57.4 62.35 57.88 62.35Z" fill="#17393F"/>
<path d="M51.79 45.8101L57.54 61.1101C57.7 61.5501 58.11 61.8301 58.55 61.8501C58.52 61.8701 58.49 61.8801 58.45 61.9001C58.32 61.9501 58.19 61.9701 58.05 61.9701C57.58 61.9701 57.14 61.6801 56.97 61.2101L51.42 46.1301H37.06C36.57 46.1301 36.15 45.8201 35.98 45.3801C36.41 45.7401 36.88 45.8001 37.42 45.8001H51.79V45.8101Z" fill="#3B6A79"/>
<path d="M57.7899 38.42H34.1799V41.83C35.2499 41.94 36.1199 42.67 36.4299 43.65H57.7899C58.7499 43.65 59.5299 42.87 59.5299 41.91V40.15C59.5299 39.2 58.7499 38.42 57.7899 38.42Z" fill="#A03607"/>
<path d="M33.6 41.8401V38.4301H9.97999C9.01999 38.4301 8.23999 39.2101 8.23999 40.1701V41.9301C8.23999 42.8901 9.01999 43.6701 9.97999 43.6701H31.35C31.66 42.6801 32.53 41.9501 33.6 41.8401Z" fill="#A03607"/>
<path d="M8.96002 42.58V40.96C8.96002 40.08 9.70002 39.36 10.62 39.36H33.06V38.78H10.43C9.51002 38.78 8.77002 39.5 8.77002 40.38V42C8.77002 42.28 8.85002 42.53 8.98002 42.76C8.97002 42.7 8.96002 42.65 8.96002 42.58Z" fill="#FF6000"/>
<path d="M58.82 42.58V40.96C58.82 40.08 58.08 39.36 57.16 39.36H34.72V38.78H57.34C58.26 38.78 59 39.5 59 40.38V42C59 42.28 58.92 42.53 58.79 42.76C58.81 42.7 58.82 42.65 58.82 42.58Z" fill="#FF6000"/>
<path d="M33.89 47.93C31.93 47.93 30.33 46.37 30.33 44.45C30.33 42.53 31.93 40.97 33.89 40.97C35.85 40.97 37.45 42.53 37.45 44.45C37.45 46.37 35.85 47.93 33.89 47.93ZM33.89 42.65C32.9 42.65 32.09 43.46 32.09 44.45C32.09 45.44 32.9 46.25 33.89 46.25C34.88 46.25 35.69 45.44 35.69 44.45C35.69 43.45 34.88 42.65 33.89 42.65Z" fill="#17393F"/>
<path d="M44.0299 28.42L39.6499 12.71C39.3399 11.59 38.3099 10.81 37.1499 10.81H35.7999L36.4299 10.18V10.13C36.4299 9.46003 35.8799 8.91003 35.2099 8.91003H34.5199H33.1499H32.5499C31.8799 8.91003 31.3299 9.46003 31.3299 10.13V10.18L31.9599 10.81H30.6199C29.4499 10.81 28.4299 11.59 28.1199 12.71L23.7399 28.42C23.4599 29.43 23.8099 30.51 24.6299 31.16L26.5799 32.82C26.2399 32.93 25.9899 33.25 25.9899 33.63V34.58C25.9899 35.05 26.3699 35.43 26.8399 35.43H40.8999C41.3699 35.43 41.7499 35.05 41.7499 34.58V33.63C41.7499 33.25 41.4999 32.94 41.1599 32.82L43.1099 31.16C43.9599 30.51 44.3099 29.43 44.0299 28.42ZM40.7499 31.51L38.9899 32.78H35.9099V31.73H36.4999V31.22L37.7699 30.32C37.8799 30.24 37.9499 30.11 37.9499 29.97V29.68C37.9499 29.44 37.7599 29.25 37.5199 29.25H34.0299H33.7299H30.2399C29.9999 29.25 29.8099 29.44 29.8099 29.68V29.97C29.8099 30.11 29.8799 30.24 29.9899 30.32L31.2599 31.22V31.73H31.8499V32.78H28.7699L27.0099 31.51C26.1899 30.92 25.8399 29.93 26.1199 29.02L29.7599 13.5C30.0699 12.47 31.0999 11.77 32.2599 11.77H32.2699V12.7H31.6199V13.43H36.1199V12.7H35.4699V11.77H35.4799C36.6499 11.77 37.6699 12.48 37.9799 13.5L41.6199 29.02C41.9199 29.93 41.5699 30.91 40.7499 31.51Z" fill="#17393F"/>
<path d="M40.58 37.32L39.28 35.11H38.27H29.5H28.49L27.19 37.32C26.95 37.72 27.24 38.23 27.71 38.23H29.5H38.27H40.06C40.53 38.23 40.82 37.72 40.58 37.32Z" fill="#17393F"/>
<path d="M39.6099 24.89C39.5999 24.83 38.4699 18.81 37.9599 16.32C37.6299 14.71 36.4399 13.64 34.4199 13.13L34.4099 12.92L34.0999 12.97C34.0399 12.98 33.9899 12.99 33.9399 13L33.8899 13.01L33.8399 13C33.7899 12.99 33.7299 12.98 33.6799 12.97L33.3699 12.92L33.3599 13.13C31.3399 13.64 30.1499 14.71 29.8199 16.32C29.3099 18.81 28.1799 24.83 28.1699 24.89C27.9499 26.1 28.5199 27.31 29.5999 27.89C30.2799 28.26 30.7699 28.59 31.0199 28.84C31.6199 29.44 31.4799 29.8 31.4799 29.8L31.2799 30.2H36.0399L36.4499 30.19L36.2999 29.81C36.2899 29.8 36.1599 29.44 36.7599 28.84C37.0099 28.59 37.4999 28.26 38.1799 27.89C39.2599 27.31 39.8299 26.1 39.6099 24.89ZM37.9099 27.4C37.1699 27.8 36.6499 28.15 36.3599 28.44C35.8699 28.93 35.7399 29.35 35.7199 29.64H32.0499C32.0399 29.35 31.9099 28.93 31.4099 28.44C31.1199 28.15 30.5999 27.8 29.8599 27.4C28.9899 26.93 28.5299 25.96 28.7099 24.99C28.7199 24.93 29.8499 18.91 30.3599 16.43C30.6499 15 31.7699 14.06 33.6799 13.62L33.8799 13.58H33.8899H33.8999L34.0999 13.62C36.0099 14.05 37.1299 14.99 37.4199 16.43C37.9199 18.9 39.0499 24.88 39.0699 24.99C39.2399 25.96 38.7799 26.93 37.9099 27.4Z" fill="#17393F"/>
<path d="M33.37 27.66C33.37 27.66 30.8 27.27 30.71 25.5C30.57 22.95 32.88 21.86 32.92 20.15C32.92 20.15 33.97 21.57 33.62 22.71C33.65 22.61 33.82 22.47 33.88 22.37C34.07 22.08 34.2 21.75 34.23 21.42C34.28 20.96 34.14 20.5 33.85 20.11C33.65 19.83 33.34 19.65 33.13 19.4C32.65 18.84 33.21 17.96 33.69 17.56C33.7 18.58 34.63 19.4 35.37 20.21C35.99 20.88 36.52 21.62 36.82 22.43C37.12 23.24 37.19 24.64 36.87 25.45C36.45 26.53 35.33 27.08 34.1 27.52" fill="#A03607"/>
<path d="M33.8899 30.2C33.5499 30.2 33.2799 29.93 33.2799 29.59V26.19C33.2799 25.85 33.5499 25.58 33.8899 25.58C34.2299 25.58 34.4999 25.85 34.4999 26.19V29.59C34.4999 29.93 34.2299 30.2 33.8899 30.2Z" fill="#17393F"/>
<path d="M42.83 29.69C39.1 28.04 36.3499 26.18 34.32 24.35C39.2999 19.64 39.6399 15.22 39.66 14.96L39.0999 14.93C39.0999 14.99 38.75 19.32 33.8899 23.95C29.0299 19.32 28.68 14.99 28.68 14.93L28.12 14.96C28.13 15.22 28.4699 19.64 33.4599 24.35C31.4299 26.18 28.69 28.04 24.95 29.69L25.18 30.2C29.01 28.51 31.82 26.62 33.8899 24.75C35.9599 26.62 38.7799 28.51 42.5999 30.2L42.83 29.69Z" fill="#17393F"/>
<path d="M26.3899 19.31C25.7799 19.15 25.1399 19.57 24.9599 20.25C24.7799 20.93 25.1199 21.62 25.7199 21.78C26.3299 21.94 26.9699 21.52 27.1499 20.84C27.3399 20.16 26.9999 19.47 26.3899 19.31Z" fill="#17393F"/>
<path d="M42.81 20.25C42.63 19.57 41.99 19.14 41.38 19.31C40.77 19.47 40.43 20.16 40.62 20.84C40.8 21.52 41.44 21.95 42.05 21.78C42.66 21.62 43 20.93 42.81 20.25Z" fill="#17393F"/>
<path d="M33.8899 0.710022C28.0499 0.710022 23.8199 9.60002 23.8199 15.59C23.8199 18.8 24.9299 21.05 27.1699 22.38C27.1999 22.01 27.3499 21.66 27.6199 21.32C25.8099 20.16 24.9399 18.27 24.9399 15.59C24.9399 9.52002 29.1599 1.83002 33.8899 1.83002C38.6299 1.83002 42.8399 9.52002 42.8399 15.59C42.8399 17.9 42.1899 19.62 40.8599 20.79C41.1899 21.06 41.4499 21.34 41.6199 21.65C43.1799 20.28 43.9599 18.27 43.9599 15.59C43.9599 9.60002 39.7299 0.710022 33.8899 0.710022Z" fill="#17393F"/>
<path d="M33.8899 0.710022C28.0499 0.710022 23.8199 9.60002 23.8199 15.59C23.8199 18.8 24.9299 21.05 27.1699 22.38C27.1999 22.01 27.3499 21.66 27.6199 21.32C25.8099 20.16 24.9399 18.27 24.9399 15.59C24.9399 9.52002 29.1599 1.83002 33.8899 1.83002C38.6299 1.83002 42.8399 9.52002 42.8399 15.59C42.8399 17.9 42.1899 19.62 40.8599 20.79C41.1899 21.06 41.4499 21.34 41.6199 21.65C43.1799 20.28 43.9599 18.27 43.9599 15.59C43.9599 9.60002 39.7299 0.710022 33.8899 0.710022Z" fill="#17393F"/>
<path d="M33.89 1.33004C39.56 1.33004 43.68 9.82004 43.8 15.72C43.8 15.67 43.81 15.62 43.81 15.57C43.81 9.67004 39.64 0.920044 33.89 0.920044C28.14 0.920044 23.97 9.67004 23.97 15.57C23.97 15.62 23.98 15.66 23.98 15.71C24.1 9.81004 28.22 1.33004 33.89 1.33004Z" fill="#3B6A79"/>
<path d="M33.8999 7.23001C34.2799 7.23001 34.5999 7.54001 34.5999 7.92001C34.5999 8.30001 34.2899 8.61001 33.8999 8.61001C33.5199 8.61001 33.1999 8.30001 33.1999 7.92001C33.1999 7.54001 33.5099 7.23001 33.8999 7.23001ZM33.8999 6.70001C33.2099 6.70001 32.6399 7.25001 32.6399 7.92001C32.6399 8.59001 33.1999 9.14001 33.8999 9.14001C34.5899 9.14001 35.1599 8.59001 35.1599 7.92001C35.1599 7.25001 34.5899 6.70001 33.8999 6.70001Z" fill="#17393F"/>
</svg>
