<svg width="22" height="24" viewBox="0 0 22 24" fill="none" xmlns="http://www.w3.org/2000/svg">
<path d="M18.62 3.23999H17.65H15.84H14.83C15.23 3.75999 15.58 4.32999 15.85 4.93999H18.62C19.39 4.93999 20.01 5.55999 20.01 6.32999V20.08C20.01 20.85 19.39 21.47 18.62 21.47H6.97001C6.20001 21.47 5.58 20.85 5.58 20.08V16.84C4.99 16.67 4.42 16.44 3.88 16.16V19V20.08C3.88 20.3 3.91 20.52 3.95 20.73C4.25 22.12 5.49001 23.17 6.97001 23.17H18.62C20.32 23.17 21.71 21.78 21.71 20.08V6.32999C21.71 4.62999 20.33 3.23999 18.62 3.23999Z" fill="black"/>
<path d="M13.12 14.16C13.68 13.65 14.17 13.05 14.56 12.4C14.65 12.25 14.73 12.1 14.81 11.94C15.33 10.91 15.63 9.74002 15.63 8.50002C15.63 6.39002 14.77 4.47002 13.38 3.08002C13.21 2.91002 13.02 2.74002 12.84 2.58002C12.65 2.42002 12.45 2.28002 12.25 2.14002C11.03 1.31002 9.54999 0.830017 7.95999 0.830017C6.36999 0.830017 4.89999 1.31002 3.66999 2.14002C3.46999 2.28002 3.26999 2.43002 3.07999 2.58002C2.70999 2.90002 2.35999 3.25002 2.04999 3.63002C1.57999 4.20002 1.18999 4.83002 0.899988 5.52002C0.509988 6.44002 0.299988 7.45002 0.299988 8.50002C0.299988 9.29002 0.419988 10.06 0.649988 10.78C0.719988 11.02 0.809988 11.26 0.909988 11.48C2.07999 14.23 4.79999 16.17 7.97999 16.17C9.94999 16.17 11.76 15.41 13.12 14.16ZM1.74999 8.50002C1.74999 5.50002 3.87999 2.99002 6.70999 2.41002C7.10999 2.33002 7.52999 2.28002 7.95999 2.28002C8.38999 2.28002 8.80999 2.32002 9.20999 2.41002C9.74999 2.52002 10.26 2.71002 10.74 2.95002C11.11 3.14002 11.46 3.36002 11.79 3.61002C11.84 3.65002 11.9 3.69002 11.95 3.74002C12.17 3.92002 12.37 4.12002 12.56 4.34002C12.68 4.47002 12.8 4.61002 12.9 4.75002C13.7 5.80002 14.18 7.10002 14.18 8.50002C14.18 9.84002 13.75 11.08 13.03 12.09C12.84 12.36 12.63 12.61 12.4 12.85C12.39 12.86 12.38 12.88 12.36 12.89C11.24 14.01 9.67999 14.71 7.96999 14.71C4.53999 14.72 1.74999 11.93 1.74999 8.50002Z" fill="black"/>
<path d="M5.48999 12.57L7.56999 10.05C7.69999 10.08 7.82999 10.11 7.96999 10.11C8.84999 10.11 9.55999 9.39001 9.55999 8.52001C9.55999 7.84001 9.12999 7.27001 8.53999 7.04001V5.00001C8.53999 4.70001 8.28999 4.45001 7.98999 4.45001C7.68999 4.45001 7.43999 4.70001 7.43999 5.00001V7.00001C6.81999 7.22001 6.36999 7.80001 6.36999 8.50001C6.36999 8.80001 6.45999 9.08001 6.60999 9.32001L4.56999 11.8C4.35999 12.06 4.39999 12.43 4.64999 12.64C4.89999 12.86 5.27999 12.82 5.48999 12.57ZM7.95999 7.91001C8.28999 7.91001 8.54999 8.18001 8.54999 8.50001C8.54999 8.82001 8.27999 9.09001 7.95999 9.09001C7.63999 9.09001 7.35999 8.82001 7.35999 8.50001C7.35999 8.18001 7.62999 7.91001 7.95999 7.91001Z" fill="black"/>
<path d="M7.25 18.65C7.25 19.34 7.81 19.89 8.49 19.89H10.87C11.56 19.89 12.11 19.33 12.11 18.65V16.11C10.88 16.78 9.47 17.17 7.97 17.17C7.73 17.17 7.49 17.15 7.25 17.13V18.65Z" fill="black"/>
<path d="M13.54 15.13V18.65C13.54 19.34 14.1 19.89 14.78 19.89H17.16C17.85 19.89 18.4 19.33 18.4 18.65V14.9C18.4 14.21 17.84 13.66 17.16 13.66H14.92C14.52 14.2 14.06 14.69 13.54 15.13Z" fill="black"/>
<path d="M17.16 12.5C17.85 12.5 18.4 11.94 18.4 11.26V7.50001C18.4 6.81001 17.84 6.26001 17.16 6.26001H16.32C16.51 6.98001 16.63 7.73001 16.63 8.50001C16.63 9.94001 16.27 11.3 15.65 12.5H17.16Z" fill="black"/>
</svg>
