<svg width="24" height="16" viewBox="0 0 24 16" fill="none" xmlns="http://www.w3.org/2000/svg">
<path d="M20.43 0.809998H3.57998C2.06998 0.809998 0.849976 2.03 0.849976 3.54V12.45C0.849976 13.95 2.07998 15.18 3.57998 15.18H20.43C21.94 15.18 23.16 13.96 23.16 12.45V3.54C23.16 2.04 21.94 0.809998 20.43 0.809998ZM3.57998 2.51H20.43C21 2.51 21.46 2.97 21.46 3.54V3.87L13.13 8.5C12.43 8.89 11.57 8.89 10.87 8.5L2.54998 3.88V3.54C2.54998 2.98 3.00998 2.51 3.57998 2.51ZM20.43 13.49H3.57998C3.00998 13.49 2.54998 13.03 2.54998 12.46V5.82L10.88 10.45C11.58 10.84 12.44 10.84 13.14 10.45L21.47 5.82V12.45C21.46 13.03 21 13.49 20.43 13.49Z" fill="currentColor"/>
</svg>
