<svg width="26" height="24" viewBox="0 0 26 24" fill="none" xmlns="http://www.w3.org/2000/svg">
<path d="M25.36 10.34L14.42 0.769988C13.61 0.0599878 12.39 0.0599878 11.58 0.769988L7.4 4.41999V3.59999H3.29V8.01999L0.64 10.33C0.55 10.41 0.5 10.53 0.5 10.65V11.95C0.5 12.31 0.93 12.51 1.2 12.27L2.6 11.04V11.05V20.59C2.6 22.33 4.02 23.75 5.76 23.75H20.23C21.97 23.75 23.39 22.33 23.39 20.59V11.05V11.04L24.79 12.27C25.06 12.51 25.49 12.32 25.49 11.95V10.65C25.5 10.53 25.45 10.42 25.36 10.34ZM21.71 20.6C21.71 21.41 21.05 22.07 20.24 22.07H16.71V14.37C16.71 12.45 15.15 10.89 13.23 10.89H12.78C10.86 10.89 9.3 12.45 9.3 14.37V22.07H5.77C4.96 22.07 4.3 21.41 4.3 20.6V9.51999L13 1.89999L21.71 9.51999V20.6Z" fill="black"/>
</svg>
