<svg width="26" height="25" viewBox="0 0 26 25" fill="none" xmlns="http://www.w3.org/2000/svg">
<path d="M24.82 9.82003L14.99 1.68003C13.84 0.730029 12.18 0.730029 11.04 1.68003L1.20001 9.82003C0.810014 10.14 0.800014 10.74 1.19001 11.08L1.28001 11.16C1.58001 11.42 2.03001 11.42 2.34001 11.17L2.60001 10.95V12.06V20.97C2.60001 23.06 4.31001 24.76 6.39001 24.76H13.84C14.19 24.76 14.47 24.48 14.47 24.13V23.7C14.47 23.35 14.19 23.07 13.84 23.07H6.40001C5.24001 23.07 4.30001 22.12 4.30001 20.97V9.54003L12.68 2.60003C12.78 2.52003 12.89 2.48003 13.01 2.48003C13.13 2.48003 13.25 2.52003 13.34 2.60003L21.71 9.53003V21.6C21.71 22.41 21.05 23.07 20.24 23.07H17.96V15.15C17.96 13.26 16.43 11.73 14.54 11.73H11.64C9.75001 11.73 8.22001 13.26 8.22001 15.15V21.45C8.22001 21.79 8.49001 22.06 8.83001 22.06H9.31001C9.65001 22.06 9.92001 21.79 9.92001 21.45V15.15C9.92001 14.2 10.69 13.43 11.64 13.43H14.54C15.49 13.43 16.26 14.2 16.26 15.15V23.07V23.78C16.26 24.32 16.69 24.75 17.23 24.75H17.96H20.23C21.97 24.75 23.39 23.33 23.39 21.59V12.04V10.92L23.68 11.16C23.99 11.42 24.44 11.41 24.74 11.15L24.83 11.07C25.22 10.74 25.21 10.14 24.82 9.82003Z" fill="black"/>
</svg>
