<svg width="22" height="24" viewBox="0 0 22 24" fill="none" xmlns="http://www.w3.org/2000/svg">
<path d="M18.18 3.24002H17.2C16.89 1.87002 15.66 0.830017 14.19 0.830017H0.73999V17.67C0.73999 19.27 1.95999 20.57 3.50999 20.73C3.80999 22.12 5.04999 23.17 6.52999 23.17H18.18C19.88 23.17 21.27 21.78 21.27 20.08V6.33002C21.27 4.63002 19.88 3.24002 18.18 3.24002ZM2.43999 17.67V2.53002H14.2C14.72 2.53002 15.16 2.82002 15.4 3.24002H3.43999V19C2.85999 18.83 2.43999 18.3 2.43999 17.67ZM19.57 20.08C19.57 20.85 18.95 21.47 18.18 21.47H6.52999C5.75999 21.47 5.13999 20.85 5.13999 20.08V4.94002H18.18C18.95 4.94002 19.57 5.56002 19.57 6.33002V20.08Z" fill="black"/>
<path d="M17.45 7.73999H10.22C9.76996 7.73999 9.39996 8.11999 9.39996 8.58999C9.39996 9.05999 9.76996 9.43999 10.22 9.43999H17.45C17.9 9.43999 18.27 9.05999 18.27 8.58999C18.27 8.11999 17.9 7.73999 17.45 7.73999Z" fill="black"/>
<path d="M7.92997 7.73999H7.78997C7.33997 7.73999 6.96997 8.11999 6.96997 8.58999C6.96997 9.05999 7.33997 9.43999 7.78997 9.43999H7.92997C8.37997 9.43999 8.74997 9.05999 8.74997 8.58999C8.74997 8.11999 8.37997 7.73999 7.92997 7.73999Z" fill="black"/>
<path d="M17.45 12.53H10.22C9.76996 12.53 9.39996 12.91 9.39996 13.38C9.39996 13.85 9.76996 14.23 10.22 14.23H17.45C17.9 14.23 18.27 13.85 18.27 13.38C18.27 12.91 17.9 12.53 17.45 12.53Z" fill="black"/>
<path d="M7.92997 12.53H7.78997C7.33997 12.53 6.96997 12.91 6.96997 13.38C6.96997 13.85 7.33997 14.23 7.78997 14.23H7.92997C8.37997 14.23 8.74997 13.85 8.74997 13.38C8.74997 12.91 8.37997 12.53 7.92997 12.53Z" fill="black"/>
<path d="M17.45 17.32H10.22C9.76996 17.32 9.39996 17.7 9.39996 18.17C9.39996 18.64 9.76996 19.02 10.22 19.02H17.45C17.9 19.02 18.27 18.64 18.27 18.17C18.27 17.7 17.9 17.32 17.45 17.32Z" fill="black"/>
<path d="M7.92997 17.32H7.78997C7.33997 17.32 6.96997 17.7 6.96997 18.17C6.96997 18.64 7.33997 19.02 7.78997 19.02H7.92997C8.37997 19.02 8.74997 18.64 8.74997 18.17C8.74997 17.7 8.37997 17.32 7.92997 17.32Z" fill="black"/>
</svg>
