<svg width="22" height="21" viewBox="0 0 22 21" fill="none" xmlns="http://www.w3.org/2000/svg">
<path d="M3.41004 16.04C2.32004 16.04 1.42004 16.93 1.42004 18.03C1.42004 19.13 2.31004 20.02 3.41004 20.02C4.51004 20.02 5.40004 19.13 5.40004 18.03C5.40004 16.93 4.51004 16.04 3.41004 16.04ZM3.41004 18.57C3.11004 18.57 2.86004 18.32 2.86004 18.02C2.86004 17.72 3.11004 17.47 3.41004 17.47C3.71004 17.47 3.96004 17.72 3.96004 18.02C3.96004 18.32 3.71004 18.57 3.41004 18.57Z" fill="black"/>
<path d="M17.56 16.04C16.47 16.04 15.57 16.93 15.57 18.03C15.57 19.13 16.46 20.02 17.56 20.02C18.65 20.02 19.55 19.13 19.55 18.03C19.55 16.93 18.65 16.04 17.56 16.04ZM17.56 18.57C17.26 18.57 17.01 18.32 17.01 18.02C17.01 17.72 17.26 17.47 17.56 17.47C17.86 17.47 18.11 17.72 18.11 18.02C18.11 18.32 17.86 18.57 17.56 18.57Z" fill="black"/>
<path d="M7.05004 16.7L4.94004 17.1C4.58004 17.21 4.38004 17.6 4.50004 17.96C4.59004 18.25 4.86004 18.44 5.15004 18.44C5.22004 18.44 5.29004 18.43 5.36004 18.41L7.47004 18.02C7.91004 17.88 8.40004 17.81 8.88004 17.81H14.65C14.69 17.31 14.84 16.84 15.1 16.44H8.88004C8.25004 16.43 7.63004 16.52 7.05004 16.7Z" fill="black"/>
<path d="M21.2 -0.0100098H19.09C18.79 -0.0100098 18.53 0.17999 18.44 0.46999L17.37 3.82999L0.740015 5.38999C0.530015 5.40999 0.340015 5.52999 0.230015 5.69999C0.120015 5.87999 0.0900152 6.09999 0.170015 6.29999L1.28001 9.33999C1.29001 9.39999 1.31001 9.45999 1.35001 9.51999L2.18001 11.79C2.28001 12.06 2.53002 12.24 2.82002 12.24H4.03002L4.65002 13.55C4.76002 13.77 4.97002 13.92 5.21002 13.94L16.83 14.84C17.12 14.87 17.35 14.96 17.54 15.07C17.55 15.07 17.55 15.07 17.56 15.07C18.23 15.07 18.85 15.31 19.35 15.69C19.35 15.67 19.36 15.65 19.36 15.62C19.36 14.53 18.36 13.63 16.96 13.48L5.71002 12.62L5.54002 12.25H15.62C15.92 12.25 16.18 12.06 16.27 11.77L19.59 1.34999H21.2C21.58 1.34999 21.88 1.03999 21.88 0.66999C21.88 0.29999 21.58 -0.0100098 21.2 -0.0100098ZM15.78 8.81999C15.03 8.82999 14.25 8.83999 13.44 8.84999V7.66999C14.29 7.65999 15.18 7.64999 16.16 7.63999L15.78 8.81999ZM12.48 8.85999C11.57 8.86999 10.65 8.87999 9.75002 8.87999V7.70999C10.57 7.69999 11.48 7.68999 12.48 7.67999V8.85999ZM2.12001 7.66999C2.66001 7.69999 3.56002 7.71999 5.12002 7.72999V8.89999C4.03001 8.89999 3.14001 8.88999 2.56001 8.87999L2.12001 7.66999ZM6.07001 6.75999V6.25999L8.80002 5.99999V6.74999C7.84002 6.75999 6.92001 6.75999 6.07001 6.75999ZM8.80002 7.70999V8.87999C7.84002 8.88999 6.92001 8.88999 6.07001 8.88999V7.71999C6.85001 7.71999 7.74002 7.71999 8.80002 7.70999ZM6.07001 9.85999C6.84001 9.85999 7.75002 9.85999 8.80002 9.84999V10.89H6.07001V9.85999ZM9.75002 9.83999C10.57 9.82999 11.48 9.81999 12.48 9.80999V10.89H9.75002V9.83999ZM9.75002 6.74999V5.91999L12.48 5.65999V6.71999C11.57 6.72999 10.65 6.73999 9.75002 6.74999ZM5.12002 6.34999V6.75999C3.36002 6.75999 2.09001 6.73999 1.77002 6.69999L1.75002 6.66999L5.12002 6.34999ZM2.91001 9.81999C3.43001 9.83999 4.14002 9.84999 5.12002 9.84999V10.88H3.29001L2.91001 9.81999ZM13.43 10.89V9.79999C14.07 9.78999 14.75 9.77999 15.47 9.77999L15.12 10.89H13.43ZM16.43 6.77999C16.35 6.72999 16.26 6.68999 16.17 6.68999C15.32 6.69999 14.39 6.70999 13.44 6.71999V5.56999L16.92 5.23999L16.43 6.77999Z" fill="black"/>
</svg>
