<svg width="273" height="212" viewBox="0 0 273 212" fill="none" xmlns="http://www.w3.org/2000/svg">
<path d="M34.9107 210.748H26.1495L23.5623 202.274H11.7304L9.08441 210.748H0.323212L11.064 176.37C12.142 172.914 14.3372 171.189 17.6496 171.189C20.8901 171.189 23.0657 172.933 24.1829 176.416L34.9107 210.748ZM21.06 194.284L17.1008 181.603L14.1869 194.284H21.06Z" fill="#6FAE6F"/>
<path d="M58.8749 179.983H50.5123V210.741H42.1496V179.983H33.8392V171.509H58.8815V179.983H58.8749Z" fill="#6FAE6F"/>
<path d="M92.3909 210.748H83.6297L81.0425 202.274H69.2107L66.5647 210.748H57.8035L68.5443 176.37C69.6223 172.914 71.8175 171.189 75.1299 171.189C78.3704 171.189 80.546 172.933 81.6632 176.416L92.3909 210.748ZM78.5403 194.284L74.5811 181.603L71.6672 194.284H78.5403Z" fill="#6FAE6F"/>
<path d="M125.521 188.946C125.521 192.043 124.372 194.219 122.065 195.48C120.341 196.453 117.766 196.937 114.349 196.937C113.304 196.937 111.847 196.884 109.979 196.773C108.11 196.662 106.81 196.61 106.091 196.61V210.748H97.7287V171.516H117.159C119.602 171.516 121.608 172.202 123.176 173.567C124.744 174.933 125.521 176.84 125.521 179.29V188.946ZM117.159 185.83V182.021C117.159 180.662 116.44 179.983 115.003 179.983H106.098V187.973H114.245C115.323 187.973 116.042 187.868 116.401 187.653C116.904 187.365 117.159 186.758 117.159 185.83Z" fill="#6FAE6F"/>
<path d="M176.736 201.948C176.736 204.685 176.05 206.802 174.685 208.317C173.247 209.938 171.196 210.748 168.53 210.748H148.832V171.516H168.988C172.633 171.516 174.946 172.737 175.92 175.187C176.462 176.481 176.73 179.271 176.73 183.55C176.73 187.326 175.58 189.809 173.274 190.998C175.573 192.076 176.73 194.415 176.73 198.015V201.948H176.736ZM168.263 184.7V182.132C168.263 181.564 168.073 181.061 167.701 180.636C167.328 180.211 166.871 179.996 166.335 179.996H157.195V186.849H166.335C167.622 186.836 168.263 186.124 168.263 184.7ZM168.263 200.131V197.616C168.263 196.081 167.577 195.316 166.211 195.316H157.195V202.281H166.368C167.635 202.274 168.263 201.562 168.263 200.131Z" fill="#6FAE6F"/>
<path d="M211.657 200.922C211.657 207.468 208.763 210.741 202.968 210.741H192.227C186.432 210.741 183.537 207.488 183.537 200.974V171.509H191.9V199.517C191.9 200.38 191.992 200.994 192.168 201.353C192.455 201.967 193.318 202.268 194.755 202.268H200.42C201.537 202.268 202.288 202.104 202.687 201.784C203.085 201.457 203.281 200.758 203.281 199.68V171.509H211.644V200.922H211.657Z" fill="#6FAE6F"/>
<path d="M257.423 210.748H249.491V182.681L243.448 206.318C242.547 209.879 240.698 211.662 237.888 211.662C235.118 211.662 233.282 209.879 232.387 206.318L226.396 182.681V210.748H218.406V178.421C218.406 176.226 219.079 174.436 220.431 173.051C221.777 171.666 223.535 170.973 225.697 170.973C227.494 170.973 229.042 171.424 230.342 172.326C231.636 173.227 232.466 174.501 232.825 176.161L237.686 198.838L243.095 176.161C243.487 174.501 244.35 173.208 245.683 172.273C246.904 171.411 248.394 170.98 250.158 170.98C252.353 170.98 254.111 171.672 255.443 173.057C256.776 174.442 257.436 176.233 257.436 178.428V210.748H257.423Z" fill="#6FAE6F"/>
<path d="M272.587 210.748H264.224V171.516H272.587V210.748Z" fill="#6FAE6F"/>
<path d="M188.503 105.046L146.833 45.6261L141.803 38.4526L136.452 30.8218L131.101 38.4526L126.07 45.6261L84.4007 105.046L79.4484 112.109C80.938 114.565 82.6563 116.904 84.5901 119.125L89.0328 112.788L136.452 45.1688L183.871 112.788L188.313 119.125C190.247 116.911 191.965 114.565 193.455 112.109L188.503 105.046Z" fill="#6FAE6F"/>
<path d="M207.574 145.376H213.604L206.071 135.818H209.847L198.002 120.484L187 134.224L178.788 125.162L186.21 127.318L168.308 101.655L156.078 114.735L149.094 103.766L155.83 102.707L136.452 73.3142L117.074 102.707L123.81 103.766L116.826 114.735L104.595 101.655L86.6873 127.318L94.1157 125.162L84.8515 134.224L74.9012 120.484L63.0563 135.818H66.826L59.2996 145.376H65.3233L55.9284 157.299H216.975L207.574 145.376Z" fill="#6FAE6F"/>
<path d="M28.2728 156.829L136.452 7.53076L244.631 156.829H250.06L136.452 0.0371094L22.8436 156.829H28.2728Z" fill="#6FAE6F"/>
</svg>
