<svg width="648" height="157" viewBox="0 0 648 157" fill="none" xmlns="http://www.w3.org/2000/svg">
<path d="M283.28 117.55H269.87L265.91 104.58H247.8L243.75 117.55H230.34L246.78 64.9301C248.43 59.6401 251.79 57.0001 256.86 57.0001C261.82 57.0001 265.15 59.6701 266.86 65.0001L283.28 117.55ZM262.08 92.3601L256.02 72.9501L251.56 92.3601H262.08Z" fill="#6FAE6F"/>
<path d="M319.96 70.4701H307.16V117.55H294.36V70.4701H281.64V57.5001H319.97V70.4701H319.96Z" fill="#6FAE6F"/>
<path d="M371.26 117.55H357.85L353.89 104.58H335.78L331.73 117.55H318.32L334.76 64.9301C336.41 59.6401 339.77 57.0001 344.84 57.0001C349.8 57.0001 353.13 59.6701 354.84 65.0001L371.26 117.55ZM350.06 92.3601L344 72.9501L339.54 92.3601H350.06Z" fill="#6FAE6F"/>
<path d="M421.97 84.1801C421.97 88.9201 420.21 92.2501 416.68 94.1801C414.04 95.6701 410.1 96.4101 404.87 96.4101C403.27 96.4101 401.04 96.3301 398.18 96.1601C395.32 95.9901 393.33 95.9101 392.23 95.9101V117.55H379.43V57.5001H409.17C412.91 57.5001 415.98 58.5501 418.38 60.6401C420.78 62.7301 421.97 65.6501 421.97 69.4001V84.1801ZM409.17 79.4101V73.5801C409.17 71.5001 408.07 70.4601 405.87 70.4601H392.24V82.6901H404.71C406.36 82.6901 407.46 82.5301 408.01 82.2001C408.78 81.7601 409.17 80.8301 409.17 79.4101Z" fill="#6FAE6F"/>
<path d="M500.36 104.09C500.36 108.28 499.31 111.52 497.22 113.84C495.02 116.32 491.88 117.56 487.8 117.56H457.65V57.5001H488.5C494.08 57.5001 497.62 59.3701 499.11 63.1201C499.94 65.1001 500.35 69.3701 500.35 75.9201C500.35 81.7001 498.59 85.5001 495.06 87.3201C498.58 88.9701 500.35 92.5501 500.35 98.0601V104.09H500.36ZM487.4 77.6801V73.7501C487.4 72.8801 487.11 72.1101 486.54 71.4601C485.97 70.8101 485.27 70.4801 484.45 70.4801H470.46V80.9701H484.45C486.41 80.9601 487.4 79.8701 487.4 77.6801ZM487.4 101.3V97.4501C487.4 95.1001 486.35 93.9301 484.26 93.9301H470.46V104.59H484.5C486.43 104.58 487.4 103.49 487.4 101.3Z" fill="#6FAE6F"/>
<path d="M553.81 102.52C553.81 112.54 549.38 117.55 540.51 117.55H524.07C515.2 117.55 510.77 112.57 510.77 102.6V57.5001H523.57V100.37C523.57 101.69 523.71 102.63 523.98 103.18C524.42 104.12 525.74 104.58 527.94 104.58H536.61C538.32 104.58 539.47 104.33 540.08 103.84C540.69 103.34 540.99 102.27 540.99 100.62V57.5001H553.79V102.52H553.81Z" fill="#6FAE6F"/>
<path d="M623.86 117.55H611.72V74.6001L602.47 110.78C601.09 116.23 598.26 118.96 593.96 118.96C589.72 118.96 586.91 116.23 585.54 110.78L576.37 74.6001V117.56H564.14V68.0801C564.14 64.7201 565.17 61.9801 567.24 59.8601C569.3 57.7401 571.99 56.6801 575.3 56.6801C578.05 56.6801 580.42 57.3701 582.41 58.7501C584.39 60.1301 585.66 62.0801 586.21 64.6201L593.65 99.3301L601.93 64.6201C602.53 62.0801 603.85 60.1001 605.89 58.6701C607.76 57.3501 610.04 56.6901 612.74 56.6901C616.1 56.6901 618.79 57.7501 620.83 59.8701C622.87 61.9901 623.88 64.7301 623.88 68.0901V117.55H623.86Z" fill="#6FAE6F"/>
<path d="M647.07 117.55H634.27V57.5001H647.07V117.55Z" fill="#6FAE6F"/>
<path d="M165.02 104.93L123.51 45.7401L118.5 38.59L113.17 30.9901L107.84 38.59L102.83 45.7401L61.32 104.93L56.39 111.96C57.87 114.4 59.59 116.74 61.51 118.95L65.94 112.64L113.18 45.28L160.42 112.64L164.85 118.95C166.78 116.74 168.49 114.41 169.97 111.96L165.02 104.93Z" fill="#6FAE6F"/>
<path d="M184.02 145.11H190.03L182.52 135.59H186.28L174.49 120.31L163.52 134L155.34 124.97L162.74 127.12L144.9 101.55L132.72 114.58L125.76 103.66L132.47 102.6L113.17 73.3201L93.8599 102.6L100.57 103.66L93.6099 114.58L81.4299 101.55L63.59 127.12L70.9899 124.97L61.77 134L51.8499 120.31L40.0499 135.59H43.8099L36.3099 145.11H42.3099L32.95 156.98H193.38L184.02 145.11Z" fill="#6FAE6F"/>
<path d="M5.40002 156.52L113.17 7.78006L220.93 156.52H226.34L113.17 0.320068L-0.0100098 156.52H5.40002Z" fill="#6FAE6F"/>
</svg>
