<svg width="424" height="104" viewBox="0 0 424 104" fill="none" xmlns="http://www.w3.org/2000/svg">
<path d="M185.636 77.5009H176.875L174.288 69.0273H162.456L159.81 77.5009H151.049L161.79 43.1229C162.868 39.6668 165.063 37.942 168.375 37.942C171.616 37.942 173.791 39.6864 174.909 43.1686L185.636 77.5009ZM171.786 61.0436L167.826 48.3626L164.913 61.0436H171.786Z" fill="white"/>
<path d="M209.601 46.7423H201.238V77.5009H192.875V46.7423H184.565V38.2687H209.607V46.7423H209.601Z" fill="white"/>
<path d="M243.117 77.5009H234.355L231.768 69.0273H219.936L217.29 77.5009H208.529L219.27 43.1229C220.348 39.6668 222.543 37.942 225.855 37.942C229.096 37.942 231.272 39.6864 232.389 43.1686L243.117 77.5009ZM229.266 61.0436L225.307 48.3626L222.393 61.0436H229.266Z" fill="white"/>
<path d="M276.247 55.6994C276.247 58.7962 275.097 60.9718 272.791 62.2327C271.066 63.2061 268.492 63.6896 265.075 63.6896C264.03 63.6896 262.573 63.6373 260.704 63.5262C258.836 63.4152 257.536 63.3629 256.817 63.3629V77.5009H248.454V38.2687H267.884C270.328 38.2687 272.334 38.9547 273.902 40.3201C275.47 41.6856 276.247 43.5933 276.247 46.0433V55.6994ZM267.884 52.583V48.7742C267.884 47.4153 267.166 46.7358 265.728 46.7358H256.823V54.726H264.971C266.049 54.726 266.767 54.6214 267.127 54.4058C267.63 54.1184 267.884 53.5108 267.884 52.583Z" fill="white"/>
<path d="M327.462 68.7072C327.462 71.4446 326.776 73.5614 325.41 75.0771C323.973 76.6973 321.922 77.5074 319.256 77.5074H299.558V38.2687H319.713C323.359 38.2687 325.672 39.4904 326.645 41.9404C327.187 43.234 327.455 46.0236 327.455 50.3029C327.455 54.0792 326.306 56.5618 323.999 57.7509C326.299 58.8288 327.455 61.1678 327.455 64.7676V68.7072H327.462ZM318.995 51.4528V48.8852C318.995 48.3168 318.805 47.8138 318.433 47.3891C318.06 46.9645 317.603 46.7488 317.067 46.7488H307.927V53.6022H317.067C318.348 53.5957 318.995 52.8836 318.995 51.4528ZM318.995 66.8843V64.3691C318.995 62.8337 318.309 62.0693 316.943 62.0693H307.927V69.0338H317.1C318.361 69.0273 318.995 68.3151 318.995 66.8843Z" fill="white"/>
<path d="M362.383 67.6814C362.383 74.2278 359.488 77.5009 353.693 77.5009H342.952C337.157 77.5009 334.263 74.2473 334.263 67.7337V38.2687H342.626V66.2768C342.626 67.1392 342.717 67.7533 342.894 68.1126C343.181 68.7267 344.043 69.0273 345.481 69.0273H351.145C352.262 69.0273 353.014 68.864 353.412 68.5438C353.811 68.2172 354.007 67.5181 354.007 66.4401V38.2687H362.369V67.6814H362.383Z" fill="white"/>
<path d="M408.149 77.5009H400.217V49.4406L394.174 73.0779C393.272 76.6386 391.423 78.4221 388.614 78.4221C385.844 78.4221 384.008 76.6386 383.113 73.0779L377.122 49.4406V77.5075H369.131V45.1809C369.131 42.9857 369.804 41.1956 371.157 39.8105C372.503 38.4255 374.26 37.733 376.423 37.733C378.219 37.733 379.768 38.1838 381.068 39.0854C382.361 39.987 383.191 41.2609 383.551 42.9204L388.411 65.5973L393.821 42.9204C394.213 41.2609 395.075 39.9673 396.408 39.0331C397.63 38.1707 399.119 37.7395 400.883 37.7395C403.079 37.7395 404.836 38.432 406.169 39.8171C407.502 41.2021 408.162 42.9923 408.162 45.1874V77.5009H408.149Z" fill="white"/>
<path d="M423.312 77.5009H414.95V38.2687H423.312V77.5009Z" fill="white"/>
<path d="M108.373 69.256L81.2532 30.5856L77.98 25.9143L74.4977 20.949L71.0155 25.9143L67.7423 30.5856L40.6224 69.256L37.4015 73.8489C38.3684 75.443 39.4921 76.9718 40.7465 78.4156L43.6408 74.2931L74.5043 30.2851L105.368 74.2931L108.262 78.4156C109.523 76.9718 110.64 75.4495 111.607 73.8489L108.373 69.256Z" fill="white"/>
<path d="M120.786 95.5066H124.713L119.806 89.287H122.263L114.56 79.3042L107.393 88.2482L102.049 82.3486L106.883 83.7533L95.228 67.0478L87.2704 75.5606L82.7232 68.4263L87.107 67.7337L74.4977 48.6044L61.8819 67.7337L66.2657 68.4263L61.7185 75.5606L53.7609 67.0478L42.1055 83.7533L46.9401 82.3486L40.9164 88.2482L34.4353 79.3042L26.726 89.287H29.1825L24.2825 95.5066H28.2025L22.0873 103.262H126.902L120.786 95.5066Z" fill="white"/>
<path d="M4.08802 102.961L74.4977 5.78539L144.901 102.961H148.435L74.4977 0.91156L0.553467 102.961H4.08802Z" fill="white"/>
</svg>
