<svg width="273" height="212" viewBox="0 0 273 212" fill="none" xmlns="http://www.w3.org/2000/svg">
<path d="M34.9107 210.985H26.1495L23.5623 202.511H11.7304L9.08441 210.985H0.323212L11.064 176.607C12.142 173.151 14.3372 171.426 17.6496 171.426C20.8901 171.426 23.0657 173.17 24.1829 176.652L34.9107 210.985ZM21.06 194.521L17.1008 181.84L14.1869 194.521H21.06Z" fill="white"/>
<path d="M58.8749 180.219H50.5123V210.978H42.1496V180.219H33.8392V171.746H58.8815V180.219H58.8749Z" fill="white"/>
<path d="M92.3909 210.985H83.6297L81.0425 202.511H69.2107L66.5647 210.985H57.8035L68.5443 176.607C69.6223 173.151 71.8175 171.426 75.1299 171.426C78.3704 171.426 80.546 173.17 81.6632 176.652L92.3909 210.985ZM78.5403 194.521L74.5811 181.84L71.6672 194.521H78.5403Z" fill="white"/>
<path d="M125.521 189.183C125.521 192.28 124.372 194.455 122.065 195.716C120.341 196.69 117.766 197.173 114.349 197.173C113.304 197.173 111.847 197.121 109.979 197.01C108.11 196.899 106.81 196.847 106.091 196.847V210.985H97.7287V171.752H117.159C119.602 171.752 121.608 172.438 123.176 173.804C124.744 175.169 125.521 177.077 125.521 179.527V189.183ZM117.159 186.067V182.258C117.159 180.899 116.44 180.219 115.003 180.219H106.098V188.21H114.245C115.323 188.21 116.042 188.105 116.401 187.89C116.904 187.602 117.159 186.994 117.159 186.067Z" fill="white"/>
<path d="M176.736 202.184C176.736 204.922 176.05 207.039 174.685 208.554C173.247 210.174 171.196 210.985 168.53 210.985H148.832V171.752H168.988C172.633 171.752 174.946 172.974 175.92 175.424C176.462 176.718 176.73 179.507 176.73 183.787C176.73 187.563 175.58 190.046 173.274 191.235C175.573 192.313 176.73 194.651 176.73 198.251V202.184H176.736ZM168.263 184.937V182.369C168.263 181.801 168.073 181.297 167.701 180.873C167.328 180.448 166.871 180.233 166.335 180.233H157.195V187.086H166.335C167.622 187.073 168.263 186.361 168.263 184.937ZM168.263 200.368V197.853C168.263 196.317 167.577 195.553 166.211 195.553H157.195V202.518H166.368C167.635 202.511 168.263 201.799 168.263 200.368Z" fill="white"/>
<path d="M211.657 201.159C211.657 207.705 208.763 210.978 202.968 210.978H192.227C186.432 210.978 183.537 207.724 183.537 201.211V171.746H191.9V199.754C191.9 200.616 191.992 201.23 192.168 201.59C192.455 202.204 193.318 202.504 194.755 202.504H200.42C201.537 202.504 202.288 202.341 202.687 202.021C203.085 201.694 203.281 200.995 203.281 199.917V171.746H211.644V201.159H211.657Z" fill="white"/>
<path d="M257.423 210.985H249.491V182.918L243.448 206.555C242.547 210.116 240.698 211.899 237.888 211.899C235.118 211.899 233.282 210.116 232.387 206.555L226.396 182.918V210.985H218.406V178.658C218.406 176.463 219.079 174.673 220.431 173.288C221.777 171.903 223.535 171.21 225.697 171.21C227.494 171.21 229.042 171.661 230.342 172.563C231.636 173.464 232.466 174.738 232.825 176.398L237.686 199.074L243.095 176.398C243.487 174.738 244.35 173.445 245.683 172.51C246.904 171.648 248.394 171.217 250.158 171.217C252.353 171.217 254.111 171.909 255.443 173.294C256.776 174.679 257.436 176.469 257.436 178.665V210.985H257.423Z" fill="white"/>
<path d="M272.587 210.985H264.224V171.752H272.587V210.985Z" fill="white"/>
<path d="M188.503 105.283L146.833 45.863L141.803 38.6895L136.452 31.0587L131.101 38.6895L126.07 45.863L84.4007 105.283L79.4484 112.345C80.938 114.802 82.6563 117.141 84.5901 119.362L89.0328 113.025L136.452 45.4057L183.871 113.025L188.313 119.362C190.247 117.147 191.965 114.802 193.455 112.345L188.503 105.283Z" fill="white"/>
<path d="M207.574 145.613H213.604L206.071 136.055H209.847L198.002 120.721L187 134.461L178.788 125.399L186.21 127.555L168.308 101.892L156.078 114.972L149.094 104.003L155.83 102.944L136.452 73.551L117.074 102.944L123.81 104.003L116.826 114.972L104.595 101.892L86.6873 127.555L94.1157 125.399L84.8515 134.461L74.9012 120.721L63.0563 136.055H66.826L59.2996 145.613H65.3233L55.9284 157.536H216.975L207.574 145.613Z" fill="white"/>
<path d="M28.2728 157.066L136.452 7.76758L244.631 157.066H250.06L136.452 0.273926L22.8436 157.066H28.2728Z" fill="white"/>
</svg>
