<svg width="69" height="68" viewBox="0 0 69 68" fill="none" xmlns="http://www.w3.org/2000/svg">
<path d="M66.1 67.67H1.96003C0.890029 67.67 0.0300293 66.81 0.0300293 65.74C0.0300293 64.67 0.890029 63.81 1.96003 63.81H66.1C67.17 63.81 68.03 64.67 68.03 65.74C68.03 66.81 67.16 67.67 66.1 67.67Z" fill="#A2D7A2"/>
<path d="M9.55 65.88C7.37 65.02 6.42 62.22 7.44 59.64L15.16 40.14C16.18 37.57 18.79 36.17 20.97 37.04C23.15 37.9 24.1 40.7 23.08 43.28L15.36 62.78C14.34 65.35 11.74 66.74 9.55 65.88ZM20.1 39.25C18.95 38.79 17.58 39.53 17.04 40.88L9.32 60.38C8.78 61.74 9.28 63.21 10.43 63.66C11.58 64.12 12.95 63.38 13.49 62.03L21.21 42.53C21.75 41.18 21.25 39.71 20.1 39.25Z" fill="#254B54"/>
<path d="M44.0098 31.6468C47.9274 21.7576 43.0157 10.5369 33.0392 6.58475C23.0627 2.63256 11.7993 7.44548 7.88167 17.3347C3.96406 27.2239 8.87577 38.4446 18.8523 42.3968C28.8288 46.349 40.0922 41.5361 44.0098 31.6468Z" fill="#254B54"/>
<path d="M42.5678 30.6953C46.1437 21.6687 41.6584 11.4259 32.5496 7.8175C23.4408 4.20907 13.1579 8.60137 9.58201 17.628C6.00613 26.6546 10.4914 36.8973 19.6002 40.5057C28.7089 44.1142 38.9919 39.7219 42.5678 30.6953Z" fill="#17393F"/>
<path d="M31.08 11.53C39.31 14.79 43.62 23.68 41.28 31.94C41.54 31.44 41.78 30.92 41.99 30.38C45.44 21.68 41.12 11.81 32.34 8.33998C23.56 4.86998 13.67 9.09998 10.22 17.8C10.01 18.34 9.82004 18.88 9.67004 19.43C13.62 11.8 22.85 8.26998 31.08 11.53Z" fill="#3B6A79"/>
<path d="M56.03 61.85C54.96 52.85 47.3 45.67 37.71 45.26C27.54 44.82 18.88 52.15 17.76 61.85H56.03Z" fill="#A03607"/>
<path d="M46.7 49.82L58.58 45.15L63.05 46.8L52.0499 54.98" fill="#A03607"/>
<path d="M36.8999 38.93C43.2599 38.93 46.1899 41.43 46.8999 47.89C47.3599 48.16 47.7999 48.44 48.2299 48.74C47.6599 40.84 44.3299 37.68 36.8999 37.68C29.3999 37.68 26.0899 40.9 25.5599 48.96C25.9899 48.65 26.4299 48.35 26.8899 48.08C27.5499 41.48 30.4799 38.93 36.8999 38.93Z" fill="#17393F"/>
<path d="M37.0799 38.28C42.5299 38.28 45.7299 40.04 47.2499 44.21C45.7899 39.79 42.5699 37.92 36.9599 37.92C29.5799 37.92 26.3199 41.14 25.7999 49.2C25.8499 49.16 25.9099 49.13 25.9599 49.09C26.5799 41.39 29.8499 38.28 37.0799 38.28Z" fill="#254B54"/>
<path d="M41.9499 40.56C38.5999 40.05 35.1899 40.05 31.8399 40.56C31.2599 40.65 30.7999 40.24 30.7999 39.63C30.7999 39.34 30.7999 39.05 30.7999 38.77C30.7999 38.16 31.2699 37.58 31.8399 37.49C35.1899 36.98 38.5999 36.98 41.9499 37.49C42.5299 37.58 42.9899 38.16 42.9899 38.77C42.9899 39.06 42.9899 39.35 42.9899 39.63C42.9899 40.25 42.5299 40.65 41.9499 40.56Z" fill="#A03607"/>
<path d="M41.6299 37.68C38.4499 37.19 35.2199 37.19 32.0299 37.68C31.5399 37.76 31.1399 38.21 31.0599 38.73C31.2299 38.39 31.5399 38.13 31.8999 38.08C35.0799 37.59 38.3099 37.59 41.4999 38.08C42.0499 38.16 42.4899 38.73 42.4899 39.32C42.4899 39.6 42.4899 39.88 42.4899 40.16C42.4899 40.21 42.4799 40.25 42.4799 40.29C42.5699 40.14 42.6299 39.97 42.6299 39.76C42.6299 39.48 42.6299 39.2 42.6299 38.92C42.6199 38.34 42.1699 37.77 41.6299 37.68Z" fill="#FF6000"/>
<path d="M49.38 49.3C49.4 49.3 50.76 48.8 50.83 48.78C51.91 48.4 58.51 45.52 58.51 45.52L62.21 46.74C62.21 46.74 59.14 46.34 56.5 47.14" fill="#FF6000"/>
<path d="M36.57 45.88C37.1554 45.88 37.63 45.4054 37.63 44.82C37.63 44.2346 37.1554 43.76 36.57 43.76C35.9846 43.76 35.51 44.2346 35.51 44.82C35.51 45.4054 35.9846 45.88 36.57 45.88Z" fill="#A03607"/>
<path d="M28.29 47.78H39.41L38.46 47.48H29.66" fill="#FF6000"/>
<path d="M38.7499 46.32C40.5499 46.4 42.2699 46.71 43.8999 47.23H44.3399C42.3199 46.42 40.1299 45.92 37.8199 45.82C34.8999 45.69 32.1099 46.22 29.5699 47.23H31.8699C34.0299 46.55 36.3499 46.22 38.7499 46.32Z" fill="#FF6000"/>
<path d="M28.81 47.47C23.33 49.95 19.34 55.07 18.63 61.23H24.8C23.87 57.21 24.88 49.67 30.79 47.47H28.81Z" fill="#FF6000"/>
<path d="M55.65 65.55H18.14C17.16 65.55 16.36 64.75 16.36 63.77V63.46C16.36 62.48 17.16 61.68 18.14 61.68H55.65C56.63 61.68 57.43 62.48 57.43 63.46V63.77C57.43 64.75 56.63 65.55 55.65 65.55Z" fill="#17393F"/>
<path d="M55.14 62.17H18.03C17.63 62.17 17.27 62.31 16.98 62.53H55.35C55.93 62.53 56.44 62.82 56.76 63.26C56.49 62.62 55.87 62.17 55.14 62.17Z" fill="#254B54"/>
</svg>
