<svg width="24" height="22" viewBox="0 0 24 22" fill="none" xmlns="http://www.w3.org/2000/svg">
<path d="M13.35 21.31C13.23 21.31 13.1 21.29 12.98 21.25C12.47 21.09 12.12 20.65 12.09 20.12L11.89 16.68H4.27003C2.38003 16.68 0.840027 15.14 0.840027 13.25V4.10999C0.840027 2.21999 2.38003 0.679993 4.27003 0.679993H19.74C21.63 0.679993 23.17 2.21999 23.17 4.10999V13.25C23.17 15.14 21.63 16.68 19.74 16.68H17.49L14.35 20.81C14.11 21.14 13.74 21.31 13.35 21.31ZM4.27003 2.38999C3.32003 2.38999 2.54003 3.16999 2.54003 4.11999V13.26C2.54003 14.21 3.31003 14.99 4.27003 14.99H13.51L13.73 18.84L16.66 14.99H19.75C20.7 14.99 21.48 14.21 21.48 13.26V4.10999C21.48 3.15999 20.71 2.37999 19.75 2.37999H4.27003V2.38999Z" fill="black"/>
<path d="M5.26003 6.67002H18.74C19.25 6.67002 19.66 6.26002 19.66 5.75002C19.66 5.24002 19.25 4.83002 18.74 4.83002H5.26003C4.75003 4.83002 4.34003 5.24002 4.34003 5.75002C4.34003 6.26002 4.75003 6.67002 5.26003 6.67002Z" fill="black"/>
<path d="M5.26003 9.59H11.55C12.06 9.59 12.47 9.18 12.47 8.67C12.47 8.16 12.06 7.75 11.55 7.75H5.26003C4.75003 7.75 4.34003 8.16 4.34003 8.67C4.34003 9.18 4.75003 9.59 5.26003 9.59Z" fill="black"/>
<path d="M18.75 7.75H14.56C14.05 7.75 13.64 8.16 13.64 8.67C13.64 9.18 14.05 9.59 14.56 9.59H18.75C19.26 9.59 19.67 9.18 19.67 8.67C19.66 8.16 19.25 7.75 18.75 7.75Z" fill="black"/>
<path d="M13.56 10.67H5.26003C4.75003 10.67 4.34003 11.08 4.34003 11.59C4.34003 12.1 4.75003 12.51 5.26003 12.51H13.56C14.07 12.51 14.48 12.1 14.48 11.59C14.48 11.08 14.07 10.67 13.56 10.67Z" fill="black"/>
</svg>
