<svg width="69" height="61" viewBox="0 0 69 61" fill="none" xmlns="http://www.w3.org/2000/svg">
<path d="M66.1 60.67H1.96003C0.890029 60.67 0.0300293 59.81 0.0300293 58.74C0.0300293 57.67 0.890029 56.81 1.96003 56.81H66.1C67.17 56.81 68.03 57.67 68.03 58.74C68.03 59.81 67.16 60.67 66.1 60.67Z" fill="#A2D7A2"/>
<path d="M48.6501 8.38999C48.6501 13.74 39.5901 22.03 34.3901 22.03C29.1901 22.03 20.1301 13.74 20.1301 8.38999C20.1301 3.03999 23.9501 0.48999 34.3901 0.48999C44.8301 0.48999 48.6501 3.03999 48.6501 8.38999Z" fill="#007F43"/>
<path d="M44.9201 57.72C37.8601 57.51 30.8001 57.51 23.7501 57.72C22.8901 57.75 22.1401 57.02 22.0801 56.09C22.0401 55.49 21.9901 54.9 21.9501 54.3C21.8801 53.38 22.5501 52.6 23.4301 52.57C30.7001 52.35 37.9701 52.35 45.2401 52.57C46.1301 52.6 46.7901 53.37 46.7201 54.3C46.6801 54.9 46.6301 55.49 46.5901 56.09C46.5201 57.02 45.7701 57.74 44.9201 57.72Z" fill="#007F43"/>
<path d="M45.0201 57.1C37.9001 56.89 30.7701 56.89 23.6401 57.1C22.8101 57.12 22.0901 56.37 22.0201 55.4C22.0301 55.61 22.0501 55.81 22.0601 56.02C22.1301 56.98 22.8501 57.74 23.6801 57.72C30.7801 57.51 37.8801 57.51 44.9801 57.72C45.8001 57.74 46.5301 56.99 46.6001 56.02C46.6101 55.81 46.6301 55.61 46.6401 55.4C46.5701 56.36 45.8401 57.12 45.0201 57.1Z" fill="#007F43"/>
<path d="M23.6301 56.52C23.8101 56.51 23.9801 56.51 24.1601 56.5C24.1201 55.78 24.0701 55.06 24.0301 54.33C23.8501 54.34 23.6701 54.34 23.4901 54.35C23.5401 55.08 23.5801 55.8 23.6301 56.52Z" fill="#007F43"/>
<path d="M27.1302 56.4299C27.3102 56.4299 27.4802 56.4199 27.6602 56.4199C27.6302 55.6999 27.6002 54.9799 27.5802 54.2499C27.4002 54.2499 27.2202 54.2599 27.0402 54.2599C27.0702 54.9899 27.1002 55.7099 27.1302 56.4299Z" fill="#007F43"/>
<path d="M30.6301 56.38C30.8101 56.38 30.9801 56.3799 31.1601 56.3699C31.1501 55.6499 31.1301 54.92 31.1201 54.2C30.9401 54.2 30.7601 54.1999 30.5801 54.2099C30.6001 54.9299 30.6201 55.66 30.6301 56.38Z" fill="#007F43"/>
<path d="M37.6401 56.3699C37.8201 56.3699 37.9901 56.37 38.1701 56.38C38.1901 55.66 38.2001 54.9299 38.2201 54.2099C38.0401 54.2099 37.8601 54.21 37.6801 54.2C37.6701 54.93 37.6601 55.6499 37.6401 56.3699Z" fill="#007F43"/>
<path d="M41.1501 56.4199C41.3301 56.4199 41.5001 56.4299 41.6801 56.4299C41.7101 55.7099 41.7401 54.9899 41.7701 54.2599C41.5901 54.2599 41.4101 54.2499 41.2301 54.2499C41.2101 54.9799 41.1801 55.6999 41.1501 56.4199Z" fill="#007F43"/>
<path d="M44.7801 54.34C44.7401 55.06 44.6901 55.78 44.6501 56.51C44.8301 56.52 45.0001 56.52 45.1801 56.53C45.2301 55.81 45.2701 55.09 45.3201 54.36C45.1401 54.35 44.9601 54.35 44.7801 54.34Z" fill="#007F43"/>
<path d="M34.1401 56.36C34.3201 56.36 34.4901 56.36 34.6701 56.36C34.6701 55.45 34.6701 54.55 34.6801 53.64C34.5001 53.64 34.3201 53.64 34.1401 53.64C34.1401 54.55 34.1401 55.45 34.1401 56.36Z" fill="#007F43"/>
<path d="M35.09 17.89C35.1 15.07 35.11 12.25 35.12 9.41998C33.17 9.41998 31.23 9.42998 29.28 9.44998C25.86 10.38 22.48 11.35 19.14 12.36C18.47 12.55 17.85 12.84 17.29 13.19C17.94 14.64 18.79 16.97 19.19 19.76C23.93 19.59 28.67 19.51 33.41 19.5C34.33 19.5 35.08 18.78 35.09 17.89Z" fill="#00B34C"/>
<path d="M19.4201 22.99C19.4201 24.74 19.2101 26.58 18.6801 28.43C23.5701 28.25 28.4601 28.15 33.3501 28.14C34.2801 28.14 35.0401 27.38 35.0501 26.45C35.0601 24.67 35.0601 22.89 35.0701 21.11C35.0701 20.22 34.3301 19.5 33.4001 19.51C28.6601 19.52 23.9201 19.61 19.1801 19.77C19.3301 20.79 19.4201 21.87 19.4201 22.99Z" fill="#00B34C"/>
<path d="M21.92 45.61C25.77 45.48 29.61 45.42 33.46 45.41C34.3 45.41 34.99 44.66 34.99 43.74C35 41.97 35 40.21 35.01 38.44C35.01 37.52 34.3 36.77 33.42 36.77C29.43 36.78 25.44 36.85 21.45 36.98C20.24 37.02 19.35 38.07 19.45 39.33C19.56 40.73 19.67 42.13 19.78 43.53C19.88 44.72 20.83 45.64 21.92 45.61Z" fill="#00B34C"/>
<path d="M19.1801 19.76C18.7801 16.97 17.9301 14.64 17.2801 13.19C16.6601 13.57 16.1101 14.04 15.6501 14.58C15.1501 15.18 14.6501 15.77 14.1601 16.37C13.9001 16.69 13.8701 17.12 14.0801 17.49C15.1601 19.39 16.9101 21.75 19.4201 22.98C19.4201 21.87 19.3301 20.79 19.1801 19.76Z" fill="#00B34C"/>
<path d="M23.6801 55.04C26.4401 54.96 29.2101 54.91 31.9701 54.89C33.6101 54.88 34.9501 53.34 34.9601 51.44C34.9701 49.98 34.9701 48.53 34.9801 47.07C34.9801 46.15 34.3001 45.4 33.4601 45.4C29.6101 45.41 25.7701 45.48 21.9201 45.6C20.8301 45.64 20.0301 46.63 20.1201 47.82C20.2201 49.11 20.3201 50.41 20.4301 51.7C20.5801 53.6 22.0401 55.08 23.6801 55.04Z" fill="#00B34C"/>
<path d="M18.6901 28.43C19.2101 26.58 19.4301 24.74 19.4301 22.99C17.0701 21.84 15.3901 19.69 14.3001 17.86C14.0301 17.41 13.3801 17.34 13.0601 17.74C12.0301 19 11.0301 20.27 10.0401 21.54C9.78008 21.87 9.74008 22.31 9.93008 22.7C11.0001 24.84 13.2001 28.37 16.6601 29.63C17.0601 29.78 17.5001 29.69 17.8001 29.4C18.0701 29.14 18.3401 28.88 18.6101 28.62C18.6101 28.64 18.6101 28.66 18.6201 28.69C18.6401 28.6 18.6601 28.51 18.6901 28.43Z" fill="#00B34C"/>
<path d="M9.10014 22.74C8.06014 24.1 7.04014 25.46 6.05014 26.83C5.73014 27.27 5.70014 27.86 5.98014 28.37C7.14014 30.43 9.16014 33.25 12.0601 34.43C12.3801 34.56 12.7401 34.47 12.9701 34.23C14.2001 32.96 15.4601 31.69 16.7401 30.43C17.0101 30.17 16.8901 29.7 16.5301 29.56C13.2301 28.29 11.1101 24.97 10.0201 22.84C9.83014 22.5 9.33014 22.44 9.10014 22.74Z" fill="#00B34C"/>
<path d="M18.7201 30.07C18.8401 31.64 18.9701 33.21 19.0901 34.79C19.1901 36.04 20.2501 37.02 21.4501 36.99C25.4401 36.86 29.4301 36.79 33.4201 36.78C34.3001 36.78 35.0201 36.03 35.0201 35.11C35.0301 33.35 35.0301 31.59 35.0401 29.83C35.0401 28.9 34.2901 28.14 33.3601 28.14C28.4701 28.15 23.5801 28.25 18.6901 28.43C18.6601 28.47 18.6401 28.49 18.6001 28.53C18.6401 29.04 18.6801 29.55 18.7201 30.07Z" fill="#00B34C"/>
<path d="M34.1401 9.42999C34.1401 11.9 34.1401 14.36 34.1501 16.83C34.1501 17.72 33.4001 18.43 32.4701 18.44C27.9801 18.46 23.5001 18.55 19.0101 18.71C19.0801 19.06 19.1401 19.41 19.1901 19.77C23.9301 19.6 28.6701 19.52 33.4101 19.51C34.3301 19.51 35.0901 18.79 35.0901 17.9C35.1001 15.08 35.1101 12.26 35.1201 9.42999C34.7901 9.42999 34.4701 9.42999 34.1401 9.42999Z" fill="#007F43"/>
<path d="M34.0901 19.64C34.1201 19.77 34.1501 19.9 34.1501 20.04C34.1501 21.82 34.1501 23.6 34.1501 25.38C34.1501 26.31 33.3901 27.07 32.4501 27.07C27.9501 27.09 23.4401 27.18 18.9401 27.35C18.8601 27.71 18.7801 28.07 18.6801 28.43C23.5701 28.25 28.4601 28.15 33.3501 28.14C34.2801 28.14 35.0401 27.38 35.0501 26.45C35.0601 24.67 35.0601 22.89 35.0701 21.11C35.0801 20.45 34.6701 19.89 34.0901 19.64Z" fill="#007F43"/>
<path d="M34.1001 36.93C34.1401 37.07 34.1601 37.22 34.1601 37.37C34.1601 39.14 34.1601 40.9 34.1601 42.67C34.1601 43.59 33.4701 44.34 32.6301 44.34C28.7601 44.36 24.8901 44.43 21.0201 44.57C20.6501 44.58 20.2901 44.48 19.9801 44.29C20.3301 45.08 21.0801 45.63 21.9201 45.6C25.7701 45.47 29.6101 45.41 33.4601 45.4C34.3001 45.4 34.9901 44.65 34.9901 43.73C35.0001 41.96 35.0001 40.2 35.0101 38.43C35.0101 37.77 34.6401 37.2 34.1001 36.93Z" fill="#007F43"/>
<path d="M34.1101 45.57C34.1501 45.71 34.1701 45.86 34.1701 46.01C34.1701 47.47 34.1701 48.92 34.1701 50.38C34.1701 52.28 32.8201 53.82 31.1701 53.83C28.3901 53.85 25.6101 53.91 22.8301 54C22.1301 54.02 21.4701 53.76 20.9301 53.32C21.5201 54.37 22.5501 55.08 23.6801 55.04C26.4401 54.96 29.2101 54.91 31.9701 54.89C33.6101 54.88 34.9501 53.34 34.9601 51.44C34.9701 49.98 34.9701 48.53 34.9801 47.07C34.9801 46.41 34.6201 45.83 34.1101 45.57Z" fill="#007F43"/>
<path d="M34.0801 28.3C34.1201 28.45 34.1501 28.6 34.1501 28.76C34.1501 30.52 34.1501 32.28 34.1501 34.04C34.1501 34.96 33.4301 35.71 32.5401 35.71C28.5301 35.73 24.5201 35.81 20.5101 35.95C20.0801 35.96 19.6701 35.85 19.3201 35.64C19.7101 36.46 20.5301 37.02 21.4501 36.99C25.4401 36.86 29.4301 36.79 33.4201 36.78C34.3001 36.78 35.0201 36.03 35.0201 35.11C35.0301 33.35 35.0301 31.59 35.0401 29.83C35.0401 29.15 34.6501 28.57 34.0801 28.3Z" fill="#007F43"/>
<path d="M4.91009 40.76C6.14009 42.98 7.34009 45.21 8.51009 47.45C8.79009 47.99 9.33009 48.33 9.88009 48.29C11.4001 48.18 13.7901 47.61 15.1801 46.6C15.4501 46.4 15.5501 46.01 15.4401 45.65C14.8501 43.72 14.2501 41.8 13.6401 39.87C13.4801 39.35 12.9201 39.09 12.4601 39.31C10.4301 40.27 7.34009 40.32 5.42009 39.95C4.97009 39.86 4.67009 40.34 4.91009 40.76Z" fill="#00B34C"/>
<path d="M6.23002 28.8C5.89002 28.23 5.09002 28.15 4.73002 28.66C4.34002 29.21 3.95002 29.77 3.56002 30.32C2.31002 32.03 2.23002 34.37 3.27002 36.38C3.73002 37.18 3.44002 38.14 3.89002 38.94C4.16002 39.42 4.62002 39.77 5.13002 39.88C7.18002 40.31 10.51 40.32 12.69 39.18C13.05 38.99 13.22 38.57 13.08 38.15C12.75 37.14 12.43 36.13 12.09 35.12C12.25 34.95 12.41 34.79 12.57 34.62C9.60002 33.66 7.50002 30.94 6.23002 28.8Z" fill="#00B34C"/>
<path d="M19.1801 19.76C18.7801 16.97 17.9301 14.64 17.2801 13.19C16.6601 13.57 16.1101 14.04 15.6501 14.58C15.1501 15.18 14.6501 15.77 14.1601 16.37C13.9001 16.69 13.8701 17.12 14.0801 17.49C15.1601 19.39 16.9101 21.75 19.4201 22.98C19.4201 21.87 19.3301 20.79 19.1801 19.76Z" fill="#00B34C"/>
<path d="M18.6901 28.43C19.2101 26.58 19.4301 24.74 19.4301 22.99C17.0701 21.84 15.3901 19.69 14.3001 17.86C14.0301 17.41 13.3801 17.34 13.0601 17.74C12.0301 19 11.0301 20.27 10.0401 21.54C9.78008 21.87 9.74008 22.31 9.93008 22.7C11.0001 24.84 13.2001 28.37 16.6601 29.63C17.0601 29.78 17.5001 29.69 17.8001 29.4C18.0701 29.14 18.3401 28.88 18.6101 28.62C18.6101 28.64 18.6101 28.66 18.6201 28.69C18.6401 28.6 18.6601 28.51 18.6901 28.43Z" fill="#00B34C"/>
<path d="M9.48005 49.33C10.61 51.52 11.36 52.92 12.42 55.13C15.98 55.63 17.41 53.15 17.41 53.15C17.41 53.15 16.68 49.76 15.97 47.41C15.8 46.85 15.2 46.6 14.75 46.88C13.48 47.67 11.31 48.17 9.96005 48.28C9.49005 48.32 9.24005 48.86 9.48005 49.33Z" fill="#007F43"/>
<path d="M9.10014 22.74C8.06014 24.1 7.04014 25.46 6.05014 26.83C5.73014 27.27 5.70014 27.86 5.98014 28.37C7.14014 30.43 9.16014 33.25 12.0601 34.43C12.3801 34.56 12.7401 34.47 12.9701 34.23C14.2001 32.96 15.4601 31.69 16.7401 30.43C17.0101 30.17 16.8901 29.7 16.5301 29.56C13.2301 28.29 11.1101 24.97 10.0201 22.84C9.83014 22.5 9.33014 22.44 9.10014 22.74Z" fill="#00B34C"/>
<path d="M4.91009 40.76C6.14009 42.98 7.34009 45.21 8.51009 47.45C8.79009 47.99 9.33009 48.33 9.88009 48.29C11.4001 48.18 13.7901 47.61 15.1801 46.6C15.4501 46.4 15.5501 46.01 15.4401 45.65C14.8501 43.72 14.2501 41.8 13.6401 39.87C13.4801 39.35 12.9201 39.09 12.4601 39.31C10.4301 40.27 7.34009 40.32 5.42009 39.95C4.97009 39.86 4.67009 40.34 4.91009 40.76Z" fill="#00B34C"/>
<path d="M6.23008 28.8C5.89008 28.23 5.09008 28.15 4.73008 28.66C4.34008 29.21 3.95008 29.77 3.56008 30.32C2.80008 31.36 2.45008 32.6 2.45008 33.89C2.44008 35.71 3.03008 37.4 3.90008 38.94C4.17008 39.42 4.63008 39.77 5.14008 39.88C7.19008 40.31 10.5201 40.32 12.7001 39.18C13.0601 38.99 13.2301 38.57 13.0901 38.15C12.7601 37.14 12.4401 36.13 12.1001 35.12C12.2601 34.95 12.4201 34.79 12.5801 34.62C9.60008 33.66 7.50008 30.94 6.23008 28.8Z" fill="#00B34C"/>
<path d="M19.1801 19.76C18.7801 16.97 17.9301 14.64 17.2801 13.19C16.9301 13.41 16.6101 13.65 16.3101 13.92C16.8201 15.28 17.3301 17 17.6301 18.95C17.7801 19.93 17.8701 20.96 17.8801 22.03C18.3601 22.39 18.8601 22.72 19.4101 22.99C19.4201 21.87 19.3301 20.79 19.1801 19.76Z" fill="#007F43"/>
<path d="M14.2901 17.86C14.0401 17.43 13.4401 17.36 13.1001 17.69C14.2101 19.36 15.7801 21.17 17.8901 22.18C17.9001 23.93 17.7001 25.77 17.1901 27.62C17.1701 27.7 17.1401 27.79 17.1201 27.87C17.1201 27.85 17.1201 27.83 17.1101 27.8C16.8401 28.06 16.5701 28.32 16.3001 28.58C16.0001 28.87 15.5601 28.96 15.1501 28.81C15.0301 28.77 14.9101 28.71 14.8001 28.67C15.3701 29.05 15.9801 29.37 16.6401 29.61C17.0401 29.76 17.4801 29.67 17.7801 29.38C18.0501 29.12 18.3201 28.86 18.5901 28.6C18.5901 28.62 18.5901 28.64 18.6001 28.67C18.6201 28.59 18.6501 28.5 18.6701 28.42C19.1901 26.57 19.4101 24.73 19.4101 22.98C17.0701 21.84 15.3801 19.69 14.2901 17.86Z" fill="#007F43"/>
<path d="M14.8201 28.68C12.4801 27.12 10.9001 24.59 10.0201 22.85C9.84006 22.5 9.34006 22.44 9.11006 22.74C9.05006 22.81 9.00006 22.89 8.94006 22.96C10.1101 24.98 12.0501 27.54 14.8201 28.68Z" fill="#007F43"/>
<path d="M16.5201 29.57C16.0801 29.4 15.6701 29.2 15.2801 28.97C15.4301 29.17 15.4401 29.45 15.2501 29.64C13.9701 30.91 12.7201 32.18 11.4901 33.45C11.2701 33.68 10.9401 33.76 10.6201 33.66C11.0701 33.95 11.5501 34.23 12.0601 34.43C12.3801 34.56 12.7401 34.47 12.9701 34.23C14.2001 32.96 15.4601 31.69 16.7401 30.43C17.0001 30.17 16.8901 29.71 16.5201 29.57Z" fill="#007F43"/>
<path d="M15.44 45.64C14.85 43.71 14.25 41.79 13.64 39.86C13.48 39.34 12.92 39.08 12.46 39.3C12.41 39.33 12.35 39.34 12.3 39.37C12.62 40.35 12.94 41.34 13.25 42.33C13.53 43.22 13.67 43.95 13.5 44.89C13.45 45.15 13.4 45.4 13.28 45.63C12.86 46.47 11.93 46.77 11.09 47.02C10.26 47.26 9.40004 47.44 8.54004 47.51C8.83004 48.02 9.35004 48.33 9.87004 48.29C11.39 48.18 13.78 47.61 15.17 46.6C15.45 46.39 15.55 46 15.44 45.64Z" fill="#007F43"/>
<path d="M10.4901 33.59C8.60007 32.32 7.18007 30.4 6.23007 28.81C5.95007 28.34 5.35007 28.21 4.95007 28.47C6.16007 30.36 8.00007 32.55 10.4901 33.59Z" fill="#007F43"/>
<path d="M13.0901 38.16C12.7601 37.15 12.4401 36.14 12.1001 35.13C12.2601 34.96 12.4201 34.8 12.5801 34.63C12.0301 34.45 11.5201 34.2 11.0301 33.92C10.8901 34.06 10.7601 34.21 10.6201 34.35C10.9401 35.29 10.8901 35.86 10.7001 36.84C10.4801 38.01 9.84006 39.18 8.61006 39.28C7.09006 39.4 5.57006 39.49 4.06006 39.21C4.33006 39.56 4.71006 39.81 5.12006 39.9C7.17006 40.33 10.5001 40.34 12.6801 39.2C13.0501 39 13.2301 38.57 13.0901 38.16Z" fill="#007F43"/>
<path d="M33.57 17.89C33.56 15.07 33.55 12.25 33.54 9.41998C35.49 9.41998 37.43 9.42998 39.38 9.44998C42.8 10.38 46.18 11.35 49.52 12.36C50.19 12.55 50.81 12.84 51.37 13.19C50.72 14.64 49.87 16.97 49.47 19.76C44.73 19.59 39.99 19.51 35.25 19.5C34.33 19.5 33.58 18.78 33.57 17.89Z" fill="#00B34C"/>
<path d="M49.2301 22.99C49.2301 24.74 49.4401 26.58 49.9701 28.43C45.0801 28.25 40.1901 28.15 35.3001 28.14C34.3701 28.14 33.6101 27.38 33.6001 26.45C33.5901 24.67 33.5901 22.89 33.5801 21.11C33.5801 20.22 34.3201 19.5 35.2501 19.51C39.9901 19.52 44.7301 19.61 49.4701 19.77C49.3201 20.79 49.2301 21.87 49.2301 22.99Z" fill="#00B34C"/>
<path d="M46.74 45.61C42.89 45.48 39.05 45.42 35.2 45.41C34.36 45.41 33.67 44.66 33.67 43.74C33.66 41.97 33.66 40.21 33.65 38.44C33.65 37.52 34.36 36.77 35.24 36.77C39.23 36.78 43.22 36.85 47.21 36.98C48.42 37.02 49.31 38.07 49.21 39.33C49.1 40.73 48.99 42.13 48.88 43.53C48.78 44.72 47.82 45.64 46.74 45.61Z" fill="#00B34C"/>
<path d="M49.47 19.76C49.87 16.97 50.72 14.64 51.37 13.19C51.99 13.57 52.54 14.04 53 14.58C53.5 15.18 54 15.77 54.49 16.37C54.75 16.69 54.78 17.12 54.57 17.49C53.49 19.39 51.74 21.75 49.23 22.98C49.23 21.87 49.32 20.79 49.47 19.76Z" fill="#00B34C"/>
<path d="M44.9801 55.04C42.2201 54.96 39.4501 54.91 36.6901 54.89C35.0501 54.88 33.7101 53.34 33.7001 51.44C33.6901 49.98 33.6901 48.53 33.6801 47.07C33.6801 46.15 34.3601 45.4 35.2001 45.4C39.0501 45.41 42.8901 45.48 46.7401 45.6C47.8301 45.64 48.6301 46.63 48.5401 47.82C48.4401 49.11 48.3401 50.41 48.2301 51.7C48.0701 53.6 46.6201 55.08 44.9801 55.04Z" fill="#00B34C"/>
<path d="M49.97 28.43C49.45 26.58 49.23 24.74 49.23 22.99C51.59 21.84 53.27 19.69 54.36 17.86C54.63 17.41 55.28 17.34 55.6 17.74C56.63 19 57.63 20.27 58.62 21.54C58.88 21.87 58.92 22.31 58.73 22.7C57.66 24.84 55.46 28.37 52 29.63C51.6 29.78 51.16 29.69 50.86 29.4C50.59 29.14 50.32 28.88 50.05 28.62C50.05 28.64 50.05 28.66 50.04 28.69C50.02 28.6 49.99 28.51 49.97 28.43Z" fill="#00B34C"/>
<path d="M59.5501 22.74C60.5901 24.1 61.6101 25.46 62.6001 26.83C62.9201 27.27 62.9501 27.86 62.6701 28.37C61.5101 30.43 59.4901 33.25 56.5901 34.43C56.2701 34.56 55.9101 34.47 55.6801 34.23C54.4501 32.96 53.1901 31.69 51.9101 30.43C51.6401 30.17 51.7601 29.7 52.1201 29.56C55.4201 28.29 57.5401 24.97 58.6301 22.84C58.8201 22.5 59.3201 22.44 59.5501 22.74Z" fill="#00B34C"/>
<path d="M49.93 30.07C49.81 31.64 49.68 33.21 49.56 34.79C49.46 36.04 48.4 37.02 47.2 36.99C43.21 36.86 39.22 36.79 35.23 36.78C34.35 36.78 33.63 36.03 33.63 35.11C33.62 33.35 33.62 31.59 33.61 29.83C33.61 28.9 34.36 28.14 35.29 28.14C40.18 28.15 45.07 28.25 49.96 28.43C49.99 28.47 50.01 28.49 50.05 28.53C50.01 29.04 49.97 29.55 49.93 30.07Z" fill="#00B34C"/>
<path d="M34.52 9.42999C34.52 11.9 34.52 14.36 34.51 16.83C34.51 17.72 35.26 18.43 36.19 18.44C40.68 18.46 45.16 18.55 49.65 18.71C49.58 19.06 49.52 19.41 49.47 19.77C44.73 19.6 39.99 19.52 35.25 19.51C34.33 19.51 33.57 18.79 33.57 17.9C33.56 15.08 33.55 12.26 33.54 9.42999C33.87 9.42999 34.19 9.42999 34.52 9.42999Z" fill="#007F43"/>
<path d="M34.57 19.64C34.54 19.77 34.51 19.9 34.51 20.04C34.51 21.82 34.51 23.6 34.51 25.38C34.51 26.31 35.27 27.07 36.21 27.07C40.71 27.09 45.22 27.18 49.72 27.35C49.8 27.71 49.88 28.07 49.98 28.43C45.09 28.25 40.2 28.15 35.31 28.14C34.38 28.14 33.62 27.38 33.61 26.45C33.6 24.67 33.6 22.89 33.59 21.11C33.58 20.45 33.98 19.89 34.57 19.64Z" fill="#007F43"/>
<path d="M34.5601 36.93C34.5201 37.07 34.5001 37.22 34.5001 37.37C34.5001 39.14 34.5001 40.9 34.5001 42.67C34.5001 43.59 35.1901 44.34 36.0301 44.34C39.9001 44.36 43.7701 44.43 47.6401 44.57C48.0101 44.58 48.3701 44.48 48.6801 44.29C48.3301 45.08 47.5801 45.63 46.7401 45.6C42.8901 45.47 39.0501 45.41 35.2001 45.4C34.3601 45.4 33.6701 44.65 33.6701 43.73C33.6601 41.96 33.6601 40.2 33.6501 38.43C33.6401 37.77 34.0201 37.2 34.5601 36.93Z" fill="#007F43"/>
<path d="M34.5501 45.57C34.5101 45.71 34.4901 45.86 34.4901 46.01C34.4901 47.47 34.4901 48.92 34.4901 50.38C34.4901 52.28 35.8401 53.82 37.4901 53.83C40.2701 53.85 43.0501 53.91 45.8301 54C46.5301 54.02 47.1901 53.76 47.7301 53.32C47.1401 54.37 46.1101 55.08 44.9801 55.04C42.2201 54.96 39.4501 54.91 36.6901 54.89C35.0501 54.88 33.7101 53.34 33.7001 51.44C33.6901 49.98 33.6901 48.53 33.6801 47.07C33.6801 46.41 34.0301 45.83 34.5501 45.57Z" fill="#007F43"/>
<path d="M34.57 28.3C34.53 28.45 34.5 28.6 34.5 28.76C34.5 30.52 34.5 32.28 34.5 34.04C34.5 34.96 35.22 35.71 36.11 35.71C40.12 35.73 44.13 35.81 48.14 35.95C48.57 35.96 48.98 35.85 49.33 35.64C48.94 36.46 48.12 37.02 47.2 36.99C43.21 36.86 39.22 36.79 35.23 36.78C34.35 36.78 33.63 36.03 33.63 35.11C33.62 33.35 33.62 31.59 33.61 29.83C33.61 29.15 34 28.57 34.57 28.3Z" fill="#007F43"/>
<path d="M63.75 40.76C62.52 42.98 61.32 45.21 60.15 47.45C59.87 47.99 59.33 48.33 58.78 48.29C57.26 48.18 54.87 47.61 53.48 46.6C53.21 46.4 53.11 46.01 53.22 45.65C53.81 43.72 54.41 41.8 55.02 39.87C55.18 39.35 55.74 39.09 56.2 39.31C58.23 40.27 61.32 40.32 63.24 39.95C63.68 39.86 63.98 40.34 63.75 40.76Z" fill="#00B34C"/>
<path d="M62.43 28.8C62.77 28.23 63.57 28.15 63.93 28.66C64.32 29.21 64.71 29.77 65.1 30.32C66.35 32.03 66.43 34.37 65.39 36.38C64.93 37.18 65.22 38.14 64.77 38.94C64.5 39.42 64.04 39.77 63.53 39.88C61.48 40.31 58.15 40.32 55.97 39.18C55.61 38.99 55.44 38.57 55.58 38.15C55.91 37.14 56.23 36.13 56.57 35.12C56.41 34.95 56.25 34.79 56.09 34.62C59.05 33.66 61.16 30.94 62.43 28.8Z" fill="#00B34C"/>
<path d="M49.47 19.76C49.87 16.97 50.72 14.64 51.37 13.19C51.99 13.57 52.54 14.04 53 14.58C53.5 15.18 54 15.77 54.49 16.37C54.75 16.69 54.78 17.12 54.57 17.49C53.49 19.39 51.74 21.75 49.23 22.98C49.23 21.87 49.32 20.79 49.47 19.76Z" fill="#00B34C"/>
<path d="M49.97 28.43C49.45 26.58 49.23 24.74 49.23 22.99C51.59 21.84 53.27 19.69 54.36 17.86C54.63 17.41 55.28 17.34 55.6 17.74C56.63 19 57.63 20.27 58.62 21.54C58.88 21.87 58.92 22.31 58.73 22.7C57.66 24.84 55.46 28.37 52 29.63C51.6 29.78 51.16 29.69 50.86 29.4C50.59 29.14 50.32 28.88 50.05 28.62C50.05 28.64 50.05 28.66 50.04 28.69C50.02 28.6 49.99 28.51 49.97 28.43Z" fill="#00B34C"/>
<path d="M59.17 49.33C58.04 51.52 57.29 52.92 56.23 55.13C52.67 55.63 51.24 53.15 51.24 53.15C51.24 53.15 51.97 49.76 52.68 47.41C52.85 46.85 53.45 46.6 53.9 46.88C55.17 47.67 57.34 48.17 58.69 48.28C59.17 48.32 59.42 48.86 59.17 49.33Z" fill="#007F43"/>
<path d="M59.5501 22.74C60.5901 24.1 61.6101 25.46 62.6001 26.83C62.9201 27.27 62.9501 27.86 62.6701 28.37C61.5101 30.43 59.4901 33.25 56.5901 34.43C56.2701 34.56 55.9101 34.47 55.6801 34.23C54.4501 32.96 53.1901 31.69 51.9101 30.43C51.6401 30.17 51.7601 29.7 52.1201 29.56C55.4201 28.29 57.5401 24.97 58.6301 22.84C58.8201 22.5 59.3201 22.44 59.5501 22.74Z" fill="#00B34C"/>
<path d="M63.75 40.76C62.52 42.98 61.32 45.21 60.15 47.45C59.87 47.99 59.33 48.33 58.78 48.29C57.26 48.18 54.87 47.61 53.48 46.6C53.21 46.4 53.11 46.01 53.22 45.65C53.81 43.72 54.41 41.8 55.02 39.87C55.18 39.35 55.74 39.09 56.2 39.31C58.23 40.27 61.32 40.32 63.24 39.95C63.68 39.86 63.98 40.34 63.75 40.76Z" fill="#00B34C"/>
<path d="M62.43 28.8C62.77 28.23 63.57 28.15 63.93 28.66C64.32 29.21 64.71 29.77 65.1 30.32C65.86 31.36 66.21 32.6 66.21 33.89C66.22 35.71 65.63 37.4 64.76 38.94C64.49 39.42 64.03 39.77 63.52 39.88C61.47 40.31 58.14 40.32 55.96 39.18C55.6 38.99 55.43 38.57 55.57 38.15C55.9 37.14 56.22 36.13 56.56 35.12C56.4 34.95 56.24 34.79 56.08 34.62C59.05 33.66 61.16 30.94 62.43 28.8Z" fill="#00B34C"/>
<path d="M49.47 19.76C49.87 16.97 50.72 14.64 51.37 13.19C51.72 13.41 52.04 13.65 52.34 13.92C51.83 15.28 51.32 17 51.02 18.95C50.87 19.93 50.78 20.96 50.77 22.03C50.29 22.39 49.79 22.72 49.24 22.99C49.23 21.87 49.32 20.79 49.47 19.76Z" fill="#007F43"/>
<path d="M54.36 17.86C54.61 17.43 55.21 17.36 55.55 17.69C54.44 19.36 52.87 21.17 50.76 22.18C50.75 23.93 50.95 25.77 51.46 27.62C51.48 27.7 51.51 27.79 51.53 27.87C51.53 27.85 51.53 27.83 51.54 27.8C51.81 28.06 52.08 28.32 52.35 28.58C52.65 28.87 53.09 28.96 53.5 28.81C53.62 28.77 53.74 28.71 53.85 28.67C53.28 29.05 52.67 29.37 52.01 29.61C51.61 29.76 51.17 29.67 50.87 29.38C50.6 29.12 50.33 28.86 50.06 28.6C50.06 28.62 50.06 28.64 50.05 28.67C50.03 28.59 50 28.5 49.98 28.42C49.46 26.57 49.24 24.73 49.24 22.98C51.59 21.84 53.27 19.69 54.36 17.86Z" fill="#007F43"/>
<path d="M53.8401 28.68C56.1801 27.12 57.7601 24.59 58.6401 22.85C58.8201 22.5 59.3201 22.44 59.5501 22.74C59.6101 22.81 59.6601 22.89 59.7201 22.96C58.5501 24.98 56.6101 27.54 53.8401 28.68Z" fill="#007F43"/>
<path d="M52.1401 29.57C52.5801 29.4 52.9901 29.2 53.3801 28.97C53.2301 29.17 53.2201 29.45 53.4101 29.64C54.6901 30.91 55.9401 32.18 57.1701 33.45C57.3901 33.68 57.7201 33.76 58.0401 33.66C57.5901 33.95 57.1101 34.23 56.6001 34.43C56.2801 34.56 55.9201 34.47 55.6901 34.23C54.4601 32.96 53.2001 31.69 51.9201 30.43C51.6501 30.17 51.7701 29.71 52.1401 29.57Z" fill="#007F43"/>
<path d="M53.22 45.64C53.81 43.71 54.41 41.79 55.02 39.86C55.18 39.34 55.74 39.08 56.2 39.3C56.25 39.33 56.31 39.34 56.36 39.37C56.04 40.35 55.72 41.34 55.41 42.33C55.13 43.22 54.99 43.95 55.16 44.89C55.21 45.15 55.26 45.4 55.38 45.63C55.8 46.47 56.73 46.77 57.57 47.02C58.4 47.26 59.26 47.44 60.12 47.51C59.83 48.02 59.31 48.33 58.79 48.29C57.27 48.18 54.88 47.61 53.49 46.6C53.21 46.39 53.11 46 53.22 45.64Z" fill="#007F43"/>
<path d="M58.17 33.59C60.06 32.32 61.48 30.4 62.43 28.81C62.71 28.34 63.31 28.21 63.71 28.47C62.5 30.36 60.66 32.55 58.17 33.59Z" fill="#007F43"/>
<path d="M55.5601 38.16C55.8901 37.15 56.21 36.14 56.55 35.13C56.39 34.96 56.23 34.8 56.07 34.63C56.62 34.45 57.13 34.2 57.62 33.92C57.76 34.06 57.89 34.21 58.03 34.35C57.71 35.29 57.76 35.86 57.95 36.84C58.17 38.01 58.81 39.18 60.04 39.28C61.56 39.4 63.08 39.49 64.59 39.21C64.32 39.56 63.94 39.81 63.53 39.9C61.48 40.33 58.1501 40.34 55.9701 39.2C55.6001 39 55.4301 38.57 55.5601 38.16Z" fill="#007F43"/>
<path d="M42.0601 11.55C42.0601 11.56 40.7701 14.77 34.2501 14.75C27.7201 14.77 26.6101 11.56 26.6101 11.55C26.5601 10.14 26.5101 8.72998 26.4601 7.32998C26.4301 6.51998 27.1401 5.84998 28.0401 5.83998C32.2401 5.77998 36.4501 5.77998 40.6501 5.83998C41.5501 5.84998 42.2601 6.51998 42.2301 7.32998C42.1601 8.72998 42.1101 10.14 42.0601 11.55Z" fill="#007F43"/>
<path d="M42.1001 10.47C42.1001 10.48 40.8001 13.69 34.2501 13.67C27.6901 13.69 26.5701 10.48 26.5701 10.47C26.5201 9.05997 26.4701 7.64997 26.4201 6.24997C26.3901 5.43997 27.1001 4.76997 28.0001 4.75997C32.2201 4.69997 36.4501 4.69997 40.6701 4.75997C41.5701 4.76997 42.2801 5.43997 42.2501 6.24997C42.2001 7.65997 42.1501 9.05997 42.1001 10.47Z" fill="#00B34C"/>
<path d="M40.8702 4.97997C40.8502 5.50997 37.9302 5.89997 34.3402 5.89997C30.7502 5.89997 27.8302 5.50997 27.8102 4.97997C27.7902 4.44997 30.7302 4.67997 34.3402 4.67997C37.9502 4.67997 40.8802 4.44997 40.8702 4.97997Z" fill="#007F43"/>
<path d="M35.8601 5.76994C35.0601 6.03994 34.2701 6.30994 33.4801 6.57994C33.4901 8.70994 33.5001 10.8499 33.5001 12.9799C33.8201 13.1099 34.1301 13.2399 34.4501 13.3699C34.4501 11.2399 34.4501 9.10994 34.4501 6.97994C35.8001 6.43994 37.1501 5.90994 38.5201 5.37994" fill="#007F43"/>
<path d="M35.8802 53.99C34.8502 53.99 33.8102 53.99 32.7802 53.99C32.6602 40.66 32.5402 27.32 32.4202 13.99C33.6902 13.98 34.9602 13.98 36.2302 13.99C36.1202 27.33 36.0002 40.66 35.8802 53.99Z" fill="#007F43"/>
<path d="M34.3301 52.81C34.0201 52.81 33.7601 52.54 33.7601 52.22C33.7201 40.07 33.6801 27.93 33.6401 15.78C33.6401 15.45 33.9501 15.18 34.3301 15.18C34.7101 15.18 35.0201 15.45 35.0201 15.78C34.9801 27.93 34.9401 40.07 34.9001 52.22C34.9001 52.54 34.6401 52.81 34.3301 52.81Z" fill="#00B34C"/>
<path d="M23.08 50.1C22.68 50.13 22.27 49.81 22.16 49.38C21.42 46.48 20.68 43.59 19.94 40.69C19.83 40.26 20.14 39.88 20.63 39.85C21.12 39.81 21.59 40.13 21.69 40.56C22.34 43.46 22.99 46.36 23.64 49.27C23.72 49.7 23.47 50.07 23.08 50.1Z" fill="#007F43"/>
<path d="M22.5401 48.65C22.4401 48.66 22.3501 48.58 22.3201 48.48C21.7501 46.16 21.1701 43.84 20.6001 41.52C20.5801 41.42 20.6501 41.33 20.7601 41.32C20.8701 41.31 20.9801 41.39 21.0001 41.49C21.5601 43.81 22.1101 46.13 22.6701 48.45C22.6901 48.55 22.6301 48.64 22.5401 48.65Z" fill="#00B34C"/>
<path d="M44.9801 50.1C45.3801 50.13 45.7901 49.81 45.9001 49.38C46.6401 46.48 47.3801 43.59 48.1201 40.69C48.2301 40.26 47.9201 39.88 47.4301 39.85C46.9401 39.81 46.4701 40.13 46.3701 40.56C45.7201 43.46 45.0701 46.36 44.4201 49.27C44.3301 49.7 44.5801 50.07 44.9801 50.1Z" fill="#007F43"/>
<path d="M45.5201 48.65C45.6201 48.66 45.7101 48.58 45.7401 48.48C46.3101 46.16 46.8901 43.84 47.4601 41.52C47.4801 41.42 47.4201 41.33 47.3001 41.32C47.1901 41.31 47.0801 41.39 47.0601 41.49C46.5001 43.81 45.9501 46.13 45.3901 48.45C45.3701 48.55 45.4201 48.64 45.5201 48.65Z" fill="#00B34C"/>
<path d="M24.0101 7.06002C23.7701 3.79002 25.0801 2.34002 27.8801 1.27002C22.6601 2.32002 20.4601 4.55002 20.7801 9.02002C20.9101 10.82 25.9101 14.53 32.8401 14.8C29.0501 11.94 24.1101 8.44002 24.0101 7.06002Z" fill="#007F43"/>
<path d="M23.8101 6.98001C23.5701 4.05001 25.5001 2.03001 28.3001 1.07001C23.0801 2.01001 20.9001 4.44001 21.2301 8.45001C21.3601 10.07 27.3201 13.68 31.9701 14.57C28.1701 12 23.9101 8.22001 23.8101 6.98001Z" fill="#00B34C"/>
<path d="M27.2601 12.78C27.6467 12.78 27.9601 12.4755 27.9601 12.1C27.9601 11.7244 27.6467 11.42 27.2601 11.42C26.8735 11.42 26.5601 11.7244 26.5601 12.1C26.5601 12.4755 26.8735 12.78 27.2601 12.78Z" fill="#007F43"/>
<path d="M27.2501 31.9C27.1001 31.9 26.9901 31.78 26.9901 31.64V12.12C26.9901 11.97 27.1101 11.86 27.2501 11.86C27.4001 11.86 27.5101 11.98 27.5101 12.12V31.63C27.5201 31.78 27.4001 31.9 27.2501 31.9Z" fill="white"/>
<path d="M44.7701 7.06002C45.0001 3.79002 43.7001 2.34002 40.9001 1.27002C46.1201 2.32002 48.3201 4.55002 48.0001 9.02002C47.8701 10.82 42.8701 14.53 35.9401 14.8C39.7301 11.94 44.6701 8.44002 44.7701 7.06002Z" fill="#007F43"/>
<path d="M44.9701 6.98001C45.2101 4.05001 43.2801 2.03001 40.4801 1.07001C45.7001 2.01001 47.8801 4.44001 47.5501 8.45001C47.4201 10.07 41.4601 13.68 36.8101 14.57C40.6101 12 44.8701 8.22001 44.9701 6.98001Z" fill="#00B34C"/>
<path d="M41.5101 12.78C41.8967 12.78 42.2101 12.4755 42.2101 12.1C42.2101 11.7244 41.8967 11.42 41.5101 11.42C41.1235 11.42 40.8101 11.7244 40.8101 12.1C40.8101 12.4755 41.1235 12.78 41.5101 12.78Z" fill="#007F43"/>
<path d="M41.52 31.9C41.67 31.9 41.78 31.78 41.78 31.64V12.12C41.78 11.97 41.66 11.86 41.52 11.86C41.37 11.86 41.26 11.98 41.26 12.12V31.63C41.26 31.78 41.38 31.9 41.52 31.9Z" fill="white"/>
</svg>
