<svg width="24" height="24" viewBox="0 0 24 24" fill="none" xmlns="http://www.w3.org/2000/svg">
<path d="M19.6 11.6H5.80005V7.29999C5.80005 4.59999 8.00005 2.49999 10.6 2.49999H13.2C15.9 2.49999 18 4.69999 18 7.29999V8.19999C18 8.69999 18.4 9.09999 18.8 9.09999C19.2 9.09999 19.6 8.69999 19.6 8.19999V7.29999C19.6 3.69999 16.7 0.799988 13.1 0.799988H10.5C7.00005 0.799988 4.10005 3.69999 4.10005 7.29999V11.6C2.30005 11.7 0.800049 13.2 0.800049 15V20.2C0.800049 22.1 2.40005 23.7 4.30005 23.7H19.7001C21.6001 23.7 23.2001 22.1 23.2001 20.2V15C23.1001 13.2 21.6 11.6 19.6 11.6ZM21.4 20.3C21.4 21.3 20.6 22.1 19.6 22.1H4.30005C3.30005 22.1 2.50005 21.3 2.50005 20.3V15.1C2.50005 14.1 3.30005 13.3 4.30005 13.3H19.7001C20.7001 13.3 21.5 14.1 21.5 15.1V20.3H21.4Z" fill="black"/>
</svg>
