<svg width="23" height="22" viewBox="0 0 23 22" fill="none" xmlns="http://www.w3.org/2000/svg">
<path d="M20.45 10.71H17.33C17.26 8.80001 15.69 7.26001 13.76 7.26001H9.03999V3.80001C9.03999 2.72001 9.91999 1.84001 11 1.84001H11.33C12.41 1.84001 13.29 2.72001 13.29 3.80001V5.52001C13.29 5.99001 13.67 6.37001 14.14 6.37001C14.61 6.37001 14.99 5.99001 14.99 5.52001V3.80001C14.99 1.78001 13.35 0.140015 11.33 0.140015H11C8.97999 0.140015 7.33999 1.78001 7.33999 3.80001V7.32001C5.67999 7.59001 4.40999 8.99001 4.33999 10.71H1.87999C0.83999 10.71 -0.0100098 11.56 -0.0100098 12.59V16.29C-0.0100098 17.33 0.83999 18.17 1.87999 18.17H4.33999V18.27C4.33999 20.24 5.94999 21.85 7.91999 21.85H13.77C15.74 21.85 17.35 20.25 17.35 18.27V18.17H20.46C21.5 18.17 22.34 17.32 22.34 16.29V12.59C22.34 11.56 21.49 10.71 20.45 10.71ZM20.64 16.3C20.64 16.4 20.56 16.49 20.46 16.49H1.87999C1.77999 16.49 1.68999 16.41 1.68999 16.3V12.6C1.68999 12.5 1.76999 12.41 1.87999 12.41H20.46C20.56 12.41 20.64 12.49 20.64 12.6V16.3Z" fill="black"/>
<path d="M4.59 13.07C3.92 13.07 3.38 13.61 3.38 14.28C3.38 14.95 3.92 15.49 4.59 15.49C5.26 15.49 5.8 14.95 5.8 14.28C5.8 13.61 5.25001 13.07 4.59 13.07Z" fill="black"/>
<path d="M9.05998 13.07C8.38998 13.07 7.84998 13.61 7.84998 14.28C7.84998 14.95 8.38998 15.49 9.05998 15.49C9.72998 15.49 10.27 14.95 10.27 14.28C10.27 13.61 9.71998 13.07 9.05998 13.07Z" fill="black"/>
<path d="M13.53 13.07C12.86 13.07 12.32 13.61 12.32 14.28C12.32 14.95 12.86 15.49 13.53 15.49C14.2 15.49 14.74 14.95 14.74 14.28C14.74 13.61 14.2 13.07 13.53 13.07Z" fill="black"/>
<path d="M18 13.07C17.33 13.07 16.79 13.61 16.79 14.28C16.79 14.95 17.33 15.49 18 15.49C18.67 15.49 19.21 14.95 19.21 14.28C19.21 13.61 18.67 13.07 18 13.07Z" fill="black"/>
</svg>
