<svg width="70" height="70" viewBox="0 0 70 70" fill="none" xmlns="http://www.w3.org/2000/svg">
<path d="M67.1 67.7H2.99998C1.89998 67.7 1.09998 66.8 1.09998 65.8C1.09998 64.7 1.99998 63.9 2.99998 63.9H67.1C68.2 63.9 69 64.8 69 65.8C69 66.8 68.2 67.7 67.1 67.7Z" fill="#A2D7A2"/>
<path d="M32.8 65H19.9L8.90002 17.6L32.9 14.9L32.8 65Z" fill="#17393F"/>
<path d="M60.4001 65H22.1L14.3 4.5H52.7001L60.4001 65Z" fill="#007F43"/>
<path d="M60.4001 6.90002H22.1001V65.1H60.4001V6.90002Z" fill="#00B34C"/>
<path d="M39.7001 56V51C36.2001 50.8 32.8 49.9 30.8 48.8L32.4001 42.7C34.6001 43.9 37.7 45 41.1 45C44.1 45 46.1 43.9 46.1 41.8C46.1 39.8 44.4 38.6 40.6 37.3C35 35.4 31.2001 32.8 31.2001 27.7C31.2001 23.1 34.4 19.5 40 18.4V13.4H45.1V18C48.6 18.2 51.0001 18.9 52.7001 19.7L51.2001 25.6C49.8001 25 47.4001 23.8 43.7001 23.8C40.3001 23.8 39.2001 25.3 39.2001 26.7C39.2001 28.4 41 29.5 45.5 31.2C51.7 33.4 54.2001 36.3 54.2001 41C54.2001 45.6 50.9001 49.6 44.9001 50.7V56H39.7001Z" fill="#007F43"/>
<path d="M38.1001 54.2V49.2C34.6001 49 31.2001 48.1 29.2001 47L30.8001 40.9C33.0001 42.1 36.1001 43.2 39.5001 43.2C42.5001 43.2 44.5001 42.1 44.5001 40C44.5001 38 42.8001 36.8 39.0001 35.5C33.4001 33.6 29.6001 31 29.6001 25.9C29.6001 21.3 32.8001 17.7 38.4001 16.6V11.6H43.5001V16.2C47.0001 16.4 49.4001 17.1 51.1001 17.9L49.6001 23.8C48.2001 23.2 45.8001 22 42.1001 22C38.7001 22 37.6001 23.5 37.6001 24.9C37.6001 26.6 39.4001 27.7 43.9001 29.4C50.1001 31.6 52.6001 34.5 52.6001 39.2C52.6001 43.8 49.3001 47.8 43.3001 48.9V54.2H38.1001Z" fill="white"/>
<path d="M22.5 64.6C29.7902 64.6 35.7001 58.6902 35.7001 51.4C35.7001 44.1099 29.7902 38.2 22.5 38.2C15.2099 38.2 9.30005 44.1099 9.30005 51.4C9.30005 58.6902 15.2099 64.6 22.5 64.6Z" fill="white"/>
<path d="M22.5 65.6C14.7 65.6 8.30005 59.2 8.30005 51.4C8.30005 43.6 14.7 37.2 22.5 37.2C30.3 37.2 36.7001 43.6 36.7001 51.4C36.6001 59.2 30.3 65.6 22.5 65.6ZM22.5 39.2C15.8 39.2 10.3 44.7 10.3 51.4C10.3 58.1 15.8 63.6 22.5 63.6C29.2 63.6 34.7001 58.1 34.7001 51.4C34.7001 44.7 29.2 39.2 22.5 39.2Z" fill="#FF6000"/>
<path d="M14.5 50.8L12.9 54.2L21.7 59.5L31.6 45.6L29.8 43.6L21.2 55L14.5 50.8Z" fill="#FF6000"/>
</svg>
