<svg width="63" height="60" viewBox="0 0 63 60" fill="none" xmlns="http://www.w3.org/2000/svg">
<path d="M33 0.200012C10.9 0.600012 1.29995 19.4 4.19995 35.7H4.49995L0.199951 36.3L7.59995 45.3L12.2 34.7L8.29995 35C5.69995 21 13.9 4.70001 33 4.40001C43.1 4.60001 50.1 9.20001 54.2 15.6L59.9 17.7C55.9 8.00001 46.9 0.500012 33 0.200012Z" fill="#FF6000"/>
<path d="M31.2999 50.1L32.6999 46.3C30.0999 45.2 27.6999 43.5 26.4999 42.1L29.3999 37.8C30.7999 39.3 32.7999 41 35.3999 42C37.6999 42.8 39.5999 42.5001 40.1999 40.9001C40.7999 39.4001 39.7999 37.9 37.1999 35.8C33.3999 32.8 31.1999 29.7 32.6999 25.8C33.9999 22.3 37.4999 20.4 42.0999 21.1L43.4999 17.3L47.3999 18.7001L46.0999 22.2001C48.6999 23.3001 50.3999 24.5001 51.3999 25.7001L48.5999 29.8C47.6999 29 46.1999 27.4 43.2999 26.3C40.6999 25.3 39.3999 26.2 38.9999 27.3C38.4999 28.6 39.5999 30 42.5999 32.5C46.7999 35.9 47.8999 38.8 46.5999 42.5C45.2999 46.1 41.5999 48.2 36.6999 47.3L35.1999 51.4001L31.2999 50.1Z" fill="#007F43"/>
<path d="M30.5999 48.2L31.9999 44.4C29.3999 43.3 26.9999 41.6 25.7999 40.2L28.6999 35.9C30.0999 37.4 32.0999 39.1 34.6999 40.1C36.9999 40.9 38.8999 40.6 39.4999 39C40.0999 37.5 39.0999 36 36.4999 33.9C32.6999 30.9 30.4999 27.8 31.9999 23.9C33.2999 20.4 36.7999 18.5 41.3999 19.2L42.7999 15.4L46.6999 16.8L45.3999 20.3C47.9999 21.4 49.6999 22.6 50.6999 23.8L47.9999 28C47.0999 27.2 45.5999 25.6 42.6999 24.5C40.0999 23.5 38.7999 24.4 38.3999 25.5C37.8999 26.8 38.9999 28.2 41.9999 30.7C46.1999 34.1 47.2999 37 45.9999 40.7C44.6999 44.3 40.9999 46.4 36.0999 45.5L34.5999 49.6L30.5999 48.2Z" fill="white"/>
<path d="M25.9 56.1L38.5999 14.3L19.2 12.2L15.2 49.5C17.9 52.4 21.4999 54.7 25.9 56.1Z" fill="#17393F"/>
<path d="M59.9 17.7C59.8 17.4 59.6 17.1 59.5 16.8L55.5999 15.5L56.5999 13.7L51.2 11.7C52.4 12.9 53.3999 14.2 54.2999 15.6L55.4 16L59.9 17.7Z" fill="#AF4205"/>
<path d="M25.1 2.20001L24.7 5.70001C26.7 5.10001 28.9 4.60001 31.2 4.50001L25.1 2.20001Z" fill="#AF4205"/>
<path d="M40.9 54.5L15.2 52.1L26.2999 3.40002L55.7 14.1L40.9 54.5Z" fill="#007F43"/>
<path d="M59.9 17.7L54.2 15.6L31.5999 7.29999L16.2 49.5C18.6 51.7 21.6 53.4 25.1 54.4C27.5 55.1 30.1 55.5 33 55.6C39.9 55.5 45.4 53.3 49.4 49.8L58 26.4L60.5999 19.4L61.0999 18.1L59.9 17.7Z" fill="#00B34C"/>
<path d="M25.1 54.4C27.5 55.1 30.1 55.5 33 55.6C39.9 55.5 45.4 53.3 49.4 49.8L50.5 46.8C50.2 47.1 49.9 47.4 49.6 47.7C45.7 51.3 40.4 53.8 33.5 54.3C30.6 54.4 28 54.1 25.5 53.5C21.9 52.6 18.9 51.1 16.3 49C16.3 49 16.2 49 16.2 48.9L16 49.4C18.6 51.6 21.6 53.3 25.1 54.4Z" fill="#007F43"/>
<path d="M60.5999 19.4L57.9999 26.4C59.0999 35 56.1999 44.1 49.4999 49.8C45.3999 53.2 39.9999 55.4 33.0999 55.6C30.1999 55.5 27.5999 55.1 25.1999 54.4C21.6999 53.3 18.6999 51.6 16.2999 49.5C15.8999 49.1 15.4999 48.8 15.0999 48.4C14.7999 48.1 14.3999 48.3 14.3999 48.7L13.9999 50.8C13.7999 52.2 14.3999 53.6 15.5999 54.4C17.9999 56.1 20.6999 57.5 23.7999 58.4C26.5999 59.2 29.5999 59.7 32.9999 59.8C33.8999 59.8 34.7999 59.7 35.6999 59.6C39.9999 59.2 43.7999 58.1 46.9999 56.4C60.6999 49.4 65.1999 32.8 60.5999 19.4Z" fill="#FF6000"/>
<path d="M30 52.7L31.5 48.5C28.6 47.3 26 45.5 24.7 43.9L27.9 39.2C29.4 40.9 31.7 42.7 34.5 43.8C37 44.7 39.1 44.4 39.7 42.6C40.3 40.9 39.3 39.4 36.4 37.1C32.3 33.8 29.8 30.5 31.4 26.2C32.8 22.3 36.6 20.3 41.7 21L43.2 16.8L47.5 18.4L46.0999 22.3C48.9999 23.5 50.8 24.8 52 26L48.9 30.5C47.9 29.6 46.2999 27.9 43.0999 26.7C40.1999 25.7 38.9 26.6 38.4 27.8C37.9 29.3 39.0999 30.7 42.2999 33.5C46.8999 37.2 48.1 40.4 46.7 44.4C45.3 48.3 41.3 50.7 35.9 49.7L34.2999 54.2L30 52.7Z" fill="#007F43"/>
<path d="M29.3 50.6L30.8 46.4C27.9 45.2 25.3 43.4 24 41.8L27.2 37.1C28.7 38.8 31 40.6 33.8 41.7C36.3 42.6 38.4 42.3 39 40.5C39.6 38.8 38.6 37.3 35.7 35C31.6 31.7 29.1 28.4 30.7 24.1C32.1 20.2 35.9 18.2 41 18.9L42.5 14.7L46.8 16.3L45.4 20.2C48.3 21.4 50.1 22.7 51.3 23.9L48.2 28.4C47.2 27.5 45.6 25.8 42.4 24.6C39.5 23.6 38.2 24.5 37.7 25.7C37.2 27.2 38.4 28.6 41.6 31.4C46.2 35.1 47.4 38.3 46 42.3C44.6 46.2 40.6 48.6 35.2 47.6L33.6 52.1L29.3 50.6Z" fill="white"/>
</svg>
