<svg width="24" height="18" viewBox="0 0 24 18" fill="none" xmlns="http://www.w3.org/2000/svg">
<path d="M20.43 0.590027H3.57998C2.06998 0.590027 0.849976 1.81003 0.849976 3.32003V14.68C0.849976 16.18 2.07998 17.41 3.57998 17.41H20.43C21.94 17.41 23.16 16.19 23.16 14.68V3.32003C23.16 1.81003 21.94 0.590027 20.43 0.590027ZM21.46 5.60003V7.92003V14.69C21.46 15.26 21 15.72 20.43 15.72H3.57998C3.00998 15.72 2.54998 15.26 2.54998 14.69V8.54003H9.49998V5.02003H2.54998V3.32003C2.54998 2.75003 3.00998 2.29003 3.57998 2.29003H20.43C21 2.29003 21.46 2.75003 21.46 3.32003V5.60003Z" fill="black"/>
<path d="M16.1 7.99005C14.71 7.54005 14.14 7.24005 14.14 6.78005C14.14 6.39005 14.48 5.99005 15.54 5.99005C16.71 5.99005 17.46 6.31005 17.89 6.47005L18.36 4.88005C17.82 4.65005 17.09 4.46005 16 4.42005V3.18005H14.4V4.52005C12.66 4.82005 11.65 5.79005 11.65 7.02005C11.65 8.38005 12.84 9.09005 14.58 9.59005C15.79 9.94005 16.31 10.2801 16.31 10.8101C16.31 11.3701 15.67 11.6801 14.75 11.6801C13.69 11.6801 12.73 11.3801 12.04 11.0601L11.55 12.7101C12.17 13.0201 13.23 13.2701 14.32 13.3201V14.6601H15.92V13.2301C17.79 12.9501 18.82 11.8801 18.82 10.6301C18.82 9.35005 18.03 8.58005 16.1 7.99005Z" fill="black"/>
</svg>
