<svg width="20" height="20" viewBox="0 0 20 20" fill="none" xmlns="http://www.w3.org/2000/svg">
<path d="M13.96 14.66C13.63 14.44 13.16 14.43 12.71 14.6C12.16 14.81 11.39 15.46 10.32 15.57C9.18 15.54 7.75 15.07 6.25 13.5C6.19 13.44 6.14 13.39 6.08 13.33C6.02 13.27 5.98 13.21 5.93 13.15C4.5 11.53 4.15 10.06 4.22 8.92C4.43 7.86 5.13 7.15 5.39 6.62C5.6 6.18 5.64 5.72 5.44 5.37L2.75 2.19C2.37 1.78 2.15 1.75 1.84 2.04C1.84 2.04 0.529997 3.39 0.249997 5.07C0.0599974 6.17 0.119997 7.24 0.339997 8.23C0.449997 8.73 0.599997 9.21 0.779997 9.67C1.3 11 2.15 12.14 2.97 13.24C3.74 14.27 4.59 15.24 5.53 16.13C6.59 17.14 7.67 18.08 8.98 18.78C9.45 19.03 9.95 19.25 10.47 19.43C11.49 19.78 12.62 19.95 13.81 19.86C15.51 19.72 16.97 18.54 16.97 18.54C17.28 18.25 17.28 18.03 16.9 17.62L13.96 14.66Z" fill="black"/>
<path d="M9.07 5.06998C10.34 5.26998 11.65 5.85998 12.76 6.84998C13.87 7.83998 14.63 9.05998 14.98 10.3C15.09 10.68 15.48 10.9 15.87 10.84L16.17 10.79C16.65 10.71 16.94 10.23 16.81 9.76998C16.36 8.18998 15.43 6.64998 14.03 5.41998C12.64 4.17998 11 3.43998 9.38 3.18998C8.9 3.11998 8.47 3.45998 8.44 3.94998L8.43 4.25998C8.41 4.64998 8.68 5.00998 9.07 5.06998Z" fill="black"/>
<path d="M19.84 9.28C19.3 7.05 18.02 4.87 16.06 3.13C14.1 1.39 11.77 0.390001 9.49001 0.130001C9.02001 0.0800005 8.60001 0.420001 8.58001 0.890001L8.57 1.2C8.55 1.61 8.84001 1.98 9.25001 2.03C11.16 2.25 13.12 3.1 14.79 4.58C16.46 6.06 17.55 7.91 18 9.77C18.1 10.17 18.5 10.41 18.9 10.34L19.21 10.29C19.67 10.19 19.95 9.73 19.84 9.28Z" fill="black"/>
<path d="M8.95001 8.14999C9.59001 8.26999 10.23 8.57999 10.8 9.07999C11.36 9.57999 11.75 10.18 11.95 10.8C12.07 11.18 12.45 11.42 12.84 11.35L13.16 11.3C13.63 11.22 13.94 10.74 13.8 10.29C13.5 9.31999 12.92 8.39999 12.07 7.63999C11.22 6.88999 10.23 6.42999 9.23001 6.24999C8.76001 6.16999 8.32001 6.52999 8.30001 7.00999L8.29001 7.33999C8.27001 7.73999 8.55001 8.07999 8.95001 8.14999Z" fill="black"/>
</svg>
