<svg width="24" height="24" viewBox="0 0 24 24" fill="none" xmlns="http://www.w3.org/2000/svg">
<path d="M20.88 0.650024H3.13002C1.76002 0.650024 0.650024 1.76002 0.650024 3.13002V18.48C0.650024 18.48 1.30002 17.81 1.99002 17.19C2.22002 16.98 2.35002 16.68 2.35002 16.37V3.13002C2.35002 2.70002 2.70002 2.35002 3.13002 2.35002H20.87C21.3 2.35002 21.65 2.70002 21.65 3.13002V18C20.59 16.75 19.27 15.71 17.78 14.95C18.66 13.75 19.18 12.28 19.18 10.69C19.18 6.71002 15.96 3.48002 12 3.48002C8.04002 3.48002 4.82002 6.72002 4.82002 10.69C4.82002 12.29 5.34002 13.76 6.22002 14.95C4.73002 15.71 3.41002 16.75 2.35002 18C1.68002 18.79 1.12002 19.68 0.670024 20.62C0.720024 21.44 1.10002 22.15 1.69002 22.65C2.20002 23.08 2.84002 23.35 3.56002 23.35H20.45C21.17 23.35 21.81 23.08 22.32 22.65C22.91 22.15 23.29 21.43 23.34 20.62C23.34 20.56 23.36 20.51 23.36 20.45V3.13002C23.35 1.76002 22.24 0.650024 20.88 0.650024ZM6.53002 10.68C6.53002 7.64003 8.99002 5.17002 12.01 5.17002C15.03 5.17002 17.49 7.64003 17.49 10.68C17.49 12.05 16.99 13.3 16.17 14.26C15.72 14.79 15.17 15.23 14.55 15.56C13.79 15.96 12.93 16.19 12.01 16.19C11.09 16.19 10.23 15.96 9.47003 15.56C8.85003 15.23 8.30002 14.79 7.85002 14.26C7.03002 13.3 6.53002 12.05 6.53002 10.68ZM20.45 21.65H3.56002C3.05002 21.65 2.62002 21.32 2.44002 20.87C3.53002 18.85 5.30002 17.22 7.45002 16.25C8.69002 17.28 10.28 17.9 12.01 17.9C13.74 17.9 15.33 17.28 16.57 16.25C18.72 17.22 20.48 18.85 21.58 20.87C21.39 21.33 20.96 21.65 20.45 21.65Z" fill="black"/>
</svg>
