<svg width="22" height="22" viewBox="0 0 22 22" fill="none" xmlns="http://www.w3.org/2000/svg">
<path d="M21.27 17.17C20.43 15.18 18.98 13.47 17.18 12.29L16.87 12.08C16.38 11.75 15.73 11.84 15.32 12.27C13.88 13.75 11.7 14.39 9.56002 13.77C7.51002 13.18 5.93002 11.4 5.56002 9.3C4.89002 5.38 8.23002 2 12.15 2.62C14.74 3.03 16.77 5.28 16.94 7.9C16.98 8.51 16.92 9.11 16.78 9.68C16.68 10.06 16.91 10.46 17.28 10.6L17.35 10.63C17.81 10.81 18.32 10.54 18.43 10.06C18.62 9.29 18.69 8.49 18.62 7.68C18.36 4.25 15.65 1.37 12.24 0.909997C7.11002 0.219997 2.80002 4.81 3.98002 10C4.52002 12.4 6.29002 14.41 8.60002 15.24C11.4 16.25 14.29 15.55 16.27 13.71C17.79 14.71 19 16.15 19.71 17.83C19.86 18.2 19.82 18.6 19.6 18.94C19.36 19.31 18.95 19.53 18.51 19.53H3.89002C3.45002 19.53 3.07002 19.32 2.83002 18.96C2.59002 18.58 2.55002 18.11 2.74002 17.69C3.20002 16.65 3.84002 15.71 4.65002 14.9C4.98002 14.57 4.98002 14.03 4.65002 13.7C4.32002 13.37 3.78002 13.37 3.45002 13.7C2.51002 14.64 1.77002 15.72 1.22002 16.92C0.960023 17.49 0.840023 18.13 0.950023 18.74C1.23002 20.25 2.48002 21.23 3.88002 21.23H18.37C19.07 21.23 19.77 21.04 20.32 20.61C21.43 19.76 21.77 18.35 21.27 17.17Z" fill="black"/>
</svg>
