<svg width="24" height="24" viewBox="0 0 24 24" fill="none" xmlns="http://www.w3.org/2000/svg">
<path d="M23.2 21.39L19.41 17.54C19.1 17.22 18.67 17.11 18.26 17.15L16.35 15.21C17.74 13.57 18.5 11.52 18.52 9.34998C18.54 6.88998 17.6 4.57998 15.88 2.81998C12.32 -0.790023 6.48003 -0.840023 2.87003 2.71998C-0.739974 6.27998 -0.789974 12.12 2.77003 15.73C4.57003 17.56 6.95003 18.47 9.33003 18.47C11.39 18.47 13.46 17.78 15.15 16.4L17.06 18.34C17.01 18.75 17.11 19.18 17.43 19.5L21.22 23.35C21.49 23.63 21.86 23.77 22.22 23.77C22.57 23.77 22.93 23.64 23.2 23.37C23.74 22.83 23.75 21.95 23.2 21.39ZM3.97003 14.55C1.07003 11.6 1.11003 6.84998 4.05003 3.94998C5.51003 2.50998 7.41003 1.79998 9.31003 1.79998C11.25 1.79998 13.19 2.54998 14.65 4.02998C16.06 5.45998 16.82 7.34998 16.81 9.34998C16.79 11.35 16 13.23 14.57 14.64C11.63 17.53 6.88003 17.5 3.97003 14.55Z" fill="black"/>
</svg>
