<svg width="69" height="62" viewBox="0 0 69 62" fill="none" xmlns="http://www.w3.org/2000/svg">
<path d="M66.1 61.67H1.96003C0.890029 61.67 0.0300293 60.81 0.0300293 59.74C0.0300293 58.67 0.890029 57.81 1.96003 57.81H66.1C67.17 57.81 68.03 58.67 68.03 59.74C68.03 60.81 67.16 61.67 66.1 61.67Z" fill="#A2D7A2"/>
<path d="M39.52 2.29997C44.83 2.29997 49.21 4.90997 49.8 8.26997C49.85 8.00997 49.87 7.74997 49.87 7.47997C49.87 3.74997 45.23 0.719971 39.51 0.719971C33.79 0.719971 29.15 3.74997 29.15 7.47997C29.15 7.74997 29.18 8.00997 29.22 8.26997C29.83 4.90997 34.21 2.29997 39.52 2.29997Z" fill="#E54803"/>
<path d="M26.1301 56.39V7.31996C26.1301 5.62996 24.7601 4.26996 23.0801 4.26996H15.9901C14.3001 4.26996 12.9401 5.63996 12.9401 7.31996V56.39C12.9401 58.08 14.3101 59.44 15.9901 59.44H23.0801C24.7601 59.45 26.1301 58.08 26.1301 56.39Z" fill="#A03607"/>
<path d="M25.3801 56.39V7.31996C25.3801 5.62996 24.0901 4.26996 22.5001 4.26996H15.8101C14.2201 4.26996 12.9301 5.63996 12.9301 7.31996V56.39C12.9301 58.08 14.2201 59.44 15.8101 59.44H22.5001C24.0901 59.45 25.3801 58.08 25.3801 56.39Z" fill="#7C2909"/>
<path d="M26.1301 27.93V56.4C26.1301 58.09 24.7601 59.45 23.0801 59.45H53.8201C55.5101 59.45 56.8701 58.08 56.8701 56.4V27.93H26.1301Z" fill="#7C2909"/>
<path d="M18.96 41.21V54.56C18.96 56.05 17.75 57.25 16.27 57.25H21.19C23.44 57.25 24.38 55.24 24.38 53.75V41.21H18.96Z" fill="#A03607"/>
<path d="M10.6401 57.26H16.9001C18.3901 57.26 19.5901 56.05 19.5901 54.57V41.21H7.95007V54.56C7.95007 56.05 9.16007 57.26 10.6401 57.26Z" fill="#FF6000"/>
<path d="M8.82002 40.81C7.83002 40.81 6.90002 41.49 6.90002 42.47V51.98C6.90002 53.24 8.08002 54.26 9.52002 54.26H15.62C17.07 54.26 18.24 53.24 18.24 51.98V40.83L8.82002 40.81Z" fill="#FF9700"/>
<path d="M23.77 40.87C23.58 40.75 23.47 40.7 23.35 40.68H17.65V51.48C17.65 52.75 16.47 53.79 15.03 53.79H8.93004C8.42004 53.79 7.94004 53.66 7.54004 53.43C8.02004 53.93 8.73004 54.25 9.53004 54.25H15.63C17.08 54.25 18.25 53.22 18.25 51.94V41.14H24.22L23.77 40.87Z" fill="#A03607"/>
<path d="M22.2 4.56996H24.37C23.98 4.38996 23.54 4.26996 23.08 4.26996H15.99C15.23 4.26996 14.54 4.55996 14.01 5.01996H22.85C23.82 5.01996 24.66 5.60996 25.03 6.43996C24.56 5.33996 23.47 4.56996 22.2 4.56996Z" fill="#F24506"/>
<path d="M25.18 6.95994C25.15 6.77994 25.09 6.59994 25.02 6.43994C25.09 6.60994 25.14 6.77994 25.18 6.95994Z" fill="#F24506"/>
<path d="M52.94 4.56995H24.37C25.41 5.05995 26.13 6.10995 26.13 7.32995V34.8799C26.66 35.3999 27.37 35.7199 28.17 35.7199H52.96C54.64 35.7199 56 34.3599 56 32.6799V7.61995C56 5.92995 54.63 4.56995 52.94 4.56995Z" fill="#F24506"/>
<path d="M24.37 4.56995H22.2C23.47 4.56995 24.56 5.33995 25.02 6.43995C25.09 6.59995 25.15 6.77995 25.18 6.95995C25.23 7.16995 25.26 7.38995 25.26 7.61995V32.7999C25.26 33.6099 25.5999 34.3499 26.1299 34.8799V7.31995C26.1299 6.09995 25.4 5.04995 24.37 4.56995Z" fill="#F24506"/>
<path d="M56.8701 7.31996C56.8701 5.62996 55.5001 4.26996 53.8201 4.26996H23.0701C24.7601 4.26996 26.1201 5.63996 26.1201 7.31996V32.5C26.1201 34.11 27.4201 35.41 29.0301 35.41H53.8201C55.5001 35.41 56.8601 34.05 56.8601 32.37V7.31996H56.8701Z" fill="#FF6000"/>
<path d="M60.88 55.4999C60.89 55.4799 60.9 55.4599 60.91 55.4399C60.97 55.2999 61.02 55.1599 61.06 55.0099C61.07 54.9699 61.08 54.9399 61.09 54.8999C61.13 54.7199 61.15 54.5299 61.15 54.3399V40.5399C61.15 39.1099 60.04 37.9399 58.67 37.9399H32.87C32.07 38.3499 31.51 39.2199 31.51 40.2299V53.7799C31.51 55.1899 32.58 56.3299 33.9 56.3299H60.26C60.39 56.2099 60.51 56.0799 60.62 55.9399C60.62 55.9299 60.63 55.9299 60.63 55.9199C60.72 55.7899 60.8 55.6499 60.88 55.4999Z" fill="#FF6000"/>
<path d="M60.62 54.95H34.96C33.67 54.95 32.63 53.87 32.63 52.54V39.72C32.63 39.36 32.71 39.02 32.84 38.72C32.46 39.15 32.22 39.71 32.22 40.34V53.16C32.22 54.49 33.26 55.57 34.55 55.57H60.21C60.34 55.46 60.46 55.34 60.56 55.2L60.57 55.19C60.67 55.07 60.75 54.93 60.82 54.79C60.83 54.77 60.84 54.75 60.85 54.73C60.86 54.72 60.86 54.7 60.86 54.69C60.79 54.78 60.71 54.87 60.62 54.95Z" fill="#F24506"/>
<path d="M27.99 40.54V54.34C27.99 55.77 29.1 56.9399 30.47 56.9399H58.67C58.83 56.9399 58.98 56.92 59.13 56.8899C59.22 56.8699 59.31 56.84 59.4 56.81C59.45 56.79 59.5 56.7799 59.55 56.7599C59.67 56.7099 59.78 56.65 59.89 56.59C59.9 56.58 59.91 56.58 59.92 56.57C60.04 56.5 60.15 56.41 60.26 56.32H33.89C32.57 56.32 31.5 55.18 31.5 53.77V40.24C31.5 39.23 32.06 38.36 32.86 37.95H30.46C29.1 37.95 27.99 39.11 27.99 40.54Z" fill="#A03607"/>
<path d="M36.97 17.65C36.89 17.44 36.81 17.26 36.73 17.06V4.98998C36.73 4.59998 36.42 4.28998 36.03 4.28998H28.69L28.53 4.43998L30.18 4.51998C30.2 4.51998 30.21 4.51998 30.22 4.51998C30.23 4.57998 30.23 4.66998 30.23 4.78998V17.06C30.15 17.27 30.07 17.45 29.99 17.66C29.49 18.12 29.17 18.83 29.17 19.61V24.02C29.17 24.81 29.48 25.51 29.99 25.97C30.08 26.18 30.15 26.36 30.24 26.57V31.1C30.24 32.16 30.96 33.04 31.86 33.1L35 33.09C35.46 33.09 35.9 32.88 36.22 32.5C36.38 32.32 36.5 32.1 36.59 31.86C36.68 31.61 36.73 31.35 36.73 31.08V26.55C36.81 26.34 36.89 26.16 36.98 25.95C37.48 25.49 37.8 24.79 37.8 24V19.6C37.79 18.82 37.48 18.11 36.97 17.65Z" fill="#C24503"/>
<path d="M35.6901 32.16H32.2501C31.7101 32.16 31.2801 31.73 31.2801 31.19V5.53996C31.2801 4.70996 31.0201 4.27996 30.2201 4.27996L28.8401 4.24996C28.8401 4.24996 29.3601 3.82996 29.7301 3.82996C30.1001 3.82996 34.4501 3.83996 34.8501 3.82996C36.0201 3.82996 36.6501 4.17996 36.6501 5.05996V31.18C36.6601 31.73 36.2301 32.16 35.6901 32.16Z" fill="#FF9700"/>
<path d="M36.4501 4.48993C36.4501 4.51993 36.4701 4.53993 36.4701 4.56993V31.2199C36.4701 31.6099 36.1501 31.9199 35.7701 31.9199H31.8001C31.7201 31.9199 31.6501 31.8999 31.5801 31.8799C31.7601 32.0599 32.0001 32.1699 32.2701 32.1699H35.7101C36.2501 32.1699 36.6801 31.7399 36.6801 31.1999V5.06993C36.6601 4.84993 36.5701 4.64993 36.4501 4.48993Z" fill="#FFE554"/>
<path d="M33.9701 23.2299C34.5611 23.2299 35.0401 22.7598 35.0401 22.1799C35.0401 21.6 34.5611 21.1299 33.9701 21.1299C33.3792 21.1299 32.9001 21.6 32.9001 22.1799C32.9001 22.7598 33.3792 23.2299 33.9701 23.2299Z" fill="#C24503"/>
<path d="M33.9701 19.44C34.5611 19.44 35.0401 18.9699 35.0401 18.39C35.0401 17.8101 34.5611 17.34 33.9701 17.34C33.3792 17.34 32.9001 17.8101 32.9001 18.39C32.9001 18.9699 33.3792 19.44 33.9701 19.44Z" fill="#C24503"/>
<path d="M33.9701 15.19C34.5611 15.19 35.0401 14.7199 35.0401 14.14C35.0401 13.5601 34.5611 13.09 33.9701 13.09C33.3792 13.09 32.9001 13.5601 32.9001 14.14C32.9001 14.7199 33.3792 15.19 33.9701 15.19Z" fill="#C24503"/>
<path d="M36.7401 18.59V19.47C36.9201 19.58 37.0501 19.77 37.0501 19.99V24.29C37.0501 24.63 36.7701 24.91 36.4301 24.91H31.5201C31.1801 24.91 30.9001 24.63 30.9001 24.29V19.99C30.9001 19.74 31.0501 19.52 31.2701 19.43V18.59C30.6001 18.71 30.0901 19.29 30.0901 20V24.3C30.0901 25.09 30.7301 25.73 31.5201 25.73H36.4301C37.2201 25.73 37.8601 25.09 37.8601 24.3V20C37.8601 19.3 37.3801 18.73 36.7401 18.59Z" fill="#3B6A79"/>
<path d="M31.2701 19.42V18.58C31.2101 18.59 31.1601 18.61 31.1001 18.63V19.34C30.8701 19.44 30.7101 19.67 30.7101 19.94V24.52C30.7101 24.88 31.0001 25.18 31.3701 25.18H36.5901C36.9501 25.18 37.2501 24.89 37.2501 24.52V19.94C37.2501 19.7 37.1101 19.5 36.9201 19.39V18.67C36.8601 18.65 36.8101 18.61 36.7501 18.6V19.48C36.9301 19.59 37.0601 19.78 37.0601 20V24.3C37.0601 24.64 36.7801 24.92 36.4401 24.92H31.5301C31.1901 24.92 30.9101 24.64 30.9101 24.3V20C30.9001 19.73 31.0501 19.52 31.2701 19.42Z" fill="#254B54"/>
<path d="M34.1501 25.67H33.7901C33.5901 25.67 33.4301 25.51 33.4301 25.31V21.96C33.4301 21.76 33.5901 21.6 33.7901 21.6H34.1501C34.3501 21.6 34.5101 21.76 34.5101 21.96V25.31C34.5201 25.51 34.3601 25.67 34.1501 25.67Z" fill="#254B54"/>
<path d="M34.1401 25.39H33.8101C33.6201 25.39 33.4701 25.24 33.4701 25.05V21.93C33.4701 21.74 33.6201 21.59 33.8101 21.59H34.1401C34.3301 21.59 34.4801 21.74 34.4801 21.93V25.05C34.4801 25.23 34.3301 25.39 34.1401 25.39Z" fill="#3B6A79"/>
<path d="M51.6401 17.65C51.5601 17.44 51.4801 17.26 51.4001 17.06V4.98998C51.4001 4.59998 51.0901 4.28998 50.7001 4.28998H43.3601L43.2001 4.43998L44.8501 4.51998C44.8701 4.51998 44.8801 4.51998 44.8901 4.51998C44.9001 4.57998 44.9001 4.66998 44.9001 4.78998V17.06C44.8201 17.27 44.7401 17.45 44.6601 17.66C44.1601 18.12 43.8401 18.83 43.8401 19.61V24.02C43.8401 24.81 44.1501 25.51 44.6601 25.97C44.7501 26.18 44.8201 26.36 44.9101 26.57V31.1C44.9101 32.16 45.6301 33.04 46.5301 33.1L49.6801 33.11C50.1401 33.11 50.5801 32.9 50.9001 32.52C51.0601 32.34 51.1801 32.12 51.2701 31.88C51.3601 31.63 51.4101 31.37 51.4101 31.1V26.57C51.4901 26.36 51.5701 26.18 51.6601 25.97C52.1601 25.51 52.4801 24.81 52.4801 24.02V19.6C52.4501 18.82 52.1401 18.11 51.6401 17.65Z" fill="#C24503"/>
<path d="M50.36 32.16H46.92C46.38 32.16 45.95 31.73 45.95 31.19V5.53996C45.95 4.70996 45.69 4.27996 44.89 4.27996L43.51 4.24996C43.51 4.24996 44.03 3.82996 44.4 3.82996C44.77 3.82996 49.12 3.83996 49.52 3.82996C50.69 3.82996 51.32 4.17996 51.32 5.05996V31.18C51.32 31.73 50.89 32.16 50.36 32.16Z" fill="#FF9700"/>
<path d="M51.11 4.48993C51.11 4.51993 51.13 4.53993 51.13 4.56993V31.2199C51.13 31.6099 50.81 31.9199 50.43 31.9199H46.46C46.38 31.9199 46.31 31.8999 46.24 31.8799C46.42 32.0599 46.66 32.1699 46.93 32.1699H50.37C50.91 32.1699 51.34 31.7399 51.34 31.1999V5.06993C51.32 4.84993 51.24 4.64993 51.11 4.48993Z" fill="#FFE554"/>
<path d="M48.6401 23.2299C49.231 23.2299 49.7101 22.7598 49.7101 22.1799C49.7101 21.6 49.231 21.1299 48.6401 21.1299C48.0491 21.1299 47.5701 21.6 47.5701 22.1799C47.5701 22.7598 48.0491 23.2299 48.6401 23.2299Z" fill="#C24503"/>
<path d="M48.6401 19.44C49.231 19.44 49.7101 18.9699 49.7101 18.39C49.7101 17.8101 49.231 17.34 48.6401 17.34C48.0491 17.34 47.5701 17.8101 47.5701 18.39C47.5701 18.9699 48.0491 19.44 48.6401 19.44Z" fill="#C24503"/>
<path d="M48.6401 15.19C49.231 15.19 49.7101 14.7199 49.7101 14.14C49.7101 13.5601 49.231 13.09 48.6401 13.09C48.0491 13.09 47.5701 13.5601 47.5701 14.14C47.5701 14.7199 48.0491 15.19 48.6401 15.19Z" fill="#C24503"/>
<path d="M51.4 18.59V19.47C51.58 19.58 51.71 19.77 51.71 19.99V24.29C51.71 24.63 51.43 24.91 51.09 24.91H46.18C45.84 24.91 45.56 24.63 45.56 24.29V19.99C45.56 19.74 45.71 19.52 45.93 19.43V18.59C45.26 18.71 44.75 19.29 44.75 20V24.3C44.75 25.09 45.39 25.73 46.18 25.73H51.09C51.88 25.73 52.52 25.09 52.52 24.3V20C52.52 19.3 52.04 18.73 51.4 18.59Z" fill="#3B6A79"/>
<path d="M45.93 19.42V18.58C45.87 18.59 45.82 18.61 45.76 18.63V19.34C45.53 19.44 45.37 19.67 45.37 19.94V24.52C45.37 24.88 45.66 25.18 46.03 25.18H51.25C51.61 25.18 51.91 24.89 51.91 24.52V19.94C51.91 19.7 51.77 19.5 51.58 19.39V18.67C51.52 18.65 51.47 18.61 51.41 18.6V19.48C51.59 19.59 51.72 19.78 51.72 20V24.3C51.72 24.64 51.44 24.92 51.1 24.92H46.19C45.85 24.92 45.57 24.64 45.57 24.3V20C45.56 19.73 45.72 19.52 45.93 19.42Z" fill="#254B54"/>
<path d="M48.82 25.67H48.46C48.26 25.67 48.1 25.51 48.1 25.31V21.96C48.1 21.76 48.26 21.6 48.46 21.6H48.82C49.02 21.6 49.18 21.76 49.18 21.96V25.31C49.18 25.51 49.02 25.67 48.82 25.67Z" fill="#254B54"/>
<path d="M48.8 25.39H48.47C48.28 25.39 48.13 25.24 48.13 25.05V21.93C48.13 21.74 48.28 21.59 48.47 21.59H48.8C48.99 21.59 49.14 21.74 49.14 21.93V25.05C49.14 25.23 48.99 25.39 48.8 25.39Z" fill="#3B6A79"/>
<path d="M19.56 5.03998V35.83H18.97V5.03998H18.05V36.32C18.05 36.97 18.58 37.5 19.23 37.5C19.88 37.5 20.41 36.97 20.41 36.32V5.03998H19.56Z" fill="#FF6000"/>
<path d="M59.27 42.18H34.52C34.05 42.18 33.67 41.8 33.67 41.33V41.12C33.67 40.65 34.05 40.27 34.52 40.27H59.28C59.75 40.27 60.13 40.65 60.13 41.12V41.33C60.12 41.8 59.74 42.18 59.27 42.18Z" fill="#A03607"/>
<path d="M12.4501 52.64C13.0797 52.64 13.5901 52.1162 13.5901 51.47C13.5901 50.8238 13.0797 50.3 12.4501 50.3C11.8205 50.3 11.3101 50.8238 11.3101 51.47C11.3101 52.1162 11.8205 52.64 12.4501 52.64Z" fill="#E54803"/>
<path d="M19.37 35.17H19.22C18.9 35.17 18.65 35.43 18.65 35.74V38.61C18.65 38.93 18.91 39.18 19.22 39.18H19.37C19.69 39.18 19.94 38.92 19.94 38.61V35.74C19.94 35.43 19.68 35.17 19.37 35.17ZM19.51 35.83H19.05C18.95 35.83 18.87 35.75 18.87 35.65C18.87 35.55 18.95 35.47 19.05 35.47H19.51C19.61 35.47 19.69 35.55 19.69 35.65C19.7 35.75 19.62 35.83 19.51 35.83Z" fill="white"/>
<path d="M18.64 38.26V38.61C18.64 38.93 18.9 39.18 19.21 39.18H19.36C19.68 39.18 19.93 38.92 19.93 38.61V38.26H18.64Z" fill="#FF9700"/>
<path d="M58.7 40.85H58.55C58.23 40.85 57.98 41.11 57.98 41.42V44.29C57.98 44.61 58.24 44.86 58.55 44.86H58.7C59.02 44.86 59.27 44.6 59.27 44.29V41.42C59.27 41.11 59.02 40.85 58.7 40.85ZM58.85 41.51H58.39C58.29 41.51 58.21 41.43 58.21 41.33C58.21 41.23 58.29 41.15 58.39 41.15H58.85C58.95 41.15 59.03 41.23 59.03 41.33C59.03 41.42 58.95 41.51 58.85 41.51Z" fill="white"/>
<path d="M57.98 43.93V44.28C57.98 44.6 58.24 44.85 58.55 44.85H58.7C59.02 44.85 59.27 44.59 59.27 44.28V43.93H57.98Z" fill="#FF9700"/>
</svg>
