<svg width="69" height="54" viewBox="0 0 69 54" fill="none" xmlns="http://www.w3.org/2000/svg">
<path d="M66.1 53.67H1.96003C0.890029 53.67 0.0300293 52.81 0.0300293 51.74C0.0300293 50.67 0.890029 49.81 1.96003 49.81H66.1C67.17 49.81 68.03 50.67 68.03 51.74C68.03 52.81 67.16 53.67 66.1 53.67Z" fill="#A2D7A2"/>
<path d="M64.3701 51.43H63.2001C63.2001 24.42 50.1201 2.44002 34.0301 2.44002C17.9401 2.44002 4.86006 24.42 4.86006 51.43H3.69006C3.69006 23.53 17.3001 0.830017 34.0301 0.830017C50.7601 0.830017 64.3701 23.53 64.3701 51.43Z" fill="#3B6A79"/>
<path d="M63.1901 50.7C63.1901 23.69 50.1101 1.71002 34.0201 1.71002C17.9301 1.71002 4.86006 23.68 4.86006 50.7H3.70006C3.70006 50.95 3.69006 51.19 3.69006 51.44H4.86006C4.86006 24.43 17.9401 2.45002 34.0301 2.45002C50.1201 2.45002 63.2001 24.43 63.2001 51.44H64.3701C64.3701 51.19 64.3601 50.95 64.3601 50.7H63.1901Z" fill="#254B54"/>
<path d="M8.38002 39.41L4.67002 38.82C4.37002 38.77 4.10002 39.06 4.06002 39.47L3.84002 41.66C3.80002 42.08 4.02002 42.47 4.33002 42.52L8.06002 43.1" fill="#F24506"/>
<path d="M13.2401 22.89L10.0001 20.34C9.74007 20.13 9.40007 20.25 9.25007 20.6L8.41007 22.49C8.25007 22.85 8.34007 23.33 8.61007 23.54L11.8701 26.1" fill="#F24506"/>
<path d="M21.5401 11.26L19.1701 7.29997C18.9801 6.97997 18.6401 6.92998 18.4001 7.17998L17.1301 8.53998C16.8901 8.79998 16.8501 9.28998 17.0401 9.61998L19.4201 13.59" fill="#F24506"/>
<path d="M59.4601 39.41L63.1701 38.82C63.4701 38.77 63.7401 39.06 63.7801 39.47L64.0001 41.66C64.0401 42.08 63.8201 42.47 63.5101 42.52L59.7801 43.1" fill="#F24506"/>
<path d="M54.6001 22.89L57.8401 20.34C58.1001 20.13 58.4401 20.25 58.5901 20.6L59.4301 22.49C59.5901 22.85 59.5001 23.33 59.2301 23.54L55.9701 26.1" fill="#F24506"/>
<path d="M46.3 11.26L48.67 7.29997C48.86 6.97997 49.2 6.92998 49.44 7.17998L50.71 8.53998C50.95 8.79998 50.99 9.28998 50.8 9.61998L48.42 13.59" fill="#F24506"/>
<path d="M34.8501 6.33H33.2101C32.8501 6.33 32.5601 6.04 32.5601 5.68V0.9C32.5601 0.54 32.8501 0.25 33.2101 0.25H34.8501C35.2101 0.25 35.5001 0.54 35.5001 0.9V5.68C35.5001 6.04 35.2101 6.33 34.8501 6.33Z" fill="#F24506"/>
<path d="M34.0301 3.92999C19.1501 3.92999 7.1001 25.2 7.1001 51.43H60.9601C60.9601 25.2 48.9001 3.92999 34.0301 3.92999Z" fill="#FF6000"/>
<path d="M34.0301 29.34C54.9801 29.34 60.9601 51.43 60.9601 51.43C60.9601 25.19 48.9001 11.49 34.0301 11.49C19.1601 11.49 7.1001 25.2 7.1001 51.43H7.2201C7.2101 51.43 13.0801 29.34 34.0301 29.34Z" fill="#F24506"/>
<path d="M34.3201 13.74H33.7301V50.24H34.3201V13.74Z" fill="#8E4306"/>
<path d="M31.0301 24.6201H21.9701V34.6701H31.0301V24.6201Z" fill="#F24506"/>
<path d="M30.23 23.97H21.17V34.02H30.23V23.97Z" fill="#FF6000"/>
<path d="M25.45 24.45H21.76V28.78H25.45V24.45Z" fill="white"/>
<path d="M29.6399 24.45H25.95V28.78H29.6399V24.45Z" fill="white"/>
<path d="M25.45 29.2H21.76V33.53H25.45V29.2Z" fill="white"/>
<path d="M29.6399 29.2H25.95V33.53H29.6399V29.2Z" fill="white"/>
<path d="M37.0237 34.6705L46.0837 34.6705L46.0837 24.6205L37.0237 24.6205L37.0237 34.6705Z" fill="#F24506"/>
<path d="M37.8204 34.0133L46.8804 34.0133L46.8804 23.9633L37.8204 23.9633L37.8204 34.0133Z" fill="#FF6000"/>
<path d="M46.3001 24.45H42.6101V28.78H46.3001V24.45Z" fill="white"/>
<path d="M42.11 24.45H38.42V28.78H42.11V24.45Z" fill="white"/>
<path d="M46.3001 29.2H42.6101V33.53H46.3001V29.2Z" fill="white"/>
<path d="M42.11 29.2H38.42V33.53H42.11V29.2Z" fill="white"/>
<path d="M34.0301 13.74C48.4701 13.74 60.2501 26.66 60.9301 51.43H60.9601C60.9601 25.19 48.9001 11.49 34.0301 11.49C19.1601 11.49 7.1001 25.2 7.1001 51.43H7.1301C7.8001 26.67 19.5901 13.74 34.0301 13.74Z" fill="#3B6A79"/>
<path d="M33.4901 14.79C48.2501 14.79 59.6101 27.21 60.8501 51.43H60.9701C60.9701 25.19 48.9101 13.02 34.0401 13.02C19.1701 13.02 7.1001 25.2 7.1001 51.43H7.2201C8.4501 27.22 18.7201 14.79 33.4901 14.79Z" fill="#FF9700"/>
</svg>
