<svg width="69" height="65" viewBox="0 0 69 65" fill="none" xmlns="http://www.w3.org/2000/svg">
<path d="M66.1 64.67H1.96003C0.890029 64.67 0.0300293 63.81 0.0300293 62.74C0.0300293 61.67 0.890029 60.81 1.96003 60.81H66.1C67.17 60.81 68.03 61.67 68.03 62.74C68.03 63.81 67.16 64.67 66.1 64.67Z" fill="#A2D7A2"/>
<path d="M36.12 63.32C35.28 63.32 34.44 63.32 33.59 63.32C27.56 63.32 20.28 56.52 18.34 48C16.33 37.33 15.32 26.57 15.5 15.9C15.75 7.38002 24.19 0.580017 33.07 0.580017C34.26 0.580017 35.45 0.580017 36.63 0.580017C45.51 0.580017 53.95 7.38002 54.2 15.9C54.38 26.57 53.37 37.33 51.36 48C49.42 56.52 42.15 63.32 36.12 63.32Z" fill="#FF6000"/>
<path d="M36.64 0.580017C36.6 0.580017 36.56 0.580017 36.52 0.580017C44.81 0.580017 52.59 6.91002 52.87 14.84C53.1 24.77 52.36 34.79 50.79 44.74C49.27 52.68 42.35 59.05 36.14 59.05C35.29 59.05 34.43 59.05 33.58 59.05C27.38 59.05 20.45 52.69 18.93 44.74C17.37 34.79 16.62 24.77 16.85 14.84C17.13 6.92002 24.91 0.580017 33.2 0.580017C33.16 0.580017 33.12 0.580017 33.08 0.580017C24.2 0.580017 15.76 7.38002 15.51 15.9C15.33 26.57 16.34 37.33 18.35 48C20.3 56.52 27.57 63.32 33.6 63.32C34.44 63.32 35.28 63.32 36.13 63.32C42.16 63.32 49.44 56.52 51.38 48C53.39 37.33 54.4 26.57 54.22 15.9C53.96 7.38002 45.52 0.580017 36.64 0.580017Z" fill="#F24506"/>
<path d="M54.23 18.27C41.31 18.27 28.4 18.27 15.48 18.27C15.48 18.91 15.48 19.55 15.49 20.19C28.4 20.19 41.31 20.19 54.21 20.19C54.22 19.54 54.23 18.9 54.23 18.27Z" fill="#A03607"/>
<path d="M16.05 31.37C28.59 31.37 41.13 31.37 53.66 31.37C53.72 30.73 53.77 30.09 53.81 29.45C41.17 29.45 28.53 29.45 15.89 29.45C15.94 30.09 15.99 30.73 16.05 31.37Z" fill="#A03607"/>
<path d="M17.4 42.56C29.04 42.56 40.67 42.56 52.31 42.56C52.41 41.92 52.51 41.28 52.6 40.64C40.77 40.64 28.95 40.64 17.12 40.64C17.21 41.28 17.3 41.92 17.4 42.56Z" fill="#A03607"/>
<path d="M20.49 53.7C30.06 53.7 39.64 53.7 49.21 53.7C49.56 53.08 49.89 52.45 50.17 51.79C39.95 51.79 29.74 51.79 19.52 51.79C19.82 52.45 20.14 53.08 20.49 53.7Z" fill="#A03607"/>
<path d="M51.71 18.92C51.78 18.39 51.81 17.85 51.81 17.3C51.67 9.03004 43.61 2.42004 34.85 2.42004C26.09 2.42004 18.03 9.03004 17.89 17.3C17.89 17.85 17.92 18.38 17.99 18.92C29.24 18.92 40.47 18.92 51.71 18.92Z" fill="#A03607"/>
<path d="M34.85 59.67C34.26 59.67 33.76 59.08 33.75 58.36C33.5 45.38 33.36 32.15 33.35 19.04C33.35 18.31 34.02 17.72 34.85 17.72C35.68 17.72 36.35 18.31 36.35 19.04C36.35 32.15 36.2 45.38 35.95 58.36C35.94 59.08 35.45 59.67 34.85 59.67Z" fill="#A03607"/>
<path d="M35.1 57.92C34.94 57.92 34.77 57.92 34.61 57.92C34.55 44.96 34.52 31.75 34.52 18.67C34.74 18.67 34.96 18.67 35.19 18.67C35.19 31.75 35.16 44.96 35.1 57.92Z" fill="#FF6000"/>
<path d="M34.18 17.86C34.14 17.9 34.1 17.94 34.05 17.98C33.79 18.22 33.8 18.59 34.07 18.82C34.88 19.51 35.7 20.2 36.51 20.89C36.78 21.12 37.2 21.11 37.46 20.87C37.5 20.83 37.54 20.79 37.59 20.75C37.85 20.51 37.84 20.13 37.57 19.91C36.76 19.22 35.94 18.53 35.13 17.84C34.87 17.62 34.44 17.62 34.18 17.86ZM34.86 18.22C34.74 18.33 34.61 18.45 34.49 18.56C34.41 18.64 34.27 18.64 34.18 18.57C34.09 18.5 34.09 18.38 34.17 18.3C34.29 18.19 34.42 18.07 34.54 17.96C34.62 17.88 34.76 17.88 34.85 17.95C34.94 18.03 34.94 18.15 34.86 18.22Z" fill="white"/>
<path d="M36.21 20.63C36.31 20.72 36.41 20.8 36.51 20.89C36.78 21.12 37.2 21.11 37.46 20.87C37.5 20.83 37.54 20.79 37.59 20.75C37.85 20.51 37.84 20.13 37.57 19.91C37.47 19.82 37.37 19.74 37.27 19.65C36.92 19.98 36.57 20.31 36.21 20.63Z" fill="#FF9700"/>
<path d="M42.5899 22.87C42.6199 22.85 42.6499 22.82 42.6699 22.8C42.7799 22.71 42.8799 22.61 42.9899 22.52C43.0099 22.5 43.0399 22.48 43.0599 22.45C43.1399 22.37 43.2199 22.3 43.2999 22.22C43.3599 22.16 43.4199 22.1 43.4799 22.04C43.5099 22.01 43.5299 21.98 43.5599 21.95C43.5999 21.91 43.6399 21.87 43.6799 21.82C43.7799 21.71 43.8799 21.6 43.9699 21.49C44.0499 21.39 44.1299 21.3 44.2099 21.2C44.3399 21.04 44.4599 20.88 44.5799 20.72C44.5899 20.7 44.6099 20.68 44.6199 20.66C44.6899 20.56 44.7599 20.46 44.8299 20.36C44.8899 20.28 44.9399 20.19 44.9899 20.11C45.0199 20.07 45.0399 20.03 45.0699 19.99C45.1099 19.93 45.1399 19.87 45.1799 19.81C45.2399 19.7 45.3099 19.59 45.3699 19.48C45.3899 19.44 45.4099 19.41 45.4299 19.37C45.4399 19.35 45.4499 19.33 45.4599 19.31C45.5399 19.16 45.6199 19.01 45.6899 18.85C45.7299 18.76 45.7699 18.67 45.8099 18.59C45.9199 18.35 46.0199 18.11 46.1099 17.87C46.1299 17.81 46.1499 17.75 46.1699 17.7C46.2199 17.56 46.2599 17.43 46.3099 17.29C46.3199 17.25 46.3299 17.22 46.3399 17.18C46.3699 17.08 46.3999 16.98 46.4299 16.88C46.4299 16.87 46.4399 16.85 46.4399 16.84C46.4599 16.77 46.4699 16.7 46.4899 16.62C46.5099 16.55 46.5199 16.49 46.5399 16.42C46.5599 16.35 46.5699 16.28 46.5799 16.21C46.6099 16.08 46.6299 15.94 46.6499 15.81C46.6499 15.78 46.6599 15.76 46.6599 15.73C46.6799 15.6 46.6999 15.46 46.7199 15.33C46.9299 13.55 46.6999 11.58 45.6799 10.05C45.9799 10.03 46.2899 9.94004 46.5699 9.85004C46.5699 9.76004 46.6799 9.72004 46.7799 9.68004C46.8699 9.65004 46.9799 9.57003 46.9299 9.49003C46.8999 9.44003 46.8199 9.41004 46.8399 9.35004C46.8499 9.33004 46.8699 9.32004 46.8899 9.30004C47.0899 9.16004 47.1799 8.93003 47.1999 8.70003C47.2199 8.47003 47.1699 8.25004 47.1199 8.02004C47.0999 7.91004 47.0699 7.80003 47.0499 7.69003C47.0099 7.50003 46.9299 7.27004 46.7099 7.21004C46.7299 7.05004 46.6499 6.89003 46.5199 6.78003C46.4399 6.71003 46.3899 6.75003 46.3099 6.73003C46.1899 6.71003 46.0999 6.65004 45.9899 6.59004C45.7699 6.48004 45.4999 6.49004 45.2499 6.50004C45.1799 6.50004 45.1099 6.51004 45.0599 6.55004C44.9099 6.50004 44.7199 6.45004 44.5899 6.54004C44.5399 6.57004 44.5099 6.62003 44.4699 6.65003C44.3499 6.74003 44.1599 6.76003 44.0699 6.87003C43.9499 7.02003 43.9299 7.09004 43.7299 7.17004C43.6399 7.21004 43.5399 7.24004 43.4799 7.31004C43.3999 7.40004 43.3699 7.53004 43.3399 7.63004C43.3399 7.64004 43.3399 7.65003 43.3399 7.65003C39.1599 4.88003 32.2499 5.39003 27.9999 8.40003C27.6599 8.64003 27.3699 8.87003 27.1199 9.11003C26.8299 9.06003 26.5799 9.07003 26.3899 9.15003C26.1299 9.14003 25.9199 9.18004 25.7599 9.29004C25.2399 9.66004 24.3299 11.4 23.9399 11.68C23.6199 11.91 23.5799 12.41 23.7699 13.1C23.9699 14.61 25.7899 17.5 28.5099 20.46C31.2299 23.43 34.0599 25.6 35.6899 26.1C36.4199 26.41 36.9799 26.48 37.3099 26.25C37.6999 25.97 39.8299 25.57 40.3499 25.2C40.5099 25.09 40.5999 24.91 40.6399 24.69C40.7699 24.54 40.8399 24.34 40.8399 24.07C40.9299 24.02 41.0099 23.97 41.0999 23.92C41.1499 23.89 41.1899 23.86 41.2399 23.83C41.3099 23.79 41.3899 23.74 41.4599 23.69C41.5799 23.61 41.6899 23.54 41.8099 23.46C41.9999 23.32 42.1899 23.18 42.3799 23.03C42.4299 22.99 42.4799 22.95 42.5299 22.91C42.5499 22.9 42.5699 22.89 42.5899 22.87Z" fill="#A03607"/>
<path d="M41.5899 5.48004C41.6599 5.35004 41.8299 5.32004 41.9299 5.21004C41.9699 5.17004 41.9899 5.12004 42.0299 5.08004C42.1399 4.98004 42.3099 5.01004 42.4599 5.05004C42.4999 5.00004 42.5699 4.99004 42.6299 4.98004C42.8599 4.94004 43.0999 4.91004 43.3099 5.00004C43.4199 5.05004 43.4999 5.10004 43.6199 5.11004C43.6999 5.12004 43.7399 5.08004 43.8199 5.14004C43.9499 5.24004 44.0299 5.40004 44.0299 5.57004C44.2299 5.61004 44.3199 5.84004 44.3799 6.04004C44.4099 6.15004 44.4399 6.26004 44.4799 6.38004C44.5499 6.61004 44.6099 6.84004 44.6099 7.07004C44.6099 7.31004 44.5499 7.55004 44.3799 7.72004C44.3599 7.74004 44.3499 7.75005 44.3399 7.77005C44.3299 7.83004 44.4099 7.85004 44.4399 7.90004C44.4899 7.98004 44.3999 8.07004 44.3199 8.11004C44.2399 8.15004 44.1299 8.21004 44.1399 8.30004C43.7299 8.49004 43.2699 8.69004 42.8299 8.58004C42.6999 8.55004 42.5799 8.48004 42.4399 8.46004C42.3599 8.45004 42.2799 8.45004 42.1999 8.42004C41.9999 8.36004 41.8799 8.17004 41.7099 8.05004C41.5099 7.91004 41.2899 7.81004 41.1599 7.58004C41.1099 7.49004 41.0699 7.39004 41.0599 7.28004C41.0599 7.24004 41.0599 7.20004 41.0399 7.17004C41.0299 7.15004 40.9999 7.14004 40.9899 7.12004C40.9299 7.04004 41.0199 6.93004 41.0399 6.84004C41.0699 6.67004 40.9599 6.52004 40.9799 6.34004C40.9899 6.23004 41.0099 6.09004 41.0799 5.99004C41.1299 5.91004 41.2199 5.87004 41.2999 5.82004C41.4799 5.72004 41.4999 5.65004 41.5899 5.48004Z" fill="#007F43"/>
<path d="M41.5899 5.48004C41.6599 5.35004 41.8299 5.32004 41.9299 5.21004C41.9699 5.17004 41.9899 5.12004 42.0299 5.08004C42.1399 4.98004 42.3099 5.01004 42.4599 5.05004C42.4999 5.00004 42.5699 4.99004 42.6299 4.98004C42.8599 4.94004 43.0999 4.91004 43.3099 5.00004C43.4199 5.05004 43.4999 5.10004 43.6199 5.11004C43.6999 5.12004 43.7399 5.08004 43.8199 5.14004C43.9499 5.24004 44.0299 5.40004 44.0299 5.57004C44.2299 5.61004 44.3199 5.84004 44.3799 6.04004C44.4099 6.15004 44.4399 6.26004 44.4799 6.38004C44.5499 6.61004 44.6099 6.84004 44.6099 7.07004C44.6099 7.31004 44.5499 7.55004 44.3799 7.72004C44.3599 7.74004 44.3499 7.75005 44.3399 7.77005C44.3299 7.83004 44.4099 7.85004 44.4399 7.90004C44.4899 7.98004 44.3999 8.07004 44.3199 8.11004C44.2399 8.15004 44.1299 8.21004 44.1399 8.30004C43.7299 8.49004 43.2699 8.69004 42.8299 8.58004C42.6999 8.55004 42.5799 8.48004 42.4399 8.46004C42.3599 8.45004 42.2799 8.45004 42.1999 8.42004C41.9999 8.36004 41.8799 8.17004 41.7099 8.05004C41.5099 7.91004 41.2899 7.81004 41.1599 7.58004C41.1099 7.49004 41.0699 7.39004 41.0599 7.28004C41.0599 7.24004 41.0599 7.20004 41.0399 7.17004C41.0299 7.15004 40.9999 7.14004 40.9899 7.12004C40.9299 7.04004 41.0199 6.93004 41.0399 6.84004C41.0699 6.67004 40.9599 6.52004 40.9799 6.34004C40.9899 6.23004 41.0099 6.09004 41.0799 5.99004C41.1299 5.91004 41.2199 5.87004 41.2999 5.82004C41.4799 5.72004 41.4999 5.65004 41.5899 5.48004Z" fill="#00B34C"/>
<path d="M41.6799 6.70004C41.8799 6.78004 41.9699 7.04004 42.1699 7.10004C42.2899 7.13004 42.4199 7.09004 42.4899 6.99004C42.5399 7.09004 42.5899 7.18004 42.6499 7.28004C42.6799 7.33004 42.7099 7.38004 42.7499 7.41004C42.7999 7.44004 42.8699 7.44004 42.8999 7.39004C42.9799 7.46004 43.0899 7.49004 43.1899 7.48004C43.1999 7.41004 43.2099 7.33004 43.2099 7.25004C43.3099 7.31004 43.4699 7.24004 43.4799 7.12004C43.4899 7.06004 43.4699 6.99004 43.5199 6.96004C43.5499 6.95004 43.5799 6.95004 43.6099 6.96004C43.7399 6.97004 43.8499 6.83004 43.8099 6.70004C43.8799 6.70004 43.9399 6.71004 44.0099 6.71004C44.0299 6.71004 44.0399 6.71004 44.0599 6.70004C44.0899 6.68004 44.0699 6.63004 44.0699 6.60004C44.0599 6.52004 44.1499 6.47004 44.2099 6.42004C44.2699 6.38004 44.3399 6.31004 44.3099 6.23004C44.3299 6.33004 44.3899 6.41004 44.4299 6.50004C44.4799 6.64004 44.4999 6.81004 44.4999 6.96004C44.4999 7.20004 44.4399 7.44004 44.2699 7.61004C44.2499 7.63004 44.2399 7.64004 44.2299 7.66004C44.2199 7.72004 44.2999 7.74004 44.3299 7.79004C44.3799 7.87004 44.2899 7.96004 44.2099 8.00004C44.1299 8.04004 44.0199 8.10004 44.0299 8.19004C43.6199 8.38004 43.1599 8.58004 42.7199 8.47004C42.5899 8.44004 42.4699 8.37004 42.3299 8.35004C42.2499 8.34004 42.1699 8.34004 42.0899 8.31004C41.8899 8.25004 41.7699 8.06004 41.5999 7.94004C41.4499 7.83004 41.2099 7.73004 41.1299 7.55004C41.0499 7.37004 41.1099 7.14004 41.2499 7.01004C41.2599 7.00004 41.2799 6.99004 41.2999 6.98004C41.3399 6.97004 41.3699 7.00004 41.3899 7.03004C41.4099 7.06004 41.4199 7.10004 41.4299 7.13004C41.4799 7.22004 41.5999 7.24004 41.7099 7.24004C41.7299 7.24004 41.7499 7.24004 41.7599 7.23004C41.7699 7.22004 41.7699 7.20004 41.7799 7.18004C41.7899 7.07004 41.7999 6.95004 41.7399 6.85004C41.7199 6.84004 41.6499 6.77004 41.6799 6.70004Z" fill="#02A544"/>
<path d="M41.6199 5.61005C41.6899 5.48005 41.8599 5.45005 41.9599 5.34005C41.9999 5.30005 42.0199 5.25005 42.0599 5.21005C42.1699 5.11005 42.3399 5.14005 42.4899 5.18005C42.5299 5.13005 42.5999 5.12005 42.6599 5.11005C42.8899 5.07005 43.1299 5.04005 43.3399 5.13005C43.4499 5.18005 43.5299 5.23005 43.6499 5.24005C43.7299 5.25005 43.7699 5.21005 43.8499 5.27005C43.9999 5.38005 43.9999 5.55005 44.0999 5.68005C44.2199 5.84005 44.2799 5.90005 44.2999 6.11005C44.2899 5.97005 44.1399 5.87005 43.9999 5.90005C43.9999 6.01005 43.9999 6.13005 44.0099 6.24005C43.9199 6.26005 43.7999 6.27005 43.7799 6.18005C43.7699 6.14005 43.7899 6.10005 43.7899 6.06005C43.7899 6.02005 43.7499 5.98005 43.7199 6.00005C43.7499 5.91005 43.7799 5.82005 43.7999 5.72005C43.8099 5.69005 43.8099 5.66005 43.7999 5.64005C43.7799 5.61005 43.7399 5.60005 43.6999 5.60005C43.6499 5.60005 43.5999 5.59005 43.5399 5.59005C43.5099 5.59005 43.4799 5.59005 43.4499 5.60005C43.4199 5.61005 43.4099 5.65005 43.4199 5.67005C43.3799 5.59005 43.3099 5.52005 43.2299 5.47005C43.1999 5.46005 43.1699 5.44005 43.1399 5.45005C43.0799 5.45005 43.0399 5.51005 43.0299 5.56005C43.0199 5.61005 43.0299 5.67005 43.0399 5.72005C42.9499 5.67005 42.8399 5.66005 42.7399 5.67005C42.7199 5.67005 42.6999 5.68005 42.6799 5.70005C42.6699 5.71005 42.6699 5.73005 42.6699 5.75005C42.6699 5.83005 42.6599 5.92005 42.6599 6.00005C42.5999 6.00005 42.5399 5.98005 42.4799 5.99005C42.4199 6.00005 42.3599 6.05005 42.3599 6.11005C42.1799 6.00005 42.0099 5.87005 41.8299 5.75005C41.8099 5.81005 41.7699 5.88005 41.7399 5.93005C41.7299 5.95005 41.7199 5.97005 41.6999 5.97005C41.6599 5.98005 41.6299 5.93005 41.5899 5.91005C41.5199 5.87005 41.4299 5.93005 41.3699 5.99005C41.2599 6.10005 41.1599 6.21005 41.0499 6.32005C41.0599 6.11005 41.1599 6.04005 41.3299 5.93005C41.5099 5.85005 41.5199 5.78005 41.6199 5.61005Z" fill="#1BE06A"/>
<path d="M27.01 8.58006C22.91 12.5701 26.36 15.4401 30.21 19.3901C34.06 23.3401 36.85 26.8501 40.96 22.8601C45.07 18.8701 46.28 11.4601 42.43 7.52006C38.58 3.58006 31.11 4.59006 27.01 8.58006Z" fill="#00B34C"/>
<path d="M31.99 20.7601C33.3 22.1501 34.27 23.7401 36.17 24.3901C37.99 25.0101 39.65 24.1101 40.95 22.8501C42.93 20.9201 44.21 18.2801 44.62 15.5501C44.99 13.0801 44.68 9.89007 42.86 7.99007C42.64 7.76007 42.42 7.50007 42.17 7.32007C41.86 7.60007 42.47 9.20007 42.49 9.70007C42.51 10.2301 42.46 10.7701 42.32 11.2901C42.07 12.1701 41.54 12.9401 41.02 13.6901C40.51 14.4201 40 15.1701 39.31 15.7301C38.69 16.2401 37.92 16.6101 37.48 17.2801C37.42 17.3801 37.36 17.4801 37.27 17.5501C37.15 17.6301 37 17.6401 36.85 17.6401C34.48 17.7001 32.11 17.4901 29.79 17.0201C30.43 18.3701 30.96 19.6601 31.99 20.7601Z" fill="#02A544"/>
<path d="M28.4699 9.23007C28.8199 9.01007 29.1699 8.79007 29.5199 8.57007C30.1999 8.14007 30.8999 7.71007 31.6899 7.60007C31.9299 7.57007 32.1799 7.56007 32.3799 7.43007C32.6199 7.27007 32.7099 6.96007 32.9399 6.78007C33.2999 6.48007 33.8199 6.60007 34.2899 6.59007C35.1099 6.56007 35.8399 6.05007 36.6399 5.88007C37.4399 5.70007 38.2799 5.86007 39.0899 6.01007C37.8199 5.32007 36.2599 5.30007 34.8599 5.42007C32.0699 5.66007 29.2999 6.83007 27.2699 8.78007C27.2499 8.80007 27.2299 8.82007 27.2099 8.83007C26.6199 9.41007 26.1499 10.0101 25.9399 10.8301C26.7799 10.2901 27.6199 9.76007 28.4699 9.23007Z" fill="#1BE06A"/>
<path d="M32.46 9.87004C32.63 9.79004 32.78 9.66004 32.87 9.49004C32.9 9.42004 32.93 9.35004 32.98 9.30004C33.02 9.25004 33.08 9.22004 33.13 9.20004C33.53 8.99004 33.93 8.77004 34.34 8.56004C34.42 8.52004 34.5 8.48004 34.59 8.49004C34.7 8.51004 34.81 8.62004 34.91 8.57004C34.94 8.34004 34.91 8.10004 34.83 7.88004C35.02 7.91004 35.22 7.86004 35.37 7.75004C35.45 7.69004 35.53 7.61004 35.62 7.62004C35.67 7.62004 35.72 7.66004 35.77 7.69004C35.94 7.81004 36.1 7.93004 36.27 8.06004C36.25 7.93004 36.35 7.80004 36.48 7.75004C36.6 7.69004 36.74 7.67004 36.86 7.61004C36.95 7.57004 37.03 7.50004 37.11 7.44004C37.24 7.35004 37.38 7.28004 37.52 7.22004C38.41 6.81004 39.33 6.45004 40.26 6.15004C39.68 6.12004 39.1 6.08004 38.53 6.13004C38 6.18004 37.55 6.38004 37.05 6.50004C35.75 6.81004 34.49 7.32004 33.34 8.02004C32.54 8.51004 31.84 9.15004 31.16 9.79004C30.83 10.1 30.51 10.49 30.13 10.73C30 10.82 29.85 10.85 29.73 10.96C29.68 11 29.35 11.44 29.34 11.43C29.66 11.52 29.92 11.75 30.19 11.95C30.46 12.14 30.8 12.3 31.12 12.2C31.05 11.86 31.03 11.51 31.05 11.17C31.06 11.06 31.07 10.95 31.12 10.85C31.24 10.61 31.54 10.5 31.64 10.26C31.69 10.15 31.71 10 31.82 9.96004C31.87 9.94004 31.93 9.96004 31.98 9.97004C32.13 9.97004 32.3 9.94004 32.46 9.87004Z" fill="#1BE06A"/>
<path d="M41.66 7.42004C41.29 7.56004 40.92 7.60004 40.54 7.68004C40.19 7.75004 39.86 7.93004 39.54 8.08004C38.64 8.49004 37.73 8.90004 36.83 9.31004C36.59 9.42004 36.35 9.53004 36.14 9.69004C35.93 9.84004 35.76 10.04 35.6 10.23C35.3 10.57 35.01 10.92 34.72 11.27C34.5 11.54 34.27 11.81 34.05 12.07C33.93 12.21 33.81 12.35 33.7 12.5C33.54 12.7 33.4 12.92 33.26 13.13C33.16 13.29 32.87 13.62 32.85 13.81C32.83 14.11 33.8 14.5 34.07 14.66C34.01 14.55 33.95 14.44 33.93 14.31C33.88 14.01 34.08 13.73 34.3 13.53C34.52 13.33 34.79 13.17 34.97 12.93C35.11 12.74 35.19 12.51 35.33 12.32C35.59 11.99 36.03 11.85 36.32 11.55C36.36 11.51 36.39 11.47 36.4 11.41C36.41 11.36 36.39 11.32 36.39 11.27C36.37 11.05 36.76 10.78 36.91 10.62C37.14 10.32 37.56 10.02 37.9 9.88004C38.31 9.70004 38.66 9.46004 39.04 9.21004C39.24 9.08004 39.46 8.94004 39.71 8.95004C39.9 8.96004 40.08 9.06004 40.18 9.22004C40.24 9.00004 40.13 8.75004 39.93 8.64004C39.88 8.61004 39.82 8.58004 39.83 8.53004C39.83 8.49004 39.86 8.47004 39.89 8.44004C40.41 8.01004 41.02 7.67004 41.66 7.42004Z" fill="#1BE06A"/>
<path d="M40.9499 22.8501C39.4699 24.2901 38.1599 24.7501 36.9099 24.5701C38.3799 23.7501 39.6899 22.8301 40.6599 21.8901C43.3899 19.2401 44.9599 14.9901 44.4999 11.4301C45.3799 15.2901 43.9199 19.9701 40.9499 22.8501Z" fill="#007F43"/>
<path d="M38.9599 19.9101C37.4099 21.2701 36.1099 21.7001 34.9199 21.5101C36.4099 20.7401 37.7499 19.8701 38.7599 18.9801C39.4099 18.4101 40.0099 17.7701 40.5399 17.0801C40.7799 16.7701 40.9799 16.3201 41.2699 16.0601C41.4699 15.8701 41.7899 15.7301 41.3599 15.5001C41.2099 15.4201 41.0899 15.3001 40.9899 15.1601C41.0899 15.1401 41.1899 15.2401 41.2899 15.2101C41.3299 15.2001 41.3599 15.1801 41.3899 15.1501C41.5999 14.9701 41.8199 14.7901 42.0299 14.6201C42.3299 14.3701 42.4799 13.7301 42.6199 13.3701C42.7199 13.1201 42.7899 12.8601 42.8799 12.6101C42.9499 12.4101 42.9599 12.2001 43.0299 12.0001C43.0399 11.9801 43.0399 11.9601 43.0399 11.9401C43.0399 11.9201 43.0299 11.9101 43.0199 11.8901C42.9399 11.7601 42.8599 11.6201 42.7899 11.4801C42.8399 11.5201 42.8799 11.5701 42.9299 11.6001C43.1399 11.7401 43.1799 11.4501 43.2199 11.3101C43.2799 11.0701 43.3099 10.8101 43.3399 10.5601C43.3999 10.0601 43.4299 9.5501 43.4099 9.0401C43.4199 9.1901 43.4499 9.3401 43.4599 9.4801C43.5099 10.0401 43.4999 10.6101 43.4499 11.1701C43.4099 11.6201 43.2199 12.2401 43.3399 12.6801C43.3699 12.8001 43.4299 12.9101 43.4299 13.0301C43.0799 12.6501 42.8999 13.8601 42.8199 14.0801C42.5499 14.8601 42.2199 15.6101 41.8199 16.3301C41.4399 17.0101 40.7999 17.6301 40.9099 18.4601C40.9099 18.4901 40.9199 18.5201 40.9099 18.5501C40.8999 18.5701 40.8799 18.5901 40.8599 18.6001C40.8199 18.6401 40.7699 18.6701 40.7399 18.7201C40.7099 18.7701 40.7199 18.8401 40.7699 18.8701C40.7199 18.8701 40.7099 18.9301 40.7099 18.9801C40.7099 19.1601 40.7499 19.3301 40.8099 19.4901C40.5699 19.2901 40.3699 19.0301 40.2399 18.7401C39.7799 19.1001 39.3899 19.5301 38.9599 19.9101Z" fill="#007F43"/>
<path d="M42.22 7.82007C42.1 8.38007 42.04 8.94007 41.86 9.49007C41.69 10.0401 41.47 10.5401 41.36 11.1001C41.33 11.2501 41.3299 11.4101 41.4199 11.5301C41.4499 11.5601 41.4599 11.5901 41.4599 11.6401C41.1899 11.5801 41.0899 11.4401 40.8899 11.7201C40.6799 12.0101 40.53 12.3501 40.33 12.6401C39.96 13.2001 39.55 13.7601 39.08 14.2401C38.67 14.6601 38.7899 14.9701 38.9199 15.5301C38.7699 15.5101 38.63 15.4301 38.52 15.3201C38.49 15.2901 38.46 15.2501 38.41 15.2301C38.29 15.1801 37.9799 15.4601 37.8699 15.5201C37.5999 15.6701 37.3699 15.8901 37.1199 16.0801C36.5899 16.4901 36.02 16.8701 35.43 17.2001C33.63 18.2101 32.29 18.3901 31.2 18.0201C32.8 17.5501 34.2899 16.9601 35.4599 16.3001C35.9799 16.0101 36.43 15.8001 36.86 15.3801C36.67 15.2301 36.58 15.0001 36.47 14.7901C36.32 14.5101 36.15 14.2401 35.95 14.0001C36.16 13.9801 36.33 14.1701 36.47 14.3201C36.66 14.5201 36.89 14.7701 37.15 14.8701C37.67 15.0701 38.3999 14.1201 38.7099 13.8101C38.8699 13.6501 39.04 13.5001 39.2 13.3501C38.96 13.1401 38.77 12.8701 38.65 12.5801C38.69 12.5901 38.73 12.6101 38.77 12.6201C38.92 12.6801 39.09 12.7301 39.25 12.6901C39.39 12.6501 39.54 12.5501 39.65 12.6401C39.68 12.6601 39.71 12.7001 39.75 12.7001C39.77 12.7001 39.8 12.6801 39.81 12.6701C40 12.4901 40.16 12.1501 40.31 11.9401C40.7 11.3901 41.01 10.7601 41.4 10.2301C41.44 10.1801 41.4199 10.1101 41.3899 10.0601C41.32 9.87007 41.2399 9.68007 41.1699 9.49007C41.2599 9.55007 41.35 9.61007 41.43 9.67007C41.44 9.68007 41.4499 9.68007 41.4599 9.68007C41.4699 9.68007 41.48 9.67007 41.49 9.66007C41.94 9.21007 42.09 8.44007 42.22 7.82007Z" fill="#007F43"/>
<path d="M31.84 8.54009C31.61 8.70009 31.38 8.87009 31.16 9.04009C30.96 9.20009 30.85 9.32009 30.57 9.21009C30.43 9.15009 30.31 9.06009 30.18 8.97009C30.05 8.88009 29.91 8.82008 29.75 8.82008C30.05 9.09008 30.37 9.34009 30.69 9.58009C30.54 9.73009 30.36 9.77009 30.19 9.88009C30 10.0101 29.83 10.2301 29.68 10.4001C28.28 11.9101 27.82 13.2001 27.97 14.3801C28.78 12.9101 29.69 11.6001 30.6 10.6101C30.84 10.3501 31.0899 10.1001 31.3499 9.86008C31.4699 9.75008 31.58 9.62009 31.71 9.54009C31.76 9.50009 31.82 9.49009 31.87 9.46009C31.9 9.45009 31.9999 9.34009 32.0099 9.34009C32.1699 9.33009 32.3 9.45008 32.41 9.57008C32.61 9.78008 32.8099 9.98008 33.0099 10.1901C32.8599 10.0501 32.71 9.90009 32.63 9.71009C32.54 9.49009 32.54 9.23009 32.4 9.04009C32.43 9.00009 33.12 8.47008 33.14 8.49008C33.15 8.50008 33.85 8.05009 33.93 8.02009C34.03 7.98009 34.0999 7.95009 34.1899 7.87009C34.2999 7.77009 34.37 7.78009 34.49 7.72009C34.54 7.69009 34.57 7.64008 34.63 7.61008C34.75 7.72008 34.88 7.90009 35.04 7.95009C35.08 7.96009 35.12 7.97009 35.16 7.99009C35.19 8.01008 35.21 8.03009 35.23 8.06009C35.31 8.16009 35.39 8.25009 35.47 8.35009C35.42 8.05009 35.2999 7.77009 35.1199 7.52009C35.4 7.40009 35.63 7.20009 35.9 7.08009C36.21 6.95009 36.54 6.85009 36.86 6.75009C37.04 6.70009 37.28 6.58008 37.47 6.61008C37.55 6.62008 37.61 6.67009 37.6899 6.67009C37.7699 6.68009 37.89 6.60009 37.95 6.67009C38.03 6.76009 38.12 6.85009 38.21 6.92009C38.23 6.79009 38.15 6.66008 38.14 6.53008C38.14 6.52008 38.14 6.51009 38.15 6.50009C38.16 6.49009 38.1699 6.48008 38.1899 6.48008C38.29 6.46008 38.36 6.40009 38.45 6.37009C38.55 6.34009 38.68 6.33008 38.79 6.32008C39.01 6.29008 39.23 6.27009 39.45 6.25009C39.85 6.22009 40.31 6.18008 40.71 6.24008C40.05 6.13008 39.37 6.10009 38.7 6.14009C38.05 6.17009 37.44 6.13009 36.81 6.34009C36.78 6.35009 36.75 6.36008 36.72 6.36008C36.69 6.36008 36.66 6.34009 36.64 6.33009C36.52 6.26009 36.39 6.20009 36.27 6.13009C36.26 6.27009 36.34 6.55008 36.2 6.61008C36.14 6.63008 36.04 6.60008 35.97 6.61008C35.86 6.63008 35.74 6.68009 35.63 6.71009C35.19 6.85009 34.75 7.01008 34.33 7.19008C34.05 7.31008 33.77 7.44009 33.49 7.58009C33.34 7.65009 33.2 7.73009 33.06 7.81009C32.95 7.87009 32.86 7.98009 32.73 7.95009C32.66 7.93009 32.6 7.90008 32.55 7.86008C32.42 7.78008 32.2999 7.70009 32.1699 7.62009C32.1799 7.77009 32.24 7.93009 32.34 8.05009C32.48 8.27009 31.96 8.46009 31.84 8.54009Z" fill="#007F43"/>
<path d="M37.4399 8.56009C37.6199 8.99009 36.9699 9.31009 36.6599 9.43009C36.2599 9.59009 35.9299 9.93009 35.5299 10.0301C35.3699 10.0701 35.1799 9.99009 35.0999 9.84009C35.0799 10.0201 35.2199 10.1701 35.3399 10.3101C35.3499 10.3201 35.3599 10.3401 35.3599 10.3601C35.3599 10.3801 35.3499 10.4001 35.3299 10.4201C34.8899 10.8901 34.3699 11.3101 33.9299 11.7901C33.7099 12.0301 33.6299 12.4201 33.2599 12.2901C33.0799 12.2301 32.9099 12.1401 32.7399 12.0601C32.6299 12.0001 32.5099 11.9401 32.3899 11.9501C32.5599 12.2001 32.7499 12.4301 32.9799 12.6401C32.9999 12.6601 33.0299 12.6801 33.0299 12.7101C33.0299 12.7301 33.0199 12.7501 33.0099 12.7701C32.8099 13.2101 32.5399 13.5901 32.2899 14.0001C31.2299 15.7701 31.0099 17.1001 31.3499 18.2001C31.8599 16.6101 32.4899 15.1501 33.1799 13.9901C33.5899 13.3001 34.0199 12.5901 34.5999 12.0301C34.8499 11.7901 35.0299 11.5301 35.3299 11.7801C35.4699 11.9001 35.8299 12.2001 35.8699 12.3801C35.7999 12.0801 35.5899 11.7901 35.6199 11.4801C35.6299 11.3501 35.6899 11.2301 35.7399 11.1101C35.9199 10.7001 36.0899 10.5101 36.4399 10.2201C36.6499 10.0401 36.9699 9.58009 37.2599 9.82009C37.3599 9.90009 37.4299 10.0201 37.5399 10.1001C37.2599 9.41009 37.9699 9.07009 38.4699 8.79009C38.7299 8.64009 38.9899 8.63009 39.2799 8.57009C39.5299 8.52009 39.4699 8.49009 39.6799 8.71009C39.8299 8.87009 39.9999 9.01009 40.1699 9.15009C40.0499 8.82009 39.8399 8.53009 39.5799 8.29009C39.6399 8.16009 39.9099 8.11009 40.0299 8.05009C40.2199 7.96009 40.4199 7.87009 40.6199 7.80009C41.0099 7.67009 41.4599 7.50009 41.8799 7.47009C41.6999 7.49009 41.5199 7.51009 41.3499 7.53009C41.0899 7.57009 40.8299 7.62009 40.5699 7.68009C40.4399 7.71009 40.3499 7.74009 40.2499 7.81009C40.1599 7.88009 40.0799 7.94009 39.9499 7.90009C39.8299 7.86009 39.7399 7.76009 39.6499 7.67009C39.5899 7.60009 39.5299 7.54009 39.4699 7.47009C39.4599 7.61009 39.4999 7.73009 39.5199 7.87009C39.5399 8.01009 39.5099 8.02009 39.3899 8.05009C39.0999 8.13009 38.8299 8.25009 38.5599 8.37009C38.3899 8.45009 38.0499 8.71009 37.8599 8.66009C37.7799 8.64009 37.7099 8.58009 37.6499 8.51009C37.5499 8.40009 37.4499 8.30009 37.3499 8.19009C37.3299 8.33009 37.3899 8.44009 37.4399 8.56009Z" fill="#007F43"/>
<path d="M39.8947 24.362C40.8942 23.3856 38.4756 19.289 34.4928 15.2121C30.5099 11.1352 26.4709 8.62177 25.4715 9.59819C24.472 10.5746 26.8905 14.6711 30.8734 18.748C34.8562 22.825 38.8952 25.3384 39.8947 24.362Z" fill="#A03607"/>
<path d="M25.03 9.72008C26.05 8.72008 30.18 11.2901 34.24 15.4501C38.3 19.6101 40.77 23.7901 39.75 24.7901C39.3 25.2201 37.39 25.8501 37.05 26.1801C36.11 27.0901 32.33 24.7401 28.61 20.9301C24.89 17.1201 22.63 13.2901 23.57 12.3801C23.91 12.0501 24.59 10.1501 25.03 9.72008Z" fill="#F24506"/>
<path d="M36.34 19.8101C36.49 19.6201 36.63 19.4201 36.76 19.2101C36.32 18.9701 36.01 18.5601 35.7 18.1701C35.58 18.0201 35.46 17.8701 35.3 17.7601C35.19 17.6801 35.07 17.6201 34.96 17.5401C34.94 17.5301 34.92 17.5101 34.91 17.4901C34.9 17.4601 34.91 17.4401 34.92 17.4101C35.01 17.2001 35.1 16.9901 35.19 16.7801C34.98 16.8001 34.78 16.8601 34.59 16.9401C34.51 16.9801 34.42 17.0201 34.34 16.9901C34.3 16.9801 34.27 16.9501 34.23 16.9201C34.14 16.8501 34.05 16.7701 33.96 16.7001C33.92 16.6701 33.88 16.6401 33.86 16.6001C33.84 16.5601 33.84 16.5101 33.84 16.4601C33.85 16.2601 33.85 16.0501 33.86 15.8501C33.7 15.8701 33.48 15.9501 33.33 15.9301C33.21 15.9101 33.15 15.8101 33.06 15.7401C32.91 15.6201 32.62 15.5201 32.63 15.2901C32.63 15.2501 32.65 15.2101 32.66 15.1601C32.72 14.9901 32.79 14.8301 32.85 14.6601C32.63 14.7801 32.44 14.9601 32.3 15.1601C32.07 14.9001 31.77 14.7001 31.43 14.6101C31.63 14.3101 31.77 13.9701 31.84 13.6201C31.64 13.7601 31.44 13.9001 31.24 14.0401C31.18 14.0801 31.11 14.1301 31.03 14.1201C30.99 14.1101 30.95 14.0901 30.92 14.0701C30.73 13.9501 30.58 13.7901 30.43 13.6301C30.34 13.5401 30.09 13.4601 30.05 13.3401C30.02 13.2301 30.24 12.9001 30.28 12.7901C30.35 12.6101 30.42 12.4301 30.49 12.2401C30.19 12.4301 29.91 12.6601 29.66 12.9001C29.64 12.9201 29.62 12.9401 29.6 12.9401C29.58 12.9501 29.56 12.9401 29.54 12.9401C29.32 12.9201 29.16 12.8001 28.96 12.6901C28.76 12.5901 28.55 12.5001 28.34 12.4201C28.25 12.3901 27.89 12.2001 27.8 12.2701C27.9 12.1901 27.95 12.0801 28.01 11.9701C28.13 11.7201 28.25 11.4701 28.38 11.2101C28.33 11.3001 28.21 11.3401 28.12 11.4001C28 11.4801 27.92 11.6101 27.83 11.7201C27.73 11.8401 27.54 12.0601 27.38 12.0901C27.24 12.1201 27.02 12.0001 26.88 11.9601C26.83 11.9501 26.78 11.9301 26.76 11.8901C26.73 11.8501 26.74 11.7901 26.75 11.7401C26.84 11.2801 26.98 10.8201 26.92 10.3501C26.34 10.8501 26.02 11.6001 25.4 12.0601C25.25 12.1701 25.1 12.1801 24.94 12.2601C24.78 12.3401 24.62 12.4401 24.48 12.5601C24.2 12.7901 23.98 13.0801 23.86 13.4201C23.79 13.6201 23.76 13.8401 23.75 14.0701C23.48 13.3301 23.47 12.7701 23.75 12.4901C24.08 12.1701 24.75 10.3001 25.19 9.87006C26.2 8.89006 30.28 11.4201 34.3 15.5401C37.57 18.8901 39.8 22.2501 39.96 23.9201C39.95 23.7901 39.77 23.5801 39.7 23.4601C39.6 23.2901 39.5 23.1201 39.39 22.9501C39.16 22.5901 38.92 22.2301 38.67 21.8801C38.4 21.4901 38.11 21.1201 37.82 20.7501C37.68 20.5701 37.56 20.4001 37.44 20.2201C37.36 20.0901 37.19 19.9901 37.15 19.8501C37.12 19.7501 37.2 19.6001 37.12 19.5201C37.02 19.4201 36.81 19.5301 36.72 19.5901C36.62 19.6401 36.4 19.7301 36.34 19.8101Z" fill="#FF9700"/>
<path d="M37.15 19.0401C36.18 18.2001 35.31 17.1701 34.39 16.2701C33.89 15.7801 33.39 15.3001 32.89 14.8101C32.47 14.4001 32.05 13.9901 31.6 13.6001C30.88 12.9701 30.1 12.4101 29.3 11.8901C28.88 11.6201 28.45 11.3601 28.02 11.1101C27.84 11.0001 27.66 10.9001 27.48 10.7901C27.4 10.7401 27.32 10.7001 27.26 10.6301C27.17 10.5201 27.14 10.3801 27.06 10.2701C26.86 10.0001 26.45 10.0501 26.13 10.1401C25.65 10.2801 25.18 10.4801 24.75 10.7301C25.4 6.97006 33.48 14.7201 34.29 15.5401C34.88 16.1501 35.54 16.8201 36.07 17.4701C36.29 17.7401 36.51 18.0101 36.68 18.3101C36.84 18.6001 37.2 18.7801 37.26 19.1201C37.23 19.1101 37.19 19.0801 37.15 19.0401Z" fill="#FFA300"/>
<path d="M36.575 26.0534C37.4678 25.1812 35.3069 21.5214 31.7486 17.8791C28.1903 14.2367 24.5819 11.9911 23.6891 12.8633C22.7963 13.7355 24.9571 17.3953 28.5154 21.0376C32.0738 24.68 35.6821 26.9256 36.575 26.0534Z" fill="#A03607"/>
<path d="M39.6799 22.47L37.4099 23.92L37.2999 24.17L39.7499 22.84L39.6799 22.47Z" fill="#A03607"/>
<path d="M35.23 20.5L37.68 19.17L37.61 18.8L35.34 20.25L35.23 20.5Z" fill="#A03607"/>
<path d="M38.52 21.4701L38.43 21.3901L36.21 22.5601C35.71 21.6601 35.01 20.6501 34.15 19.6101L35.62 18.4001L35.53 18.3201L33.96 19.3401L33.97 19.4001C33.43 18.7501 32.84 18.0901 32.2 17.4401C32.19 17.4301 32.18 17.4201 32.17 17.4101L32.32 17.5101L33.75 15.9801L33.6 15.9101L32.11 17.3501C31.46 16.6901 30.8 16.0701 30.16 15.5201L30.25 15.5401L31.32 14.0001L31.24 13.9101L29.98 15.3501C28.93 14.4601 27.91 13.7301 27.02 13.2201L27.07 13.2301L28.31 11.0301L28.23 10.9401L26.76 13.0701C26.02 12.6701 25.38 12.4201 24.86 12.3501C26.49 12.8301 29.25 14.8401 31.99 17.6401C34.73 20.4401 36.66 23.2501 37.1 24.8901C37.04 24.3501 36.78 23.6501 36.36 22.8601L38.52 21.4701Z" fill="#A03607"/>
<path d="M33.34 18.3101L35.63 16.7301L35.53 16.3701L33.42 18.0401L33.34 18.3101Z" fill="#A03607"/>
<path d="M27.26 9.76005L26.89 9.68005L25.49 12.0801L25.75 11.9801L27.26 9.76005Z" fill="#A03607"/>
<path d="M30.88 11.92L30.52 11.84L29.12 14.24L29.37 14.14L30.88 11.92Z" fill="#A03607"/>
<path d="M31.53 16.1101L33.27 14.0601L32.91 13.9401L31.27 16.1901L31.53 16.1101Z" fill="#A03607"/>
<path d="M36.3799 25.47C35.1199 25.58 32.1499 23.6 29.2099 20.58C25.9799 17.27 23.9799 13.95 24.5999 12.98C24.5299 12.97 24.4699 12.97 24.4099 12.98C24.3799 13 24.3499 13.01 24.3299 13.03C23.4899 13.85 25.5199 17.3 28.8699 20.73C32.1199 24.05 35.3999 26.14 36.3799 25.52C36.3799 25.51 36.3799 25.49 36.3799 25.47Z" fill="#F24506"/>
<path d="M30.48 20.55C32.42 22.54 34.4 24.08 35.91 24.88C34.35 24.22 32.09 22.54 29.88 20.27C27.08 17.41 25.24 14.54 25.22 13.16C25.09 13.11 24.98 13.07 24.88 13.04C24.61 14.27 26.51 17.36 29.51 20.43C32.16 23.13 34.86 25.02 36.37 25.31C36.33 25.1 36.23 24.86 36.11 24.62C34.62 23.8 32.72 22.3 30.84 20.38C28.3 17.78 26.55 15.17 26.23 13.68C26.08 13.59 25.94 13.51 25.81 13.43C25.85 14.83 27.68 17.69 30.48 20.55Z" fill="#F24506"/>
<path d="M52.13 63.6H12.58C8.75002 63.6 5.65002 60.5 5.65002 56.67V55.72C5.65002 51.89 8.75002 48.79 12.58 48.79H52.12C55.95 48.79 59.05 51.89 59.05 55.72V56.67C59.06 60.5 55.95 63.6 52.13 63.6Z" fill="#02A544"/>
<path d="M51.88 49.5601C51.55 49.5001 51.2 49.4801 50.84 49.4801C48.98 49.4801 47.12 49.4801 45.25 49.4801C40.47 49.4801 35.69 49.4801 30.91 49.4801C26.35 49.4801 21.79 49.4801 17.23 49.4801C16.69 49.4801 16.14 49.5401 15.63 49.3701C16.2 50.2001 17.39 50.2401 18.4 50.2201C19.82 50.1901 21.25 50.2101 22.63 50.5001C24.02 50.7901 25.37 51.3701 26.4 52.3401C26.27 51.7901 26.14 51.2301 26.01 50.6801C25.99 50.6001 25.97 50.5001 26.03 50.4301C26.08 50.3801 26.15 50.3701 26.22 50.3701C27.02 50.3401 27.78 50.1801 28.56 50.1401C30.66 50.0301 32.84 49.8201 34.28 51.6501C34.25 51.4001 34.21 51.1501 34.18 50.8901C34.17 50.8001 34.16 50.7001 34.21 50.6201C34.28 50.5201 34.41 50.5101 34.53 50.5101C35.77 50.5001 37.02 50.4901 38.26 50.4901C38.88 50.4901 39.52 50.4901 40.09 50.7401C40.52 50.9401 40.88 51.2701 41.22 51.5901C41.39 51.3801 41.25 51.0601 41.31 50.7901C41.41 50.3701 41.94 50.2501 42.37 50.2101C43.21 50.1401 44.05 50.0701 44.89 50.1301C46.44 50.2401 47.94 50.8001 49.23 51.6601C49 51.2501 49.26 50.7101 49.66 50.4701C50.06 50.2301 50.55 50.2101 51.02 50.2001C52.39 50.1601 53.89 50.1701 54.93 51.0401C54 50.2601 53.02 49.7501 51.88 49.5601Z" fill="#1BE06A"/>
<path d="M20.95 48.79H19.66C23.49 48.79 26.59 51.89 26.59 55.72V56.67C26.59 60.5 23.49 63.6 19.66 63.6H20.95C24.78 63.6 27.88 60.5 27.88 56.67V55.72C27.89 51.89 24.78 48.79 20.95 48.79Z" fill="#007F43"/>
<path d="M28.67 48.79H27.38C31.21 48.79 34.31 51.89 34.31 55.72V56.67C34.31 60.5 31.21 63.6 27.38 63.6H28.67C32.5 63.6 35.6 60.5 35.6 56.67V55.72C35.61 51.89 32.5 48.79 28.67 48.79Z" fill="#007F43"/>
<path d="M36.4 48.79H35.11C38.94 48.79 42.04 51.89 42.04 55.72V56.67C42.04 60.5 38.94 63.6 35.11 63.6H36.4C40.23 63.6 43.33 60.5 43.33 56.67V55.72C43.33 51.89 40.23 48.79 36.4 48.79Z" fill="#007F43"/>
<path d="M44.1201 48.79H42.8301C46.6601 48.79 49.7601 51.89 49.7601 55.72V56.67C49.7601 60.5 46.6601 63.6 42.8301 63.6H44.1201C47.9501 63.6 51.0501 60.5 51.0501 56.67V55.72C51.0501 51.89 47.9501 48.79 44.1201 48.79Z" fill="#007F43"/>
<path d="M51.84 48.79H50.55C54.38 48.79 57.48 51.89 57.48 55.72V56.67C57.48 60.5 54.38 63.6 50.55 63.6H51.84C55.67 63.6 58.7701 60.5 58.7701 56.67V55.72C58.7701 51.89 55.67 48.79 51.84 48.79Z" fill="#007F43"/>
<path d="M58.9401 54.47C58.3501 57.7 55.5301 60.16 52.1201 60.16C51.6501 60.16 51.1801 60.16 50.7101 60.16C50.3101 60.16 49.9801 60.2 49.8901 59.72C49.8601 59.55 49.8701 59.38 49.8901 59.21C49.5401 59.47 49.1801 59.74 48.7901 59.93C47.8301 60.4 46.5601 60.16 45.5201 60.16C44.6701 60.16 43.8201 60.16 42.9701 60.16C42.7401 60.16 42.2901 60.26 42.1501 60.05C42.0801 59.94 42.1201 59.1 42.1701 58.98C42.0701 59.21 41.8101 59.33 41.5701 59.44C40.9701 59.7 40.3001 60.13 39.6601 60.17C38.9201 60.22 38.1601 60.17 37.4201 60.17C36.8901 60.17 36.3601 60.17 35.8301 60.17C35.5701 60.17 34.7701 60.34 34.6401 60.06C34.5901 59.95 34.6001 59.82 34.6201 59.7C34.6401 59.58 34.6601 59.45 34.6301 59.34C34.3401 59.49 34.0401 59.64 33.7501 59.79C33.6301 59.85 33.5101 59.91 33.3901 59.96C32.4601 60.32 31.2901 60.17 30.3101 60.17C29.3201 60.17 27.9701 60.45 27.1601 59.8C27.1001 59.75 27.0501 59.7 27.0201 59.63C26.9901 59.56 27.0001 59.49 27.0001 59.42C27.0101 59.24 27.0201 59.07 27.0301 58.89C25.4101 60.5 23.1601 60.17 21.0701 60.17C20.3001 60.17 19.5401 60.17 18.7701 60.17C18.6901 60.17 18.0001 60.1 17.9501 60.17C16.8601 61.9 15.0701 63.18 12.9401 63.61H52.1401C55.9701 63.61 59.0701 60.51 59.0701 56.68V55.73C59.0601 55.29 59.0101 54.88 58.9401 54.47Z" fill="#007F43"/>
<path d="M18.85 61.28C18.85 61.28 52.73 61.42 52.95 61.35C53.17 61.28 55.46 60.99 57.18 59.34C57.18 59.34 54.03 60.56 52.88 60.7C51.73 60.84 19.57 60.84 19.57 60.84" fill="#02A544"/>
<path d="M9.62002 50.59C9.20002 50.83 8.81002 51.12 8.46002 51.49C6.87002 53.21 5.94002 55.4 6.08002 57.59C6.17002 58.94 6.68002 60.3 7.67002 61.35C8.87002 62.62 10.82 63.59 12.55 63.36C13.15 63.28 13.74 63.2 14.34 63.12C14.86 63.05 15.38 62.98 15.85 62.75C16.57 62.4 17.06 61.72 17.52 61.07C18 60.4 18.48 59.7 18.72 58.91C18.96 58.11 18.92 57.26 18.88 56.43C18.82 55.34 18.75 54.24 18.44 53.19C18.13 52.14 17.56 51.14 16.68 50.49C15.24 49.43 13.26 49.51 11.52 49.9C10.85 50.05 10.2 50.26 9.62002 50.59Z" fill="#007F43"/>
<path d="M18.27 55.8301C18.27 52.8801 15.88 50.4901 12.93 50.4901H11.94C14.89 50.4901 17.28 52.8801 17.28 55.8301V56.5601C17.28 57.5901 16.97 58.5501 16.44 59.3801L16.4 59.3601C16.22 59.7001 15.98 60.0101 15.72 60.2901C15.67 60.3401 15.62 60.38 15.57 60.43C15.48 60.5201 15.39 60.6 15.29 60.68C15.25 60.71 15.2 60.74 15.16 60.78C14.41 61.35 13.48 61.6901 12.53 61.6901C11.49 61.6801 10.51 61.2701 9.90004 60.59C8.98004 59.5601 7.99004 58.34 7.87004 56.96C7.77004 55.79 8.35004 54.55 9.35004 53.78C10.3 53.05 11.6 52.7301 12.92 52.9001C13.51 52.9801 14.34 53.1901 14.95 53.7701C15.47 54.2701 15.72 55.0101 15.57 55.6101C15.49 55.9001 15.33 56.18 15.17 56.42C14.71 57.13 13.66 58.29 12.78 58.39C12.5 58.43 12.27 58.3401 12.06 58.1301C11.51 57.5901 11.19 57.0601 11.13 56.5401C11.07 56.0601 11.31 55.44 11.79 55.28C11.89 55.25 11.99 55.24 12.05 55.26C12.18 55.31 12.32 55.51 12.41 55.68C12.66 56.11 12.69 56.59 12.01 56.41C11.97 56.65 11.94 56.8901 11.9 57.1301C11.9 57.1501 11.89 57.1801 11.9 57.2001C11.91 57.2301 11.94 57.24 11.97 57.25C12.72 57.54 13.55 57.47 13.65 56.5201C13.7 56.01 13.48 55.55 13.26 55.17C13.06 54.83 12.8 54.46 12.35 54.3C12.08 54.21 11.77 54.21 11.45 54.32C10.57 54.62 9.99004 55.6201 10.11 56.6501C10.2 57.4101 10.61 58.15 11.33 58.85C11.76 59.26 12.29 59.4501 12.86 59.3801C14.18 59.2301 15.44 57.7801 15.98 56.9501C16.18 56.6401 16.39 56.27 16.5 55.84C16.75 54.89 16.4 53.78 15.61 53.03C14.97 52.42 14.08 52.03 13.02 51.89C11.45 51.68 9.87004 52.0701 8.71004 52.9701C7.42004 53.9601 6.71004 55.51 6.84004 57.03C6.99004 58.71 8.09004 60.08 9.12004 61.24C9.91004 62.12 11.17 62.66 12.49 62.67C12.5 62.67 12.52 62.67 12.53 62.67C13.72 62.67 14.88 62.22 15.81 61.5C17.25 60.37 18.22 58.3901 18.22 56.5601C18.27 56.5601 18.27 55.8301 18.27 55.8301Z" fill="#02A544"/>
</svg>
